<svg width="0" height="0" class="hidden">
  <symbol viewBox="0 0 64 64" xmlns="http://www.w3.org/2000/svg" id="artificial-intelligence">
    <path d="M32 46a3 3 0 0 0 3-3v-6h-2v6a1 1 0 0 1-2 0v-6h-2v6a3 3 0 0 0 3 3zm9-11a3 3 0 0 0-3 3h2a1 1 0 0 1 2 0h2a3 3 0 0 0-3-3zm-18 0a3 3 0 0 0-3 3h2a1 1 0 0 1 2 0h2a3 3 0 0 0-3-3z"></path>
    <path d="M51 30.1V28c0-2.484-4.733-3.822-10-4.472V21h4v-2h-4v-2h4v-2h-4v-2h4v-2h-4V8a1 1 0 0 0-1-1h-3V3h-2v4h-2V3h-2v4h-2V3h-2v4h-3a1 1 0 0 0-1 1v3h-4v2h4v2h-4v2h4v2h-4v2h4v2.528c-5.267.65-10 1.988-10 4.472v2.1a4.995 4.995 0 0 0 .1 9.808A19 19 0 0 0 21 53.463V61a1 1 0 0 0 1 1h20a1 1 0 0 0 1-1v-7.537a19 19 0 0 0 7.9-13.554A4.995 4.995 0 0 0 51 30.1zM25 23V9h14v14zm2 2.16V29h2v-3.94q.969-.036 2-.048V29h2v-3.989q1.03.014 2 .049V29h2v-3.84c7.451.482 11.7 1.964 12 2.84-.357 1.057-6.449 3-17 3-10.595 0-16.692-1.96-17-2.979v-.007c.256-.874 4.509-2.369 12-2.854zM11 35a3 3 0 0 1 2-2.816v5.632A3 3 0 0 1 11 35zm30 25H23v-5.273a18.954 18.954 0 0 0 18 0zm-9-5a17.019 17.019 0 0 1-17-17v-7.542C18.7 32.41 26.718 33 32 33s13.3-.59 17-2.542V38a17.019 17.019 0 0 1-17 17zm19-17.184v-5.632a2.982 2.982 0 0 1 0 5.632z"></path>
    <path d="M32 49c-2.71 0-5-1.374-5-3h-2c0 2.8 3.075 5 7 5s7-2.2 7-5h-2c0 1.626-2.29 3-5 3zM59 8a3 3 0 1 0-3-3 3 3 0 0 0 3 3zm0-4a1 1 0 1 1-1 1 1 1 0 0 1 1-1zm0 9a3 3 0 1 0 3 3 3 3 0 0 0-3-3zm0 4a1 1 0 1 1 1-1 1 1 0 0 1-1 1zM52.414 6H54V4h-2a1 1 0 0 0-.707.293l-4 4 1.414 1.414zM48 15h6v2h-6zM5 2a3 3 0 1 0 3 3 3 3 0 0 0-3-3zm0 4a1 1 0 1 1 1-1 1 1 0 0 1-1 1zm0 7a3 3 0 1 0 3 3 3 3 0 0 0-3-3zm0 4a1 1 0 1 1 1-1 1 1 0 0 1-1 1zm10.293-7.293l1.414-1.414-4-4A1 1 0 0 0 12 4h-2v2h1.586zM10 15h6v2h-6zm26-4h-8a1 1 0 0 0-1 1v8a1 1 0 0 0 1 1h5a1 1 0 0 0 .707-.293l3-3A1 1 0 0 0 37 17v-5a1 1 0 0 0-1-1zm-1 5.586L32.589 19H29v-6h6z"></path>
  </symbol>
  <symbol xmlns="http://www.w3.org/2000/svg" viewBox="0 0 362 362" id="boat">
    <path d="M361.6 178.8c-1.6-2-4-3.6-6.4-3.6h-74.8l-50.4-58c-1.2-1.2-2.8-2-4.4-2h-60c0-.4 0-.8-.4-1.2l-22.4-42.4c-1.2-2-3.2-3.2-5.2-3.2h-30c-3.2 0-6 2.8-6 6v40.4h-24c-2 0-4 1.2-5.2 2.8l-34 57.2H20.8c-3.2 0-6 2.4-6 6 0 1.2-.4 24.4 9.2 45.2-4.8-2-10.8-3.2-18-3.2-3.2 0-6 2.8-6 6s2.8 6 6 6c13.2 0 19.6 4.8 27.2 10.8 8 6 16.8 13.2 34.4 13.2h5.6c.8 0 1.6-.4 2.4-.8 12.4-1.6 19.6-7.6 26.4-12.4 7.2-5.6 13.6-10.8 27.2-10.8 13.2 0 19.6 4.8 27.2 10.8 8 6 16.8 13.2 34.4 13.2 17.6 0 26.4-7.2 34.4-13.2 7.2-5.6 13.6-10.8 27.2-10.8 13.2 0 19.6 4.8 27.2 10.8 8 6 16.8 13.2 34.4 13.2 3.2 0 6-2.8 6-6s-2.8-6-6-6c-4.4 0-8-.4-11.2-1.6l57.6-60c1.6-1.6 2-4.4 1.2-6.4zM142.4 97.2l9.6 18.4h-38.4V97.2h28.8zm-29.2-16.4h20.4l2.4 4.4h-22.8v-4.4zm-32 46.4h141.6l18.8 21.6H68l13.2-21.6zm-20 33.6H252l12.8 14.4H52.4l8.8-14.4zM290.8 240l-4.8-3.6c-8-6-16.8-13.2-34.4-13.2-17.6 0-26.4 7.2-34.4 13.2-7.2 5.6-13.6 10.8-27.2 10.8-13.2 0-19.6-4.8-27.2-10.8-8-6-16.8-13.2-34.4-13.2-17.2 0-26.4 7.2-34.4 13.2-6.8 5.2-12.8 10-24.4 10.4-10.4-.4-18.8-4.4-25.6-11.2-13.6-14-16.8-37.6-17.6-48.4h314.4l-50 52.8z"></path>
    <path d="M314 281.6c-13.2 0-19.6-4.8-27.2-10.8-8-6-16.8-13.2-34.4-13.2-17.6 0-26.4 7.2-34.4 13.2-7.2 5.6-13.6 10.8-27.2 10.8-13.2 0-19.6-4.8-27.2-10.8-8-6-16.8-13.2-34.4-13.2-17.2 0-26.4 7.2-34.4 13.2-7.2 5.6-13.6 10.8-27.2 10.8-13.2 0-19.6-4.8-27.2-10.8-8-6-16.8-13.2-34.4-13.2-3.2 0-6 2.8-6 6s2.8 6 6 6c13.2 0 19.6 4.8 27.2 10.8 8 6.4 17.2 13.2 34.4 13.2s26.4-7.2 34.4-13.2c7.2-5.6 13.6-10.8 27.2-10.8 13.2 0 19.6 4.8 27.2 10.8 8 6 16.8 13.2 34.4 13.2 17.6 0 26.4-7.2 34.4-13.2 7.2-5.6 13.6-10.8 27.2-10.8 13.2 0 19.6 4.8 27.2 10.8 8 6 16.8 13.2 34.4 13.2 3.2 0 6-2.8 6-6s-2.8-6-6-6z"></path>
  </symbol>
  <symbol version="1" xmlns="http://www.w3.org/2000/svg" viewBox="0 0 1350 1350" id="Buho">
    <path d="M671.4 64c-27.7 1.7-57.3 7.5-85.3 16.6-4.2 1.4-8.5 2.9-9.6 3.3-1.1.5-4.7 1.9-8 3.2-15 5.6-40.9 19.1-58 30.2-16.2 10.5-40.9 30.1-40.2 32.1.3.9 16.7 12.5 104.5 73.8 14.5 10 32.1 22.3 39.1 27.3 60.1 42.1 78.1 54.5 79 54.5 1 0 13.5-8.7 70.1-48.5 12.4-8.7 32.9-23.1 45.5-32 62.5-44 78-54.8 89.5-62.9 14.6-10.3 16.1-11.6 15.4-12.7-1.1-1.8-17.5-15.1-28.6-23.2C824.6 81.8 747.2 59.4 671.4 64z"></path>
    <path d="M336 118.8v26.8l8.5 6c4.7 3.2 12 8.3 16.3 11.3 4.2 3 13.3 9.3 20.2 14.1 13.7 9.6 37.9 26.4 53.5 37.4 5.5 3.8 15 10.4 21 14.6 10.2 7.1 69.7 48.6 131 91.5 14.3 10 38.8 27.1 54.5 38 15.7 10.9 31.4 21.9 35 24.5 10.7 7.7 15.8 11 17 11 .7 0 4-1.9 7.4-4.3 3.3-2.4 16.2-11.5 28.6-20.2 12.4-8.7 26.6-18.7 31.5-22.2 5-3.4 12.2-8.5 16-11.2 3.9-2.7 10.2-7.2 14-9.9 3.9-2.7 10.8-7.6 15.5-10.9 4.7-3.2 16.8-11.8 27-18.9 40.3-28.4 63.5-44.7 85.8-60.4 12.9-9.1 25.3-17.8 27.5-19.4 9.1-6.3 16.7-11.6 28.7-20.1 12.6-8.9 23.9-16.9 34-24 3-2.1 12.8-9 21.7-15.2l16.2-11.5.3-26c.2-19.4 0-26.2-.9-26.5-.6-.3-3.6 1.3-6.5 3.5s-17.4 12.5-32.3 22.9c-14.8 10.4-33.3 23.4-41 28.8-7.7 5.4-22.1 15.6-32 22.5-9.9 7-24.3 17.1-32 22.5-7.7 5.4-22.1 15.6-32 22.5-9.9 6.9-23.4 16.5-30 21.1-6.6 4.7-25 17.7-41 28.9-15.9 11.2-35.1 24.6-42.5 29.9-7.4 5.2-23.4 16.4-35.5 24.9-12.1 8.5-23.4 16.6-25.1 17.8l-3.1 2.4-15.4-10.8c-19.7-13.8-46.5-32.4-69.9-48.7-10.2-7-20.3-14.1-22.5-15.7-4.2-3.1-85.1-59.6-96.5-67.4-3.6-2.5-12.6-8.8-20-14-7.4-5.2-18-12.6-23.5-16.4-5.5-3.8-12-8.4-14.5-10.1-2.5-1.7-20-14-39-27.2s-39.1-27.3-44.8-31.4c-5.6-4-10.4-7.3-10.7-7.3-.3 0-.5 12.1-.5 26.8z"></path>
    <path d="M401.8 234.2c-19 34.1-31.9 73.3-38.5 117-1.6 10.2-1.8 26.5-2.1 174.8-.3 169.9-.2 179.6 3.9 211 2.5 19.4 9 52.3 13 65.5.5 1.6 2.3 7.7 4 13.5 5.5 18.5 12.9 39.7 17.4 49.5.8 1.6 3.7 8.2 6.5 14.5 18.3 41.1 45.3 83.5 75.9 119.5 12.1 14.2 38.5 40.8 53.1 53.5 13.2 11.5 33 26.8 46.7 36.3 20.6 14.2 53 32.6 73.8 41.9 3.3 1.5 9 4.1 12.8 5.7 3.7 1.7 7.1 3.1 7.5 3.1.5 0 2.7.9 5 2 2.2 1.1 4.7 2 5.5 2 .7 0 1.7.4 2.2.8.6.5 5.7 2.4 11.4 4.3s10.5 3.9 10.8 4.5c.2.6-2.6 6-6.3 12-3.7 6-11.6 19-17.7 28.9-6 9.9-12.6 20.7-14.7 24-2 3.3-9.4 15.4-16.5 27s-13 21.2-13.3 21.5c-.2.3-40.9.7-90.5 1l-90.2.5-.3 20.7-.2 20.8h594l-.2-20.8-.3-20.7-52.5-.5-52.5-.5-.3-44.4c-.2-34.9 0-44.6 1-45.3.7-.4 10.9-.8 22.6-.8 19.3 0 25.3-.8 18.8-2.4-7.2-1.8-43.9-20.1-67.5-33.6-28.1-16.1-48.1-29.6-65.6-44.1-10.8-9-33.6-32.5-41.7-42.9-38.4-49.8-58.5-111.2-56.4-172 1-29.9 4-49 12.1-75.4 10.7-35.4 26.9-66.4 49.3-95.1 8.5-10.7 36.5-38.2 47.5-46.4 29.5-22 61-37.1 97.3-46.6 10.4-2.7 36.3-7.1 47.7-8l7.8-.7-.4-124.1c-.3-132.4-.3-129.8-5.3-154.7-3.5-17.5-11-44-15.3-54.5-.5-1.1-2.4-5.7-4.2-10.2-6-14.4-17.3-35.8-18.9-35.7-1.4.1-11.9 7.2-38.9 26.4-4.3 3-14.4 10.1-22.4 15.8-8 5.6-14.8 10.6-15.1 11-.2.4 1.9 3.8 4.8 7.5 11.9 15.4 17.8 32.4 17.9 51.1 0 32-16.9 59.8-45.5 75-32.7 17.3-72.6 10.6-99-16.7-3.2-3.3-7.9-9.2-10.4-13.3-2.9-4.6-5-7.1-5.8-6.7-.6.4-16.2 11.2-34.6 24.1-18.4 13-34.2 23.7-35.2 24-1.7.4-5.5-2.1-35.8-23.3-40.6-28.4-38.3-26.9-39.7-24.9-.8 1.1-3.2 4.8-5.5 8.4-2.3 3.6-7.7 9.9-11.9 14-28.2 27.7-71.7 31.8-104.3 9.8-16.9-11.5-29.9-29.6-35-48.8-2.4-8.9-3.2-25.5-1.6-34.4 2.6-15 9.6-30.1 18.6-40.3 2.3-2.7 3.9-5.4 3.6-6-.4-.5-9.2-6.9-19.7-14.2-10.4-7.3-20.1-14.1-21.5-15.1-1.4-1-6.3-4.5-11-7.7-4.7-3.1-11.8-8.1-15.9-11-4.1-2.9-8-5.3-8.7-5.3-.7 0-2.3 1.9-3.6 4.2zM762 440.1c0 .6-2.8 6.3-6.1 12.7-3.4 6.5-8.6 16.4-11.7 22.2-3 5.8-6.9 13.2-8.7 16.5-3.6 6.6-7.8 14.6-18 34-3.8 7.1-9 17-11.7 22-2.6 4.9-6.7 12.7-9 17.2-2.3 4.6-4.7 8.3-5.3 8.3-.5 0-1.5-1-2.1-2.3-.9-2-8.4-16.2-18.4-35.2-2-3.9-6.5-12.4-10-19-3.4-6.6-8.2-15.6-10.5-20-5.1-9.6-10-18.8-18.5-35-3.5-6.6-7.4-13.9-8.7-16.3-1.2-2.3-2.3-4.7-2.3-5.2 0-.6 25.9-1 70.5-1 50.5 0 70.5.3 70.5 1.1zm7.2 727.9c11.1 2.3 32.9 5.5 47.3 7.2 5 .5 27.2 1.3 49.5 1.7l40.5.6.3 45.3.2 45.2H799.5c-68.1 0-107.5-.4-107.5-1 0-.7 18.2-30.9 36-59.5 2-3.3 6.3-10.3 9.5-15.5 3.2-5.2 7.6-12.4 9.8-16 2.2-3.6 4.7-7.6 5.4-8.8 1.1-1.8 2-2.2 3.8-1.8 1.3.3 7 1.5 12.7 2.6z"></path>
    <path d="M669 469.1c0 .6 2 4.8 4.4 9.3 2.4 4.4 7.2 13.5 10.6 20.1 3.4 6.6 6.6 12.4 7 12.8.9 1.1 2.7-1.9 13.5-22.8 4.8-9.4 9.2-17.5 9.6-18.1.5-.6.6-1.4.2-1.7-1.2-1.3-45.3-.8-45.3.4zM501.5 306.7c-19.3 23.7-17.9 55.1 3.5 75.7 21.8 21.1 54.9 20.7 76.6-.9 6.8-6.8 12.4-15.6 12.4-19.2-.1-1-1.7-3-3.8-4.4-16.4-11.3-22.3-15-23.1-14.5-.5.4-1.2 2.4-1.6 4.6-1.5 9-10.8 17.1-20.5 17.8-7.3.5-12.2-1.1-17.2-5.6-5.6-5.1-7.8-9.9-7.8-17.3 0-8.2 3.5-14.8 10.2-19.1 2.6-1.7 4.8-3.4 4.8-3.8 0-.3-3.9-3.3-8.7-6.5-4.9-3.3-10.8-7.4-13.2-9.2-2.4-1.8-5-3.3-5.7-3.3-.7 0-3.4 2.6-5.9 5.7zm360.8 4.1c-6.7 4.8-12.2 9.2-12.2 9.9-.1.6 1.4 2 3.3 3.1 4.3 2.5 8.1 8.2 9.8 14.4 3.5 13.5-8.4 27.8-23.1 27.8-10.4 0-20.7-8.5-22.6-18.6-.4-2.6-1-3.4-2.1-3-1 .4-23.6 16-26.2 18.1-.6.5 2.3 6.2 6 11.7 7.1 10.6 18.5 18.5 31.7 21.9 24 6.1 49-4.3 61.1-25.6 9.5-16.7 9.6-38.8.1-55-4-6.8-9.9-13.5-11.9-13.4-.9 0-7.2 3.9-13.9 8.7zm151.2 328.9c-39.9 3.3-80.7 17.5-114.2 39.7-49.1 32.7-85.5 83.6-100.9 141.4-12.8 48-12.3 93.8 1.4 139.2 7.4 24.4 20.8 50.7 36.8 72 26.3 35.1 56.7 59.4 113.4 90.7 11.2 6.2 37.4 19.3 38.5 19.3.3 0 3.5 1.4 7.2 3.1 6.5 3.1 25.3 10.9 26 10.9.1 0 .3-116.3.3-258.5V639l-2.2.2c-1.3.1-4.1.3-6.3.5zm-19.5 124c0 3.3-8 15.1-14.2 20.9C969.7 794 959.4 798 945 798c-13.3 0-24-4.4-34.2-13.9-6.3-5.8-13.8-16.9-13.8-20.3 0-1.7 2.7-1.8 48.5-1.8 44.9 0 48.5.1 48.5 1.7zM926.5 855c1.2 2-5.7 13.3-12.3 19.9-16.1 16.3-39.9 19.8-60.5 8.9-9.7-5.2-25.1-23.8-23.3-28.3.5-1.3 7.4-1.5 48-1.5 29.3 0 47.7.4 48.1 1zm67.5 79.7c0 2.9-7.9 15.1-13.2 20.3-6 6-16.8 11.6-25.3 13.1-12.6 2.3-28.5-.7-38-7.1-5.8-4-13.6-12.6-17.3-19.1-5.5-9.7-9.8-8.9 45.3-8.9 44.9 0 48.5.1 48.5 1.7z"></path>
  </symbol>
  <symbol xmlns="http://www.w3.org/2000/svg" viewBox="0 0 512 512" id="cancel">
    <path d="M256 0C114.615 0 0 114.615 0 256s114.615 256 256 256 256-114.615 256-256C511.835 114.683 397.317.165 256 0zm0 490.667C126.397 490.667 21.333 385.603 21.333 256S126.397 21.333 256 21.333 490.667 126.397 490.667 256C490.52 385.542 385.542 490.52 256 490.667z"></path>
    <path d="M391.765 135.328l-15.082-15.093L256 240.917 135.317 120.235l-15.082 15.093L240.917 256 120.235 376.672l15.082 15.093L256 271.083l120.683 120.682 15.082-15.093L271.083 256z"></path>
  </symbol>
  <symbol viewBox="-56 0 480 480.162" xmlns="http://www.w3.org/2000/svg" id="create">
    <path d="M123.602 168.16h28.457a7.998 7.998 0 0 0 7.16-4.422l4.16-8.32 3.879 11.648a23.904 23.904 0 0 0-7.2 17.094c0 9.32 7.481 40 24 40 16.52 0 24-30.68 24-40a23.922 23.922 0 0 0-7.199-17.101l3.88-11.649 4.16 8.328a7.998 7.998 0 0 0 7.16 4.422h28.457a16 16 0 0 0 14.984-21.598l-16.059-42.8a24.082 24.082 0 0 0-19.382-15.36V67.195a85.807 85.807 0 0 0-14.985-49.136c-16.676-24.082-33.355-24.079-50.031.007a85.753 85.753 0 0 0-14.984 49.13v21.206a24.098 24.098 0 0 0-19.383 15.336l-16.059 42.825a16.01 16.01 0 0 0 1.844 14.718 15.993 15.993 0 0 0 13.14 6.88zm60.457 39.328a49.607 49.607 0 0 1-8-23.328 8 8 0 0 1 16 0 49.565 49.565 0 0 1-8 23.328zm-2.23-47.328l-2.673-8h9.809l-2.672 8zm46.632-50.805l16.055 42.805h-23.512l-.695-1.39a7.86 7.86 0 0 0 3.75-6.61v-39.285a7.954 7.954 0 0 1 4.402 4.48zm-68.402-42.16a69.867 69.867 0 0 1 12.144-40c6.016-8.715 10.258-11.035 11.856-11.035 1.601 0 5.84 2.32 11.855 11a69.885 69.885 0 0 1 12.145 40v69h-16v-48h-16v48h-16zm-20.407 42.16a7.984 7.984 0 0 1 4.407-4.48v39.285a7.854 7.854 0 0 0 3.754 6.61l-.7 1.39h-23.511zm0 0"></path>
    <path d="M184.059 57.105l12.425 6.215 7.153-14.316-16-8a8 8 0 0 0-7.153 0l-16 8 7.153 14.316zm48 127.055h16v32h-16zm-112 0h16v32h-16zm144-136h16v32h-16zm0 48h16v16h-16zm-176-48h16v32h-16zm0 48h16v16h-16zm96 256c13.254 0 24-10.742 24-24v-48h-16v48c0 4.422-3.582 8-8 8s-8-3.578-8-8v-48h-16v48c0 13.258 10.746 24 24 24zm72-88c-13.254 0-24 10.746-24 24h16a8 8 0 0 1 16 0h16c0-13.254-10.746-24-24-24zm-144 0c-13.254 0-24 10.746-24 24h16a8 8 0 0 1 16 0h16c0-13.254-10.746-24-24-24zm0 0"></path>
    <path d="M368.059 264.16c-.024-19-13.387-35.37-32-39.2v-16.8c0-15.11-20.496-25.973-62.649-33.215l-2.703 15.77c38.106 6.543 48.664 15.101 49.367 17.305-2.398 8.43-51.199 24.14-136 24.14s-133.535-15.68-136-23.832v-.062c.801-2.52 11.403-11.032 49.352-17.551l-2.703-15.77c-42.168 7.242-62.664 18.106-62.664 33.215v16.8C13.3 228.786-.113 245.38.082 264.524c.195 19.145 13.941 35.461 32.777 38.903 5.211 50.851 35.602 95.695 80.903 119.375h-1.703v49.36c0 4.421 3.582 8 8 8h128c4.418 0 8-3.579 8-8V422.8h-1.704c45.301-23.68 75.692-68.516 80.903-119.367 18.972-3.473 32.765-19.985 32.8-39.274zm-352 0a24.003 24.003 0 0 1 16-22.527v45.058a24.004 24.004 0 0 1-16-22.53zm224 200h-112v-34.82a150.298 150.298 0 0 0 112 0zm-56-40c-75.075-.082-135.914-60.922-136-136v-60.336c29.601 15.617 93.746 20.336 136 20.336 42.257 0 106.402-4.719 136-20.336v60.336c-.082 75.078-60.922 135.918-136 136zm152-137.469v-45.058a23.858 23.858 0 0 1 0 45.059zm0 0"></path>
    <path d="M184.059 376.16c-21.68 0-40-10.988-40-24h-16c0 22.402 24.601 40 56 40 31.402 0 56-17.598 56-40h-16c0 13.012-18.32 24-40 24zm136-304h16v40h-16zm0 56h16v16h-16zm-288-56h16v40h-16zm0 56h16v16h-16zm0 0"></path>
  </symbol>
  <symbol xmlns="http://www.w3.org/2000/svg" viewBox="0 0 464 464" id="faq">
    <path d="M440 96.399H336v-24c0-13.255-10.745-24-24-24H24c-13.255 0-24 10.745-24 24v287.2a8 8 0 0 0 13.656 5.656l76.856-76.856H128v119.2a8 8 0 0 0 13.656 5.656l76.856-76.856H440c13.255 0 24-10.745 24-24v-192c0-13.254-10.745-24-24-24zm-312 24v152H87.2a8 8 0 0 0-5.656 2.344L16 340.287V72.399a8 8 0 0 1 8-8h288a8 8 0 0 1 8 8v24H152c-13.255 0-24 10.746-24 24zm320 192a8 8 0 0 1-8 8H215.2a8 8 0 0 0-5.656 2.344L144 388.287V120.399a8 8 0 0 1 8-8h288a8 8 0 0 1 8 8v192z"></path>
    <path d="M272 248.399v-72c0-13.255-10.745-24-24-24h-40c-13.255 0-24 10.745-24 24v72c0 13.255 10.745 24 24 24h40a23.608 23.608 0 0 0 10.28-2.4l13.32 13.32 11.312-11.312-13.312-13.328a23.604 23.604 0 0 0 2.4-10.28zm-16-3.312l-18.344-18.344-11.312 11.312 18.344 18.344H208a8 8 0 0 1-8-8v-72a8 8 0 0 1 8-8h40a8 8 0 0 1 8 8v68.688zm32-36.688h32v16h-32zm120-56h-64a8 8 0 0 0-8 8v112h16v-56h48v56h16v-112a8 8 0 0 0-8-8zm-8 48h-48v-32h48v32zm-352-104h32v16H48zm48 0h24v16H96zm-48 40h72v16H48zm0 40h72v16H48zm0 40h16v16H48zm32 0h40v16H80z"></path>
  </symbol>
  <symbol xmlns="http://www.w3.org/2000/svg" viewBox="0 0 511.999 511.999" id="grapes">
    <path d="M487.878 156.405c0-36.183-29.436-65.619-65.619-65.619-23.29 0-43.771 12.208-55.419 30.55-11.648-18.343-32.129-30.55-55.42-30.55-1.386 0-2.764.059-4.137.145l39.273-39.273c.172-.172.339-.351.498-.534 9.552-11.03 41.109-39.803 60.167-27.73 13.846 8.769 14.76 21.605 11.336 29.932-3.187 7.752-11.494 14.959-25.246 11.948-1.987-.435-3.013-1.458-3.049-3.041-.06-2.539 2.496-5.803 8.339-7.375 5.439-1.464 8.663-7.06 7.199-12.499-1.464-5.44-7.058-8.657-12.498-7.201-16.531 4.447-23.68 17.042-23.432 27.555.259 11.007 7.925 20.043 19.076 22.488 24.44 5.353 41.955-8.256 48.477-24.117 6.711-16.319 3.537-40.468-19.287-54.923-36.725-23.26-81.993 26.496-86.242 31.313l-42.927 42.925.192-46.371c.074-18.115-14.603-32.914-32.718-32.99-8.809-.047-17.042 3.347-23.273 9.528-6.231 6.181-9.683 14.416-9.719 23.179l-.2 37.378c-21.367-2.333-43.568 4.656-59.914 21.001-6.449 6.449-12.32 17.318-17.538 30.204-11.531-18.899-32.344-31.542-56.056-31.542-36.183 0-65.619 29.436-65.619 65.619 0 35.713 28.684 64.833 64.221 65.583-5.36 9.681-8.241 20.657-8.241 31.822 0 35.518 28.37 64.515 63.636 65.569a65.207 65.207 0 0 0-7.656 30.716c0 35.147 27.778 63.922 62.532 65.541a65.198 65.198 0 0 0-7.672 30.744c0 36.183 29.436 65.619 65.618 65.619 36.183 0 65.619-29.436 65.619-65.619a65.21 65.21 0 0 0-7.656-30.716c35.266-1.055 63.637-30.051 63.637-65.569a65.197 65.197 0 0 0-7.671-30.744c34.753-1.619 62.531-30.394 62.531-65.541a65.193 65.193 0 0 0-8.276-31.849c35.033-1.313 63.134-30.207 63.134-65.556zm-203.326-36.366a44.987 44.987 0 0 1 26.867-8.856c24.936.001 45.221 20.287 45.221 45.221s-20.286 45.22-45.221 45.22c-13.885 0-26.671-6.2-35.212-16.832 12.908-19.289 15.691-43.388 8.345-64.753zm6.67 104.758c4.806 5.733 8.157 12.64 9.651 19.972a45.3 45.3 0 0 1 .908 9.041c0 24.935-20.287 45.22-45.221 45.22s-45.22-20.287-45.22-45.221c0-8.268 2.338-16.473 6.639-23.53a45.576 45.576 0 0 1 7.794-9.577c6.781-6.336 15.734-10.406 24.896-11.718 7.657-1.096 15.615-.019 22.776 2.873a45.588 45.588 0 0 1 17.777 12.94zM243.846 33.841a12.369 12.369 0 0 1 3.685-8.793 12.378 12.378 0 0 1 8.771-3.612h.053c6.868.028 12.434 5.639 12.405 12.508l-.246 59.667c-.47-.497-.927-1.001-1.414-1.487a72.944 72.944 0 0 0-23.481-15.753l.227-42.53zm-89.128 126.09a9.93 9.93 0 0 0 .443-1.546c6.792-23.509 14.702-43.941 22.597-51.836 10.326-10.328 23.893-15.491 37.459-15.491 10.39 0 20.775 3.041 29.711 9.1l-31.282 31.282c-3.983 3.983-3.983 10.441 0 14.424 1.992 1.991 4.602 2.987 7.212 2.987s5.221-.996 7.212-2.987l31.231-31.231c13.718 20.572 11.514 48.697-6.624 66.835-14.469 14.469-71.045 28.988-111.489 36.57 3.353-17.895 8.066-38.943 13.53-58.107zM89.74 201.624c-24.936.001-45.221-20.284-45.221-45.219 0-24.935 20.286-45.221 45.221-45.221 24.359 0 44.271 19.364 45.177 43.506-2.45 8.591-4.651 17.239-6.587 25.463-.242.293-.473.599-.685.924-8.396 12.865-22.566 20.547-37.905 20.547zm55.979 97.408c-24.935-.001-45.22-20.287-45.22-45.222 0-15.399 7.986-29.475 20.308-37.696a616.387 616.387 0 0 0-2.242 12.849 10.199 10.199 0 0 0 11.697 11.696c5.04-.816 27.794-4.625 53.728-10.944 4.556 7.19 6.951 15.426 6.951 24.095-.001 24.935-20.287 45.222-45.222 45.222zm55.98 96.284c-24.936-.001-45.221-20.287-45.221-45.221 0-24.935 20.286-45.221 45.221-45.221 24.935 0 45.22 20.287 45.22 45.221 0 24.935-20.285 45.221-45.22 45.221zm54.86 96.285c-24.935 0-45.22-20.287-45.22-45.221s20.286-45.22 45.22-45.22c24.935 0 45.221 20.286 45.221 45.22s-20.286 45.221-45.221 45.221zm55.98-96.286c-24.936 0-45.221-20.287-45.221-45.221s20.286-45.221 45.221-45.221c24.935 0 45.22 20.287 45.22 45.221s-20.285 45.221-45.22 45.221zm54.86-96.284c-24.935 0-45.22-20.287-45.22-45.221s20.286-45.221 45.22-45.221c24.935 0 45.22 20.287 45.22 45.221s-20.285 45.221-45.22 45.221zm54.86-97.406c-24.935 0-45.22-20.286-45.22-45.22s20.286-45.221 45.22-45.221c24.936 0 45.221 20.287 45.221 45.221s-20.286 45.22-45.221 45.22z"></path>
    <path d="M201.605 157.901c-3.983-3.982-10.441-3.983-14.423.001l-12.966 12.967c-3.983 3.983-3.983 10.44 0 14.423 1.992 1.991 4.602 2.987 7.212 2.987s5.221-.996 7.212-2.988l12.966-12.967c3.982-3.982 3.982-10.439-.001-14.423z"></path>
  </symbol>
  <symbol viewBox="-80 0 480 480" xmlns="http://www.w3.org/2000/svg" id="hourglass">
    <path d="M295.977 417.137V380.8a87.856 87.856 0 0 0-30.739-66.817L186.77 246.71a7.995 7.995 0 0 1-2.793-6.07v-1.282a7.98 7.98 0 0 1 2.793-6.078l78.468-67.258A87.885 87.885 0 0 0 295.977 99.2V62.863c15.586-4.011 25.75-18.992 23.718-34.957C317.665 11.938 304.07-.02 287.977 0h-256C15.883-.02 2.289 11.938.254 27.906-1.777 43.871 8.39 58.852 23.977 62.863V99.2a87.852 87.852 0 0 0 30.734 66.817l78.473 67.273a7.995 7.995 0 0 1 2.793 6.07v1.282a8.006 8.006 0 0 1-2.793 6.078L54.71 313.977A87.894 87.894 0 0 0 23.977 380.8v36.336C8.39 421.148-1.777 436.129.254 452.094 2.289 468.063 15.883 480.02 31.977 480h256c16.093.02 29.687-11.938 31.718-27.906 2.032-15.965-8.132-30.946-23.718-34.957zm-256-26.496a162.551 162.551 0 0 0 51.199-15.329 145.302 145.302 0 0 1 68.8-15.312 145.322 145.322 0 0 1 68.801 15.313 162.551 162.551 0 0 0 51.2 15.328V416h-240zM15.977 32c0-8.836 7.164-16 16-16h256c8.836 0 16 7.164 16 16s-7.164 16-16 16h-256c-8.836 0-16-7.164-16-16zm24 32h240v35.2A71.948 71.948 0 0 1 269.87 136H50.086a71.876 71.876 0 0 1-10.11-36.8zM65.12 326.129l78.469-67.266a23.987 23.987 0 0 0 8.387-18.222v-1.282a23.938 23.938 0 0 0-8.387-18.214L65.12 153.863c-.687-.582-1.297-1.246-1.96-1.863h193.616c-.672.617-1.273 1.281-1.968 1.871l-78.473 67.266a23.986 23.986 0 0 0-8.36 18.222v1.282a23.947 23.947 0 0 0 8.383 18.214l78.473 67.282a71.796 71.796 0 0 1 24.8 48.367 148.346 148.346 0 0 1-44.378-13.809A160.548 160.548 0 0 0 159.977 344a160.563 160.563 0 0 0-75.282 16.695 148.288 148.288 0 0 1-44.375 13.809 71.83 71.83 0 0 1 24.801-48.375zM287.977 464h-256c-8.836 0-16-7.164-16-16s7.164-16 16-16h256c8.836 0 16 7.164 16 16s-7.164 16-16 16zm0 0"></path>
    <path d="M151.977 256h16v16h-16zm0 32h16v16h-16zm0 32h16v16h-16zm0 0"></path>
  </symbol>
  <symbol viewBox="0 -36 512.001 512" xmlns="http://www.w3.org/2000/svg" id="joystick">
    <path d="M510.527 326.402l-14.086-79.59c-12.539-71.535-74.699-123.695-147.328-123.632H162.938c-72.641-.078-134.82 52.086-147.364 123.633l-14.086 79.59c-9.293 52.656 25.86 102.882 78.52 112.175a96.94 96.94 0 0 0 16.87 1.477h5.282c42.899-.184 80.625-28.426 92.887-69.54l.262-.878h121.453l.261.879c12.262 41.109 49.98 69.351 92.88 69.539h5.28c53.473-.004 96.82-43.356 96.817-96.828a96.74 96.74 0 0 0-1.473-16.825zm-34.664 67.774a79.046 79.046 0 0 1-60.687 28.273h-5.281c-35.094-.148-65.957-23.242-76-56.87l-2.13-7.227a8.794 8.794 0 0 0-8.43-6.317h-134.62a8.795 8.795 0 0 0-8.438 6.317l-2.132 7.226c-10.04 33.629-40.903 56.723-75.997 56.871h-5.28c-43.75-.004-79.216-35.476-79.208-79.226 0-4.614.403-9.215 1.203-13.758l14.086-79.59c11.059-63.121 65.903-109.148 129.989-109.09h186.18c64.093-.078 118.96 45.957 130.019 109.09l14.086 79.59a79.086 79.086 0 0 1-17.36 64.683zm0 0"></path>
    <path d="M159.203 272.816h-26.406V246.41c0-4.863-3.942-8.805-8.8-8.805H88.788a8.804 8.804 0 0 0-8.805 8.805v26.406H53.582c-4.863 0-8.805 3.942-8.805 8.801v35.207a8.804 8.804 0 0 0 8.805 8.805h26.402v26.406c0 4.86 3.942 8.8 8.805 8.8h35.207a8.8 8.8 0 0 0 8.8-8.8V325.63h26.407a8.804 8.804 0 0 0 8.805-8.805v-35.207a8.803 8.803 0 0 0-8.805-8.8zm-8.8 35.207h-26.407a8.8 8.8 0 0 0-8.8 8.801v26.406H97.59v-26.406c0-4.86-3.942-8.8-8.8-8.8H62.382v-17.606h26.406a8.8 8.8 0 0 0 8.8-8.8V255.21h17.606v26.406a8.802 8.802 0 0 0 8.801 8.801h26.406zm246.457-26.406c14.581 0 26.406-11.824 26.406-26.406 0-14.582-11.825-26.406-26.407-26.406-14.586 0-26.406 11.824-26.406 26.406 0 14.582 11.82 26.406 26.406 26.406zm0-35.207a8.802 8.802 0 0 1 0 17.602 8.8 8.8 0 1 1 0-17.602zm0 70.414c-14.587 0-26.407 11.824-26.407 26.406s11.82 26.407 26.406 26.407c14.582 0 26.407-11.824 26.407-26.407s-11.825-26.406-26.407-26.406zm0 35.207c-4.864 0-8.805-3.941-8.805-8.8s3.941-8.801 8.804-8.801a8.802 8.802 0 0 1 .001 17.601zm44.007-79.215c-14.582 0-26.406 11.82-26.406 26.407 0 14.582 11.824 26.406 26.406 26.406 14.582 0 26.406-11.824 26.406-26.406 0-14.586-11.824-26.407-26.406-26.407zm0 35.207c-4.86 0-8.8-3.941-8.8-8.804a8.801 8.801 0 0 1 17.601-.001 8.8 8.8 0 0 1-8.8 8.805zm-61.613-8.8c0-14.586-11.824-26.407-26.406-26.407-14.582 0-26.407 11.82-26.407 26.407 0 14.582 11.825 26.406 26.407 26.406s26.406-11.824 26.406-26.406zm-26.406 8.8c-4.86 0-8.801-3.941-8.801-8.804a8.802 8.802 0 0 1 17.601-.001c0 4.864-3.941 8.805-8.8 8.805zM238.422 211.2h-52.813c-4.859 0-8.8 3.94-8.8 8.804v26.406a8.8 8.8 0 0 0 8.8 8.8h52.813a8.8 8.8 0 0 0 8.8-8.8v-26.406c0-4.863-3.94-8.805-8.8-8.805zm-8.8 26.405H194.41v-8.8h35.211zm105.62 8.805v-26.406c0-4.863-3.941-8.805-8.8-8.805h-52.813c-4.86 0-8.8 3.942-8.8 8.805v26.406a8.8 8.8 0 0 0 8.8 8.8h52.812c4.86 0 8.801-3.94 8.801-8.8zm-17.601-8.805H282.43v-8.8h35.21zm-80.293-159.5c-3.438 3.442-3.434 9.016.004 12.45 3.441 3.437 9.015 3.437 12.449-.004a8.994 8.994 0 0 1 12.449 0 8.8 8.8 0 0 0 12.45.004c3.437-3.434 3.44-9.008.003-12.45-10.453-9.972-26.902-9.972-37.355 0zm0 0"></path>
    <path d="M293.371 68.238a8.798 8.798 0 0 0 8.8-8.804 8.79 8.79 0 0 0-2.577-6.22c-24.059-24.062-63.07-24.066-87.133-.003 0 0-.004 0-.004.004-3.496 3.375-3.594 8.95-.219 12.445 3.38 3.496 8.95 3.594 12.446.215.074-.07.148-.14.218-.215 17.184-17.187 45.051-17.191 62.239-.008.004.004.007.004.007.008a8.8 8.8 0 0 0 6.223 2.578zm0 0"></path>
    <path d="M200.008 40.758c30.957-30.89 81.078-30.89 112.035 0 3.496 3.379 9.066 3.281 12.445-.215a8.806 8.806 0 0 0 0-12.23c-37.836-37.75-99.09-37.75-136.926 0-3.375 3.496-3.277 9.07.22 12.449a8.797 8.797 0 0 0 12.226-.004zm0 0"></path>
  </symbol>
  <symbol xmlns="http://www.w3.org/2000/svg" viewBox="0 0 512 512" id="left-arrow">
    <path d="M468.662 212.66H147.974l52.851-52.851c16.896-16.897 16.897-44.393 0-61.293-8.187-8.186-19.07-12.694-30.647-12.694-11.576 0-22.46 4.508-30.646 12.694L12.697 225.351C4.509 233.536 0 244.42 0 256s4.509 22.465 12.695 30.647l126.837 126.839c8.186 8.185 19.069 12.693 30.646 12.693 11.577 0 22.462-4.508 30.646-12.694 8.179-8.177 12.683-19.06 12.683-30.647s-4.504-22.47-12.682-30.647l-52.851-52.851h320.687C492.557 299.341 512 279.898 512 256s-19.442-43.341-43.338-43.34zm-.003 66.282h-345.31a10.198 10.198 0 0 0-7.212 17.411l70.264 70.263c4.324 4.324 6.706 10.086 6.706 16.222 0 6.136-2.382 11.897-6.706 16.222h-.001a22.789 22.789 0 0 1-16.222 6.719 22.795 22.795 0 0 1-16.222-6.719L27.118 272.221c-4.333-4.332-6.719-10.092-6.719-16.221s2.387-11.889 6.721-16.222L153.957 112.94c4.334-4.334 10.093-6.72 16.221-6.72s11.89 2.387 16.223 6.718c8.945 8.947 8.945 23.501 0 32.446l-70.263 70.263a10.2 10.2 0 0 0 7.212 17.411h345.311c12.649 0 22.941 10.291 22.941 22.942s-10.292 22.943-22.943 22.942z"></path>
    <path d="M124.477 326.835l-2.022-2.023c-3.985-3.982-10.441-3.982-14.425 0-3.983 3.984-3.983 10.442 0 14.425l2.023 2.023a10.169 10.169 0 0 0 7.212 2.987c2.61 0 5.22-.996 7.213-2.987 3.982-3.985 3.982-10.443-.001-14.425zm-21.77-21.771L49.431 251.79c-3.985-3.982-10.441-3.982-14.425 0-3.983 3.984-3.983 10.442 0 14.425l53.276 53.275a10.169 10.169 0 0 0 7.212 2.987c2.61 0 5.22-.995 7.213-2.987 3.983-3.985 3.983-10.443 0-14.426z"></path>
  </symbol>
  <symbol viewBox="0 0 64 64" xmlns="http://www.w3.org/2000/svg" id="like">
    <path d="M58.777 37.223a10.914 10.914 0 0 0-6.9-3.18L50.142 21H52a2 2 0 0 0 1.954-1.581A3.958 3.958 0 0 0 56 20h1a1 1 0 0 0 1-1v-6a1 1 0 0 0-1-1h-1a3.958 3.958 0 0 0-2.046.581A2 2 0 0 0 52 11h-8a4 4 0 0 0-3.858 3H36.5a2.5 2.5 0 0 0 0 5h4.048A3.976 3.976 0 0 0 44 21v19a3 3 0 0 1-3 3h-7V31a1 1 0 0 0 1-1v-2a3 3 0 0 0-3-3h-6V9a2 2 0 0 0-2-2H6a2 2 0 0 0-2 2v16a2 2 0 0 0 2 2h1.184A2.966 2.966 0 0 0 7 28a3 3 0 0 0 3 3h.1a13.1 13.1 0 0 0-3.141 2.749 2.993 2.993 0 1 0-2.579 5.185A12.969 12.969 0 0 0 4 42v6a1 1 0 0 0 1 1h6.072a8 8 0 1 0 15.856 0h16.3a7.009 7.009 0 0 0 1.886-.279A8 8 0 1 0 59.915 46H61a1 1 0 0 0 1-1 10.928 10.928 0 0 0-3.223-7.777zM56 14v4a2 2 0 0 1 0-4zm-12-1h8v6h-6.5a2.5 2.5 0 0 0 0-5h-3.222A1.993 1.993 0 0 1 44 13zm-8 3.5a.5.5 0 0 1 .5-.5h9a.5.5 0 0 1 0 1h-9a.5.5 0 0 1-.5-.5zM32 27a1 1 0 0 1 1 1v1h-8v-2zm-8-16h-6V9h6zM14 9h2v4h-2zm-2 0v2H6V9zm-6 4h6v1a1 1 0 0 0 1 1h4a1 1 0 0 0 1-1v-1h6v12H6zm4 16a1 1 0 0 1 0-2h13v2zm-6 7a1 1 0 0 1 1-1 .989.989 0 0 1 .808.419 12.91 12.91 0 0 0-.8 1.568A1.023 1.023 0 0 1 4 36zm24 7H10.1a5.009 5.009 0 0 1 4.9-4h12a1 1 0 0 1 1 1zm-18 2h18v2H10zm10 5a1 1 0 1 1-1-1 1 1 0 0 1 1 1zm5 0a6 6 0 0 1-12 0 6.126 6.126 0 0 1 .09-1h3.094A2.966 2.966 0 0 0 16 50a3 3 0 0 0 6 0 2.966 2.966 0 0 0-.184-1h3.094a6.126 6.126 0 0 1 .09 1zm5-3v-7a3 3 0 0 0-3-3H15a7.008 7.008 0 0 0-7 7v3H6v-5a11.013 11.013 0 0 1 11-11h15v13a1 1 0 0 0 1 1h8a5.006 5.006 0 0 0 5-5V21h2.125l1.86 13.952-1.885 8.172A4.978 4.978 0 0 1 43.227 47zm29 3a6 6 0 0 1-12 0 5.864 5.864 0 0 1 .55-2.488A6.956 6.956 0 0 0 48.957 46h8.5A6 6 0 0 1 59 50zm-9.089-6c.043-.144.1-.278.137-.426l1.739-7.536A9 9 0 0 1 59.945 44z"></path>
    <path d="M53 53a3 3 0 1 0-3-3 3 3 0 0 0 3 3zm0-4a1 1 0 1 1-1 1 1 1 0 0 1 1-1zm-18 7h10v2H35zm-4 0h2v2h-2zm0 4h10v2H31zm-4 0h2v2h-2zm-4 0h2v2h-2zM10 3h10v2H10zM6 3h2v2H6zM2 3h2v2H2z"></path>
  </symbol>
  <symbol viewBox="0 -24 480 480" xmlns="http://www.w3.org/2000/svg" id="motorcycle">
    <path d="M456 0H24C10.746 0 0 10.746 0 24v272c0 13.254 10.746 24 24 24h152v48h-8a8.001 8.001 0 0 0-5.656 2.344l-24 24A8.001 8.001 0 0 0 136 400v16h-16v16h240v-16h-16v-16a8.001 8.001 0 0 0-2.344-5.656l-24-24A8.001 8.001 0 0 0 312 368h-8v-48h152c13.254 0 24-10.746 24-24V24c0-13.254-10.746-24-24-24zM24 16h432a8 8 0 0 1 8 8v232H16V24a8 8 0 0 1 8-8zm304 387.313V416H152v-12.688L171.313 384h137.375zM288 368h-96v-48h96zm168-64H24a8 8 0 0 1-8-8v-24h448v24a8 8 0 0 1-8 8zm0 0"></path>
    <path d="M232 280h16v16h-16zm-96-56h152c12.988.105 23.664-10.215 24-23.2l8-80.8c0-13.254-10.746-24-24-24h-32V72c0-13.254-10.746-24-24-24h-8c-8.836 0-16 7.164-16 16v32a39.705 39.705 0 0 0-26.48 10.246A8.01 8.01 0 0 0 184 104h-48a8 8 0 0 0-8 8v104a8 8 0 0 0 8 8zm80-112c8.836 0 16-7.164 16-16V64h8a8 8 0 0 1 8 8v32a8 8 0 0 0 8 8h40a7.997 7.997 0 0 1 8.04 7.2L296 200a8 8 0 0 1-8 8h-96v-72c0-13.254 10.746-24 24-24zm-72 8h32v88h-32zm0 0"></path>
  </symbol>
  <symbol viewBox="0 0 512.668 512.668" xmlns="http://www.w3.org/2000/svg" id="owl">
    <path d="M172.234 251.152c26.395 0 47.869-21.474 47.869-47.869s-21.474-47.869-47.869-47.869-47.869 21.474-47.869 47.869 21.474 47.869 47.869 47.869zm12.519-76.005c5.965 0 10.818 4.853 10.818 10.818s-4.853 10.818-10.818 10.818-10.818-4.853-10.818-10.818 4.853-10.818 10.818-10.818zm-21.485-3.48a25.665 25.665 0 0 0-4.333 14.298c0 14.236 11.582 25.818 25.818 25.818 8.239 0 15.584-3.884 20.314-9.912.02.469.036.939.036 1.412 0 18.124-14.745 32.869-32.869 32.869s-32.869-14.745-32.869-32.869c0-15.015 10.125-27.702 23.903-31.616zm177.705-16.253c-26.395 0-47.869 21.474-47.869 47.869s21.474 47.869 47.869 47.869 47.869-21.474 47.869-47.869-21.474-47.869-47.869-47.869zm-1.701 30.551c0 5.965-4.853 10.818-10.818 10.818s-10.818-4.853-10.818-10.818 4.853-10.818 10.818-10.818 10.818 4.853 10.818 10.818zm1.701 50.187c-18.124 0-32.869-14.745-32.869-32.869 0-.474.016-.943.036-1.412 4.73 6.028 12.075 9.912 20.314 9.912 14.236 0 25.818-11.582 25.818-25.818a25.67 25.67 0 0 0-4.333-14.298c13.778 3.913 23.903 16.6 23.903 31.616 0 18.124-14.745 32.869-32.869 32.869z"></path>
    <path d="M488.671 442.89H359.1l10.218-11.073a167.527 167.527 0 0 0 31.401-178.662c11.304-13.52 18.123-30.912 18.123-49.872 0-26.045-12.866-49.126-32.561-63.271a47.151 47.151 0 0 0-.986-34.08l3.504-5.249c12.521-18.755 19.139-40.588 19.139-63.139V19.197c0-4.587-2.794-8.541-7.119-10.071-4.323-1.53-8.983-.214-11.869 3.352L363.482 43.96a18.263 18.263 0 0 1-14.26 6.806h-27.931a18.305 18.305 0 0 1-12.308-4.743C294.601 33.007 276 25.839 256.604 25.839s-37.998 7.168-52.379 20.183a18.31 18.31 0 0 1-12.309 4.743h-12.477c-15.384 0-29.757-6.86-39.434-18.821l-15.749-19.467c-2.885-3.566-7.543-4.882-11.868-3.352s-7.119 5.483-7.119 10.071v18.348c0 22.551 6.618 44.384 19.139 63.139l4.126 6.18a47.148 47.148 0 0 0-.797 32.572c-20.154 14.088-33.372 37.447-33.372 63.848 0 19.33 7.096 37.024 18.799 50.652a167.526 167.526 0 0 0 31.725 177.882l10.218 11.073h-15.228a7.5 7.5 0 0 0 0 15h22.854v6.93a7.5 7.5 0 0 0 15 0v-6.93h15.771v6.93a7.5 7.5 0 0 0 15 0v-6.93h15.771v6.93a7.5 7.5 0 0 0 15 0v-6.93h35.653v6.93a7.5 7.5 0 0 0 15 0v-6.93h15.771v6.93a7.5 7.5 0 0 0 15 0v-6.93h15.771v6.93a7.5 7.5 0 0 0 15 0v-6.93h79.942v31.282H73.792V457.89h34.125a7.5 7.5 0 0 0 0-15h-58.55a7.5 7.5 0 0 0-3.431.831L5.491 464.53C2.104 466.273 0 469.722 0 473.531s2.104 7.258 5.492 9.002l40.444 20.808a7.504 7.504 0 0 0 3.431.831h439.304c13.232 0 23.998-10.765 23.998-23.998v-13.287c-.001-13.232-10.766-23.997-23.998-23.997zm-130.377-21.245l-12.233 13.257a36.606 36.606 0 0 0-18.681-18.098l2.849-4.35c14.332-21.883 23.336-47.209 26.041-73.24a7.5 7.5 0 0 0-6.685-8.235 7.498 7.498 0 0 0-8.235 6.685c-2.458 23.661-10.643 46.682-23.669 66.572l-6.341 9.682c-16.763.795-30.592 12.982-33.896 28.973h-40.681c-3.304-15.991-17.133-28.178-33.896-28.973l-6.341-9.681c-24.033-36.696-30.724-81.356-18.666-123.31 17.369-1.248 33.171-8.21 45.542-19.022.538 18.814 8.984 36.856 23.341 49.27a15.083 15.083 0 0 0 9.883 3.695 15.09 15.09 0 0 0 9.656-3.5l.089-.074c14.618-12.131 23.377-29.864 24.33-48.612 12.478 10.577 28.311 17.302 45.661 18.32a150.19 150.19 0 0 1 5.027 26.222 7.5 7.5 0 1 0 14.925-1.499 165.398 165.398 0 0 0-4.566-25.338c13.954-1.941 26.728-7.592 37.307-15.924a152.524 152.524 0 0 1-30.761 157.18zm-82.64-166.164c1.229 16.9-5.822 33.45-18.863 44.273l-.089.074a.112.112 0 0 1-.146-.002c-12.501-10.809-19.249-27.102-18.05-43.584l.387-5.32a49.43 49.43 0 0 1 36.43 0zm128.188-52.198c0 34.666-28.203 62.869-62.869 62.869s-62.869-28.203-62.869-62.869 28.203-62.869 62.869-62.869 62.869 28.203 62.869 62.869zM120.27 37.544v-6.146l8.074 9.98c12.538 15.498 31.162 24.386 51.096 24.386h12.477c8.285 0 16.23-3.062 22.374-8.621 11.618-10.515 26.646-16.305 42.314-16.305s30.696 5.791 42.314 16.305a33.283 33.283 0 0 0 22.373 8.621h27.931c10.113 0 19.562-4.509 25.922-12.372l17.793-21.996v6.146c0 19.576-5.745 38.529-16.614 54.81l-4.198 6.288h-73.077c-17.092 0-32.762 8.307-42.445 21.667-9.683-13.36-25.353-21.667-42.445-21.667h-73.077l-4.198-6.288c-10.869-16.278-16.614-35.231-16.614-54.808zm51.964 102.87a62.403 62.403 0 0 1 25.22 5.279 7.5 7.5 0 0 0 6.026-13.736c-9.898-4.341-20.41-6.542-31.246-6.542a77.397 77.397 0 0 0-31.098 6.499 32.12 32.12 0 0 1 .867-18.271h72.156c15.942 0 30.151 10.124 35.356 25.192a7.5 7.5 0 0 0 14.178 0c5.205-15.068 19.414-25.192 35.356-25.192h73.156a32.117 32.117 0 0 1 .761 18.675 77.38 77.38 0 0 0-31.992-6.904c-42.937 0-77.869 34.932-77.869 77.869a77.44 77.44 0 0 0 6.156 30.341 64.39 64.39 0 0 0-25.407.208 77.416 77.416 0 0 0 6.25-30.549c0-18.082-6.34-35.701-17.852-49.613a7.501 7.501 0 0 0-11.557 9.563c9.292 11.228 14.408 25.452 14.408 40.05 0 34.666-28.203 62.869-62.869 62.869s-62.869-28.203-62.869-62.869 28.203-62.869 62.869-62.869zm-47.315 124.655c10.669 8.19 23.507 13.672 37.493 15.442-11.834 45.066-4.165 92.654 21.567 131.944l2.849 4.349a36.606 36.606 0 0 0-18.681 18.098l-12.233-13.257a152.53 152.53 0 0 1-30.995-156.576zm56.124 177.821c3.011-8.172 10.876-14.017 20.081-14.017s17.07 5.845 20.081 14.017zm111.958 0c3.011-8.172 10.876-14.017 20.081-14.017s17.07 5.845 20.081 14.017zM20.783 473.531l30.4-15.641h7.608v31.282h-7.608zm476.885 6.643c0 4.961-4.036 8.998-8.998 8.998h-42.256V457.89h42.256c4.961 0 8.998 4.036 8.998 8.998z"></path>
    <path d="M272.084 353.619a7.5 7.5 0 0 0-10.605.187 6.083 6.083 0 0 1-4.409 1.874h-.004a6.085 6.085 0 0 1-4.378-1.837 7.49 7.49 0 0 0-10.535-.31c-3.032 2.822-3.194 7.575-.372 10.607l.101.106c4.018 4.149 9.409 6.434 15.184 6.434h.015c5.781-.004 11.175-2.296 15.19-6.456a7.5 7.5 0 0 0-.187-10.605zm-48.194-21.342a7.5 7.5 0 0 0-10.605.187 6.08 6.08 0 0 1-4.409 1.874h-.004a6.076 6.076 0 0 1-4.397-1.857l-.013-.014-10.774 10.436c4.017 4.15 9.409 6.435 15.184 6.435h.015c5.781-.004 11.176-2.297 15.191-6.456a7.5 7.5 0 0 0-.188-10.605zm85.853.194a6.082 6.082 0 0 1-4.407 1.868h-.004a6.083 6.083 0 0 1-4.409-1.874 7.5 7.5 0 0 0-10.792 10.418c4.015 4.159 9.41 6.452 15.191 6.456h.015c5.774 0 11.167-2.285 15.194-6.445l.013-.014c2.873-2.979 2.783-7.717-.194-10.593-2.978-2.876-7.728-2.791-10.607.184zm-75.315 54.365a6.08 6.08 0 0 1-4.409 1.874h-.004a6.08 6.08 0 0 1-4.377-1.837 7.49 7.49 0 0 0-10.535-.31c-3.032 2.822-3.194 7.575-.372 10.607.033.035.066.071.101.105 4.017 4.15 9.408 6.435 15.184 6.435h.015c5.781-.004 11.176-2.297 15.191-6.456 2.877-2.98 2.793-7.728-.187-10.605s-7.73-2.793-10.607.187zm54.162.016a6.08 6.08 0 0 1-4.398 1.858h-.004a6.083 6.083 0 0 1-4.409-1.874 7.5 7.5 0 1 0-10.792 10.418c4.015 4.159 9.41 6.452 15.191 6.456h.015c5.775 0 11.167-2.285 15.184-6.435l.101-.105.013-.014a7.493 7.493 0 0 0-.385-10.593c-3-2.793-7.683-2.65-10.516.289z"></path>
  </symbol>
  <symbol xmlns="http://www.w3.org/2000/svg" viewBox="0 0 480 480" id="pants">
    <path d="M352 0H128a8 8 0 0 0-8 8v464a8 8 0 0 0 8 8h88a8.001 8.001 0 0 0 8-7.384l16-208.312 16 208.312a8.001 8.001 0 0 0 8 7.384h88a8 8 0 0 0 8-8V8a8 8 0 0 0-8-8zM248 16h16v16h-16V16zm0 32h16v40a8 8 0 0 1-8 8h-8V48zM136 16h96v16h-96V16zm0 32h31.2A40.127 40.127 0 0 1 136 79.2V48zm208 416h-72.592L248 159.384a8 8 0 0 0-15.952 0L208.592 464H136V95.36c24.528-3.566 43.794-22.832 47.36-47.36H232v56a8 8 0 0 0 8 8h16c13.255 0 24-10.745 24-24V48h16.64c3.566 24.528 22.832 43.794 47.36 47.36V464zm0-384.8A40.127 40.127 0 0 1 312.8 48H344v31.2zm0-47.2h-64V16h64v16z"></path>
  </symbol>
  <symbol xmlns="http://www.w3.org/2000/svg" viewBox="0 0 512 512" id="right-arrow">
    <path d="M499.305 225.353L372.468 98.515c-8.186-8.185-19.069-12.693-30.646-12.693-11.577 0-22.462 4.508-30.646 12.693-8.179 8.177-12.683 19.06-12.683 30.647s4.504 22.47 12.682 30.647l52.851 52.851H43.339C19.443 212.659 0 232.102 0 255.999s19.443 43.341 43.339 43.341h320.687l-52.851 52.851c-16.896 16.897-16.897 44.393 0 61.293 8.187 8.186 19.07 12.694 30.647 12.694 11.575 0 22.459-4.508 30.645-12.694l126.836-126.836C507.491 278.463 512 267.58 512 255.999s-4.509-22.464-12.695-30.646zm-14.426 46.869L358.042 399.061c-4.334 4.334-10.093 6.72-16.221 6.72s-11.889-2.387-16.222-6.719c-8.945-8.947-8.945-23.501 0-32.446l70.263-70.263a10.2 10.2 0 0 0-7.212-17.411H43.339c-12.649 0-22.941-10.291-22.941-22.942s10.292-22.943 22.941-22.943h345.312a10.198 10.198 0 0 0 7.212-17.411l-70.264-70.263c-4.324-4.324-6.706-10.086-6.706-16.222 0-6.136 2.382-11.897 6.706-16.222h.001a22.789 22.789 0 0 1 16.222-6.719 22.795 22.795 0 0 1 16.222 6.719L484.881 239.78a22.785 22.785 0 0 1 6.719 16.221 22.776 22.776 0 0 1-6.721 16.221z"></path>
    <path d="M403.972 172.762l-2.023-2.023c-3.985-3.982-10.441-3.982-14.425 0-3.983 3.984-3.983 10.442 0 14.425l2.023 2.023a10.169 10.169 0 0 0 7.212 2.987c2.61 0 5.22-.995 7.213-2.987 3.983-3.984 3.983-10.442 0-14.425zm73.022 73.022l-53.276-53.275c-3.985-3.982-10.441-3.982-14.425 0-3.983 3.984-3.983 10.442 0 14.425l53.276 53.275a10.169 10.169 0 0 0 7.212 2.987c2.611 0 5.221-.995 7.213-2.987 3.983-3.984 3.983-10.442 0-14.425z"></path>
  </symbol>
  <symbol xmlns="http://www.w3.org/2000/svg" viewBox="0 0 64 64" id="virtual-glasses">
    <path d="M44.565 37.144L37 34.307v-1.5a10.9 10.9 0 0 0 5.715-7.374l2.464-.448A1 1 0 0 0 46 24v-8a1 1 0 0 0-1-1h-.586l.293-.293A1 1 0 0 0 45 14V9a7.009 7.009 0 0 0-7-7H16a1 1 0 0 0-.832 1.555l3.607 5.411L16.2 12.4a1 1 0 0 0 .285 1.457l2.083 1.25A.994.994 0 0 0 18 16v8a1 1 0 0 0 .821.983l2.459.447a10.852 10.852 0 0 0 2.943 5.347A11.031 11.031 0 0 0 27 32.794v1.513l-7.564 2.837A13.058 13.058 0 0 0 11 49.316V61a1 1 0 0 0 1 1h40a1 1 0 0 0 1-1V49.316a13.059 13.059 0 0 0-8.435-12.172zM44 17v3h-3.586l-1.707-1.707A1 1 0 0 0 38 18H26a1 1 0 0 0-.707.293L23.586 20H20v-3zm-10.2-2c.189-.133.379-.265.56-.41l1.3-1.036.341.682a5.034 5.034 0 0 0 .483.764zm-13-5.4a1 1 0 0 0 .032-1.155L17.868 4H38a5.006 5.006 0 0 1 5 5v4.586L41.586 15h-1.114a2.986 2.986 0 0 1-2.683-1.658l-.889-1.789a1 1 0 0 0-.68-.53A1.048 1.048 0 0 0 36 11a1 1 0 0 0-.625.219l-2.261 1.808A9.024 9.024 0 0 1 27.492 15h-5.215l-3.812-2.287zM20 22h4a1 1 0 0 0 .707-.293L26.414 20h11.172l1.707 1.707A1 1 0 0 0 40 22h4v1.165l-9.663 1.758-1.63-1.63a1 1 0 0 0-1.414 0l-1.63 1.63L20 23.165zm3.458 3.826l6.363 1.157a.986.986 0 0 0 .886-.276L32 25.414l1.293 1.293A1 1 0 0 0 34 27a.9.9 0 0 0 .179-.017l6.353-1.155A9.065 9.065 0 0 1 32 32a9 9 0 0 1-8.542-6.174zM32 34a11.127 11.127 0 0 0 3-.411V35a3 3 0 0 1-6 0v-1.421A11.04 11.04 0 0 0 32 34zm19 26h-6V47h-2v13H21V47h-2v13h-6V49.316a11.048 11.048 0 0 1 7.138-10.3l7.075-2.653a4.969 4.969 0 0 0 9.574 0l7.076 2.654A11.049 11.049 0 0 1 51 49.316z"></path>
    <path d="M29 28h6v2h-6z"></path>
  </symbol>
</svg>