<svg width="0" height="0" class="hidden">
  <symbol viewBox="0 0 512 512" xmlns="http://www.w3.org/2000/svg" id="football">
    <path d="M317.93 48.892a7.503 7.503 0 0 0-10.593.553 7.502 7.502 0 0 0 .554 10.592 175.154 175.154 0 0 1 18.023 18.867l-21.747 66.92-43.861 16.032L198 116.589V68.483l56.844-41.288a174.205 174.205 0 0 1 28.575 14.387 7.5 7.5 0 0 0 7.953-12.718C261.18 9.981 226.299 0 190.5 0c-33.135 0-65.759 8.63-94.344 24.958-27.684 15.813-51.171 38.532-67.92 65.703a7.5 7.5 0 0 0 12.77 7.872 175.3 175.3 0 0 1 3.109-4.855l17.897 55.072-46.839 34.02c.845-19.584 4.899-38.671 12.094-56.841a7.5 7.5 0 0 0-13.945-5.523C4.481 142.725 0 166.308 0 190.5 0 295.542 85.458 381 190.5 381S381 295.542 381 190.5c0-53.894-22.988-105.508-63.07-141.608zm20.525 235.905l-70.426-.186-26.767-35.083 23.87-73.465 43.861-16.032 56.67 41.16c-1.848 30.633-11.582 59.174-27.208 83.606zm-1.589-191.062c17.396 26.344 27.532 57.112 28.948 89.026l-46.826-34.011zm-109.4 149.715h-73.932l-22.847-70.314L190.5 129.68l59.812 43.456zm9.891-222.093L190.5 55.392l-46.846-34.027A176.15 176.15 0 0 1 190.5 15c15.951 0 31.698 2.17 46.857 6.357zM55.085 78.901c13.543-16.41 30.001-30.346 48.51-40.919a173.466 173.466 0 0 1 22.567-10.783L183 68.483v48.106l-62.305 45.268-43.861-16.032zm16.92 81.129l43.861 16.032 23.87 73.465-26.915 35.278H42.55c-15.629-24.434-25.364-52.978-27.215-83.615zM53.301 299.805h57.783l17.892 55.055c-29.957-11.25-56.044-30.465-75.675-55.055zm196.01 56.047l4.563-14.04a7.5 7.5 0 0 0-14.265-4.636l-7.765 23.892A175.307 175.307 0 0 1 190.5 366a175.215 175.215 0 0 1-43.942-5.571l-21.677-66.701 26.915-35.278h77.407l25.239 33.08-4.911 15.112a7.501 7.501 0 0 0 7.134 9.82 7.504 7.504 0 0 0 7.131-5.184l3.792-11.669 60.14.159c-20.224 25.348-47.308 44.986-78.417 56.084zm-104.55 32.178a7.5 7.5 0 0 0-10.607 10.606l66.903 66.903c1.465 1.464 3.385 2.197 5.304 2.197s3.839-.732 5.304-2.197a7.5 7.5 0 0 0 0-10.606zm102.897 1.299a7.5 7.5 0 0 0-10.607 10.606l65.006 65.005c1.465 1.464 3.385 2.197 5.304 2.197s3.839-.732 5.304-2.197a7.5 7.5 0 0 0 0-10.606zm228.828-58.534a7.5 7.5 0 0 0 5.304-12.803l-65.006-65.006a7.5 7.5 0 0 0-10.607 10.606l65.006 65.006a7.474 7.474 0 0 0 5.303 2.197zm3.661-97.022a7.476 7.476 0 0 0 5.304 2.197 7.5 7.5 0 0 0 5.304-12.803l-82.935-82.936a7.5 7.5 0 0 0-10.607 0 7.5 7.5 0 0 0 0 10.606zm-5.765 177.808a7.476 7.476 0 0 0 5.304 2.197 7.5 7.5 0 0 0 5.304-12.803l-39.642-39.642a7.5 7.5 0 0 0-10.607 0 7.5 7.5 0 0 0 0 10.606zm-126.508 3.294a7.5 7.5 0 0 0-10.607 10.606l39.643 39.643c1.465 1.464 3.385 2.197 5.304 2.197s3.839-.732 5.304-2.197a7.5 7.5 0 0 0 0-10.606zm161.929 84.322l-154.73-154.731a7.5 7.5 0 0 0-10.607 10.606l154.73 154.731A7.48 7.48 0 0 0 504.5 512a7.5 7.5 0 0 0 5.303-12.803z"></path>
  </symbol>
</svg>