<svg width="0" height="0" class="hidden">
  <symbol xmlns="http://www.w3.org/2000/svg" viewBox="0 0 128 128" id="jack-o-lantern">
    <title>HALLOWEEN PUMPKIN</title>
    <path d="M75.62 71.25H89.3a1.75 1.75 0 0 0 1.516-2.625L83.974 56.78a1.75 1.75 0 0 0-3.031 0L74.1 68.625a1.75 1.75 0 0 0 1.52 2.625zm6.838-10.095l3.807 6.595h-7.614zM38.7 71.25h13.68a1.75 1.75 0 0 0 1.52-2.625L47.057 56.78a1.75 1.75 0 0 0-3.031 0l-6.839 11.845A1.75 1.75 0 0 0 38.7 71.25zm6.838-10.095l3.807 6.595h-7.611zM58.31 77.8a1.749 1.749 0 0 0 2.456-.309L64 73.323l3.234 4.165A1.75 1.75 0 0 0 70 75.342L65.382 69.4a1.813 1.813 0 0 0-2.765 0L58 75.342a1.749 1.749 0 0 0 .31 2.458z"></path>
    <path d="M91.259 77.15a124.005 124.005 0 0 1-11.966 3.58 1.749 1.749 0 0 0-1.333 1.7v4.4h-6.5v-2.51a1.753 1.753 0 0 0-.589-1.31 1.735 1.735 0 0 0-1.37-.428 35.628 35.628 0 0 1-5.442.288h-.118a35.753 35.753 0 0 1-5.442-.288 1.749 1.749 0 0 0-1.959 1.738v2.51h-6.5v-4.4a1.749 1.749 0 0 0-1.333-1.7 123.452 123.452 0 0 1-11.98-3.582 1.75 1.75 0 0 0-2.257 2.224c4.491 12.729 12.659 20.051 24.275 21.76a1.75 1.75 0 0 0 2-1.731v-2.09h6.5V99.4A1.75 1.75 0 0 0 69 101.15a1.726 1.726 0 0 0 .255-.019c8-1.177 18.7-5.907 24.267-21.762a1.75 1.75 0 0 0-2.263-2.22zM70.75 97.3v-1.739a1.75 1.75 0 0 0-1.75-1.75H59a1.75 1.75 0 0 0-1.75 1.75V97.3c-8.135-1.8-14.206-7.048-18.1-15.638 1.924.615 4.487 1.386 7.386 2.131v4.787a1.75 1.75 0 0 0 1.75 1.75h10a1.75 1.75 0 0 0 1.75-1.75v-2.325a35.377 35.377 0 0 0 3.96.116 35.847 35.847 0 0 0 3.96-.116v2.325a1.75 1.75 0 0 0 1.75 1.75h10a1.75 1.75 0 0 0 1.75-1.75v-4.786a137.299 137.299 0 0 0 7.381-2.13C84.965 90.253 78.9 95.5 70.75 97.3z"></path>
    <path d="M105.789 38.822c-3.434-1.749-6.626-2.372-8.836-1.818-4.886-5.694-10.312-8.815-15.139-8.635a9.628 9.628 0 0 0-5.108 1.678c-2.992-9.713-12.314-25.287-22.55-25.61a1.7 1.7 0 0 0-1.58.89l-3.663 6.5a1.75 1.75 0 0 0 1.105 2.559c3.934.97 8.382 2.078 6.015 17.644-.335.158-.667.321-.986.5a10.674 10.674 0 0 0-8.039-3.946c-5.276-.21-11.1 2.913-15.943 8.424-2.211-.562-5.411.058-8.854 1.813C18.115 40.91 4.75 49.438 4.75 71.5c0 15.371 4.653 28.424 12.766 35.812a20.724 20.724 0 0 0 13.831 5.843c.25 0 .5-.024.749-.035a20.508 20.508 0 0 0 10.704 5.118 1.688 1.688 0 0 0 .983-.181C50.7 123.243 59.671 123.25 64 123.25c4.266 0 13.042-.009 19.914-4.973.358.025.719.061 1.07.061 4.59 0 8.606-2.091 11.949-5.2a20.808 20.808 0 0 0 13.551-5.828c8.116-7.386 12.766-20.439 12.766-35.81 0-22.062-13.365-30.59-17.461-32.678zm-52.744-27.2l2.021-3.586c8.4 1.416 16.874 16.605 18.784 24.832l-.1.144A17.58 17.58 0 0 0 64 30.375a20.862 20.862 0 0 0-4.26.431c1.76-13.715-1.863-17.487-6.695-19.181zm55.083 93.1a19.072 19.072 0 0 1-7.584 4.363 42.4 42.4 0 0 0 6.645-13.623 1.75 1.75 0 1 0-3.375-.928 37.476 37.476 0 0 1-8.3 15.064h-.1a1.717 1.717 0 0 0-1.9 1.856 15.074 15.074 0 0 1-5.559 2.97 24.585 24.585 0 0 0 4.639-10.24 1.75 1.75 0 0 0-3.42-.746c-1.2 5.5-3.608 9.181-6.719 11.628a1.715 1.715 0 0 0-.165.126c-5 3.831-11.763 4.56-18.286 4.56-10.687 0-22.035-1.938-25.17-16.313a1.75 1.75 0 0 0-3.42.746 25.026 25.026 0 0 0 4.123 9.556 20.68 20.68 0 0 1-5.4-3.47 1.735 1.735 0 0 0-.406-.376 34.159 34.159 0 0 1-9.539-15.356 1.75 1.75 0 0 0-3.375.928 37.562 37.562 0 0 0 7.478 13.825 18.647 18.647 0 0 1-8.418-4.565C12.486 98 8.25 85.889 8.25 71.5c0-20.073 11.9-27.7 15.55-29.559a14.749 14.749 0 0 1 4.651-1.582c-4.845 7.035-8.019 16.936-8.975 28.1a1.749 1.749 0 0 0 1.594 1.893c.051 0 .1.007.151.007a1.75 1.75 0 0 0 1.742-1.6c.942-11.01 4.279-21.035 9.155-27.508 4.388-5.831 10.059-9.3 14.758-9.165a7.2 7.2 0 0 1 5.342 2.533 18.483 18.483 0 0 0-5.178 9.758 1.75 1.75 0 1 0 3.418.752C52.1 37.66 56.657 33.875 64 33.875s11.9 3.785 13.541 11.251a1.75 1.75 0 0 0 1.708 1.374 1.725 1.725 0 0 0 .377-.041 1.749 1.749 0 0 0 1.333-2.085 18.961 18.961 0 0 0-4.525-9.107 6.79 6.79 0 0 1 5.511-3.4c4.164-.2 9.4 3.349 13.937 9.381 4.875 6.472 8.212 16.5 9.154 27.507a1.75 1.75 0 0 0 1.742 1.6c.05 0 .1 0 .151-.007a1.749 1.749 0 0 0 1.594-1.893c-.955-11.161-4.129-21.062-8.974-28.1a14.754 14.754 0 0 1 4.65 1.581c3.648 1.859 15.55 9.485 15.55 29.559.001 14.394-4.235 26.505-11.622 33.229z"></path>
  </symbol>
</svg>