<svg id="Flat" height="512" viewBox="0 0 512 512" width="512" xmlns="http://www.w3.org/2000/svg"><path d="m264 88h32v32h-32z" fill="#603913" transform="matrix(0 1 -1 0 384 -176)"/><path d="m256 144h128v96h-128z" fill="#603913"/><path d="m160 192h16v48h-16z" fill="#4e2b08"/><path d="m88 232h336a32 32 0 0 1 32 32v176a0 0 0 0 1 0 0h-400a0 0 0 0 1 0 0v-176a32 32 0 0 1 32-32z" fill="#73402c"/><path d="m456 264v80c-40.01 0-39.99-48-80-48s-39.99 48-80 48c-39.99 0-40.01-48-80-48s-40 48-80 48-40.01-48-80-48v-32a32 32 0 0 1 32-32h336a32 32 0 0 1 32 32z" fill="#c9e9f2"/><path d="m488 472h-464a32 32 0 0 1 32-32h400a32 32 0 0 1 32 32z" fill="#d8ccbd"/><path d="m216 200-32-48h32l-32-48h24l-40-64-40 64h24l-32 48h32l-32 48z" fill="#326859"/><path d="m376 120h-112l-16 32h144z" fill="#906356"/><path d="m304 184h32v48h-32z" fill="#dc2027"/><path d="m256 80h48v16h-48z" fill="#906356"/><g fill="#f7cc38"><path d="m272 184h16v16h-16z"/><path d="m352 184h16v16h-16z"/></g></svg>