<svg id="Filled_stroke_cut_Ex" height="512" viewBox="0 0 512 512" width="512" xmlns="http://www.w3.org/2000/svg" data-name="Filled stroke cut Ex"><ellipse cx="136.056" cy="385.686" fill="#63c521" rx="40" ry="73.768" transform="matrix(.931 -.364 .364 .931 -130.996 75.931)"/><ellipse cx="375.944" cy="385.686" fill="#63c521" rx="73.768" ry="40" transform="matrix(.364 -.931 .931 .364 -120.086 595.546)"/><path d="m160 256v208c0 13.255 42.981 24 96 24s96-10.745 96-24v-208z" fill="#fdc069"/><ellipse cx="256" cy="256" fill="#fff7ed" rx="96" ry="24"/><g><ellipse cx="97.211" cy="412.357" fill="#9fdc6e" rx="40" ry="73.768" transform="matrix(.645 -.764 .764 .645 -280.548 220.559)"/><circle cx="328" cy="456" fill="#d63924" r="32"/><g><ellipse cx="414.789" cy="412.357" fill="#9fdc6e" rx="73.768" ry="40" transform="matrix(.764 -.645 .645 .764 -168.17 364.957)"/><circle cx="408" cy="456" fill="#d63924" r="32"/></g><circle cx="368" cy="424" fill="#f15a57" r="40"/></g><g><circle cx="184" cy="456" fill="#d63924" r="32"/><circle cx="104" cy="456" fill="#d63924" r="32"/><circle cx="144" cy="424" fill="#f15a57" r="40"/></g><circle cx="256" cy="128" fill="#fff7ed" r="104"/><path d="m161.129 113.221-15.812-2.442a112.027 112.027 0 0 1 210.062-34.479l-14.189 7.4a96.026 96.026 0 0 0 -180.061 29.523z"/><ellipse cx="256" cy="167.995" fill="#fdc069" rx="32" ry="64.005"/><path d="m272 408a24.028 24.028 0 0 1 -24-24v-40a8 8 0 0 0 -16 0v16a24 24 0 0 1 -48 0v-56h16v56a8 8 0 0 0 16 0v-16a24 24 0 0 1 48 0v40a8 8 0 0 0 16 0v-72h16v72a24.028 24.028 0 0 1 -24 24z"/><path d="m152 216-25.858 14.142-14.142 25.858-14.142-25.858-25.858-14.142 25.858-14.142 14.142-25.858 14.142 25.858z" fill="#fdc069"/><path d="m112 264a8 8 0 0 1 -7.019-4.161l-13.018-23.8-23.8-13.018a8 8 0 0 1 0-14.038l23.8-13.018 13.018-23.8a8 8 0 0 1 14.038 0l13.018 23.8 23.8 13.018a8 8 0 0 1 0 14.038l-23.8 13.018-13.018 23.8a8 8 0 0 1 -7.019 4.161zm-23.328-48 13.025 7.123a8 8 0 0 1 3.18 3.18l7.123 13.025 7.123-13.025a8 8 0 0 1 3.18-3.18l13.025-7.123-13.028-7.123a8 8 0 0 1 -3.18-3.18l-7.12-13.025-7.123 13.028a8 8 0 0 1 -3.18 3.18z"/><path d="m416 120-25.858 14.142-14.142 25.858-14.142-25.858-25.858-14.142 25.858-14.142 14.142-25.858 14.142 25.858z" fill="#fdc069"/><path d="m376 168a8 8 0 0 1 -7.019-4.161l-13.018-23.8-23.8-13.018a8 8 0 0 1 0-14.038l23.8-13.018 13.018-23.8a8 8 0 0 1 14.038 0l13.018 23.8 23.8 13.018a8 8 0 0 1 0 14.038l-23.8 13.018-13.018 23.8a8 8 0 0 1 -7.019 4.161zm-23.328-48 13.025 7.123a8 8 0 0 1 3.18 3.18l7.123 13.025 7.123-13.025a8 8 0 0 1 3.18-3.18l13.025-7.123-13.028-7.123a8 8 0 0 1 -3.18-3.18l-7.12-13.025-7.123 13.028a8 8 0 0 1 -3.18 3.18z"/><path d="m476.092 402.2a95.864 95.864 0 0 0 2.993-38.43 8 8 0 0 0 -5.638-6.676 96.09 96.09 0 0 0 -47.111-2.122 95.979 95.979 0 0 0 -17.045-42.655 8 8 0 0 0 -8.14-3.179 96.508 96.508 0 0 0 -41.151 19.588v-72.726c0-10.893-11.18-18.982-34.177-24.732-5.658-1.414-11.866-2.637-18.5-3.655a111.823 111.823 0 0 0 52.059-56.459l-14.763-6.169a95.785 95.785 0 0 1 -66.67 56.5 88.115 88.115 0 0 0 -17.144-123.892 8 8 0 0 0 -9.61 0 88.115 88.115 0 0 0 -17.157 123.872 96.169 96.169 0 0 1 -74.038-93.465h-16a112.117 112.117 0 0 0 60.8 99.6c-6.679 1.021-12.928 2.25-18.62 3.673-23 5.745-34.18 13.834-34.18 24.727v72.726a96.514 96.514 0 0 0 -41.151-19.585 8 8 0 0 0 -8.14 3.179 95.968 95.968 0 0 0 -17.045 42.655 96.077 96.077 0 0 0 -47.111 2.125 8 8 0 0 0 -5.638 6.676 95.755 95.755 0 0 0 31.926 84.05 40.207 40.207 0 0 0 .42 18.171l15.5-3.988a24.037 24.037 0 0 1 16.106-28.922 48.171 48.171 0 0 0 27.945 34.913 24.028 24.028 0 0 1 -36.685 6l-10.587 12a40.023 40.023 0 0 0 63.191-14.11q1.62.109 3.269.111t3.285-.112a40.174 40.174 0 0 0 36.715 24.111 39.766 39.766 0 0 0 17.638-4.1 338.319 338.319 0 0 0 54.362 4.1 338.287 338.287 0 0 0 54.363-4.1 39.759 39.759 0 0 0 17.637 4.1 40.174 40.174 0 0 0 36.715-24.112q1.629.112 3.285.112t3.294-.113a40 40 0 0 0 75.865-24.063 95.359 95.359 0 0 0 22.02-28.163l-14.226-7.322a79.223 79.223 0 0 1 -14.688 20.044 40.067 40.067 0 0 0 -24.82-15.688 48.038 48.038 0 0 0 -18.557-31 79.756 79.756 0 0 1 66.8-14.634 79.919 79.919 0 0 1 -2.98 26.741zm-220.092-287.882a72.091 72.091 0 0 1 8 98.993v-29.311h-16v29.311a72.091 72.091 0 0 1 8-98.993zm-62.212 131.591c15.067-3.367 34.074-5.4 54.212-5.824v15.915h16v-15.915c20.138.426 39.145 2.457 54.212 5.824 18.4 4.111 23.97 8.542 25.428 10.091-1.458 1.549-7.032 5.98-25.428 10.091-17.049 3.809-39.144 5.909-62.212 5.909s-45.163-2.1-62.212-5.909c-18.4-4.111-23.97-8.542-25.428-10.091 1.458-1.549 7.032-5.98 25.428-10.091zm-81.022 80.156a80.309 80.309 0 0 1 39.234 24.887v25.715a48.186 48.186 0 0 0 -21.311 1.211q-1.236-1.119-2.506-2.192a96.177 96.177 0 0 0 -26.971-16.094 79.91 79.91 0 0 1 11.554-33.527zm-16.211 90.635a40.069 40.069 0 0 0 -24.819 15.686 79.748 79.748 0 0 1 -23.427-61.325 79.753 79.753 0 0 1 66.8 14.634 48.041 48.041 0 0 0 -18.554 31.005zm15.445 7.3a32 32 0 1 1 32 32 32.036 32.036 0 0 1 -32-32zm51.206 43.989a48.172 48.172 0 0 0 27.932-34.9 24 24 0 1 1 -27.932 34.9zm54.227 9.949a39.984 39.984 0 0 0 -25.988-61.238 48.111 48.111 0 0 0 -23.445-34.257v-107.829a102.943 102.943 0 0 0 18.177 6.118c18.748 4.687 43.545 7.268 69.823 7.268s51.075-2.581 69.823-7.268a102.943 102.943 0 0 0 18.177-6.118v107.829a48.111 48.111 0 0 0 -23.445 34.257 39.985 39.985 0 0 0 -25.988 61.244 361.791 361.791 0 0 1 -77.134 0zm110.567 2.062a24 24 0 0 1 -7.138-46.916 48.172 48.172 0 0 0 27.932 34.9 24.1 24.1 0 0 1 -20.794 12.016zm87.138-46.916a24 24 0 1 1 -27.923 34.9 48.173 48.173 0 0 0 27.923-34.9zm-47.138 22.916a32 32 0 1 1 32-32 32.036 32.036 0 0 1 -32 32zm0-80a48.17 48.17 0 0 0 -8 .667v-25.716a80.317 80.317 0 0 1 39.234-24.886 79.915 79.915 0 0 1 11.554 33.527 96.158 96.158 0 0 0 -26.97 16.094q-1.269 1.071-2.507 2.192a47.872 47.872 0 0 0 -13.311-1.878z"/></svg>