<svg id="Layer_3" enable-background="new 0 0 64 64" height="512" viewBox="0 0 64 64" width="512" xmlns="http://www.w3.org/2000/svg"><g><g><path d="m14 16-12 10v36h60v-36l-12-10" fill="#ec482c"/></g><g><path d="m50 16 12 10-30 20-30-20 12-10" fill="#a42a16"/></g><g><path d="m62 62-21.6-21.6 21.6-14.4" fill="#ef7e68"/></g><g><path d="m2 62 21.6-21.6-21.6-14.4" fill="#ef7e68"/></g><g><path d="m14 34 18 12 18-12v-32h-36z" fill="#c4dcfc"/></g><g><path d="m14 29.147c2.276 1.176 4.812 1.853 7.5 1.853 9.665 0 17.5-8.507 17.5-19 0-3.674-.977-7.093-2.64-10h-22.36z" fill="#fff"/></g><g><path d="m44 36-7-8h5l-7-8h5l-8-8-8 8h5l-7 8h5l-7 8z" fill="#398469"/></g><g><path d="m36.512 21.728-1.512-1.728h2.357c.268-.626.509-1.268.715-1.929l-6.072-6.071-8 8h5l-7 8h5l-2.341 2.675c5.04-.999 9.314-4.339 11.853-8.947z" fill="#60b69c"/></g><g><path d="m34 45v-9h-4v9" fill="#d1af67"/></g><g><circle cx="20" cy="12" fill="#ec482c" r="2"/></g><g><circle cx="44" cy="8" fill="#ec482c" r="2"/></g><g><circle cx="32" cy="8" fill="#d1af67" r="2"/></g><g><path d="m51 34h-2v-31h-34v31h-2v-32c0-.552.448-1 1-1h36c.552 0 1 .448 1 1z"/></g><g><path d="m44 37h-24c-.393 0-.749-.229-.911-.587s-.1-.776.158-1.071l7-8 1.505 1.317-5.548 6.341h19.593l-5.549-6.341 1.505-1.317 7 8c.258.295.32.714.158 1.071s-.518.587-.911.587z"/></g><g><path d="m42 29h-20c-.393 0-.749-.229-.911-.587-.162-.357-.1-.776.158-1.072l7-8 1.505 1.317-5.548 6.342h15.593l-5.549-6.341 1.505-1.317 7 8c.258.295.32.715.158 1.072s-.518.586-.911.586z"/></g><g><path d="m40 21h-16c-.404 0-.769-.244-.924-.617-.155-.374-.069-.804.217-1.09l8-8c.391-.391 1.023-.391 1.414 0l8 8c.286.286.372.716.217 1.09-.155.373-.52.617-.924.617zm-13.586-2h11.172l-5.586-5.586z"/></g><g><path d="m32 11c-1.654 0-3-1.346-3-3s1.346-3 3-3 3 1.346 3 3-1.346 3-3 3zm0-4c-.551 0-1 .449-1 1s.449 1 1 1 1-.449 1-1-.449-1-1-1z"/></g><g><path d="m20 15c-1.654 0-3-1.346-3-3s1.346-3 3-3 3 1.346 3 3-1.346 3-3 3zm0-4c-.551 0-1 .449-1 1s.449 1 1 1 1-.449 1-1-.449-1-1-1z"/></g><g><path d="m31 10h2v2h-2z"/></g><g><path d="m29 36h2v9h-2z"/></g><g><path d="m33 36h2v9h-2z"/></g><g><path d="m28 31h2v2h-2z"/></g><g><path d="m32 28h2v3h-2z"/></g><g><path d="m28 23h2v2h-2z"/></g><g><path d="m31 15h2v2h-2z"/></g><g><path d="m62 63h-60c-.552 0-1-.447-1-1v-36c0-.297.132-.578.36-.768l12-10 1.28 1.536-11.64 9.7v34.532h58v-34.532l-11.64-9.7 1.28-1.536 12 10c.228.19.36.471.36.768v36c0 .553-.448 1-1 1z"/></g><g><path d="m32 47c-.193 0-.387-.056-.555-.168l-30-20 1.109-1.664 29.446 19.63 29.445-19.63 1.109 1.664-30 20c-.167.112-.361.168-.554.168z"/></g><g><path d="m-2.556 50h31.113v2h-31.113z" transform="matrix(.707 -.707 .707 .707 -32.255 24.13)"/></g><g><path d="m50 35.444h2v31.113h-2z" transform="matrix(.707 -.707 .707 .707 -21.125 51)"/></g><g><path d="m19 2h2v8h-2z"/></g><g><path d="m44 11c-1.654 0-3-1.346-3-3s1.346-3 3-3 3 1.346 3 3-1.346 3-3 3zm0-4c-.551 0-1 .449-1 1s.449 1 1 1 1-.449 1-1-.449-1-1-1z"/></g><g><path d="m43 2h2v4h-2z"/></g></g></svg>