<?xml version="1.0" encoding="iso-8859-1"?>
<!-- Generator: Adobe Illustrator 19.0.0, SVG Export Plug-In . SVG Version: 6.00 Build 0)  -->
<svg version="1.1" id="Capa_1" xmlns="http://www.w3.org/2000/svg" xmlns:xlink="http://www.w3.org/1999/xlink" x="0px" y="0px"
	 viewBox="0 0 512 512" style="enable-background:new 0 0 512 512;" xml:space="preserve">
<path style="fill:#34A1D7;" d="M487.122,218.505h-31.885c-13.919,11.688-31.908,18.758-51.539,18.758
	c-19.568,0-37.501-7.026-51.402-18.646v67.688c0,2.833-2.318,5.151-5.151,5.151h-29.207c0.182-0.241-6.195,7.503-10.153,11.052
	c2.43,3.679,4.062,7.923,4.682,12.491h23.778c10.142,0,18.393,8.252,18.393,18.395v52.928h7.874c3.27,0,5.987,2.452,6.421,5.606
	h131.432c2.845,0,5.151-2.306,5.151-5.151V236.899C505.515,226.757,497.264,218.505,487.122,218.505z"/>
<path style="fill:#82E89B;" d="M479.229,265.927l-71.063,40.653c-2.459,1.408-6.483,1.408-8.942,0L349,277.848v5.248
	c0,2.833-2.318,5.151-5.151,5.151h-20.157V315h12.552c10.142,0,18.393,8.252,18.393,18.395v52.928h7.874
	c3.569,0,6.488,2.919,6.488,6.487v0.123l30.339,19.146c2.396,1.513,6.316,1.513,8.712,0l71.293-44.989
	c2.395-1.512,4.356-5.066,4.356-7.899V268.52C483.7,265.685,481.688,264.519,479.229,265.927z"/>
<path style="fill:#34A1D7;" d="M193.768,291.457h-29.209c-2.833,0-5.151-2.318-5.151-5.151v-67.801h-0.36
	C145.098,229.448,127.479,236,108.304,236c-19.172,0-36.791-6.552-50.742-17.495H24.878c-10.142,0-18.393,8.252-18.393,18.395
	v149.878c0,2.846,2.306,5.151,5.151,5.151h131.432c0.434-3.155,3.151-5.607,6.421-5.607h7.544v-52.927
	c0-10.142,8.251-18.395,18.393-18.395h23.811c0.621-4.569,2.253-8.813,4.684-12.492C200.188,299.16,196.785,295.461,193.768,291.457
	z"/>
<path style="opacity:0.1;fill:#1E004C;enable-background:new    ;" d="M34.511,386.777V236.899c0-10.143,8.251-18.395,18.393-18.395
	H24.878c-10.142,0-18.393,8.252-18.393,18.395v149.878c0,2.846,2.306,5.151,5.151,5.151h28.026
	C36.817,391.929,34.511,389.623,34.511,386.777z"/>
<path style="fill:#FFFFFF;" d="M162.738,243.874v-23.925c-0.469-1.084-0.992-2.138-1.58-3.15
	c-14.261,11.97-32.7,19.201-52.854,19.201c-20.152,0-38.592-7.232-52.854-19.203c-2.578,4.44-4.062,9.596-4.062,15.101
	c0,16.642,13.491,30.132,30.131,30.132c11.666,0,21.777-6.635,26.783-16.333c5.007,9.698,15.118,16.333,26.784,16.333
	C147.471,262.029,158.105,254.556,162.738,243.874z"/>
<g>
	<path style="fill:#CB7C52;" d="M29.31,158.152v-34.88h-7.303C9.852,123.272,0,133.051,0,145.111
		c0,12.059,9.852,21.838,22.008,21.838h7.79C29.483,164.058,29.31,161.126,29.31,158.152z"/>
	<path style="fill:#CB7C52;" d="M162.738,165.276l0.227,0.001c1.456-20.566,10.679-38.981,24.743-52.348
		c-34.208-1.466-49.461-33.252-49.461-33.252c-17.3,34.302-111.788,29.401-111.788,29.401v49.073
		c0,44.795,36.646,81.11,81.845,81.11c20.905,0,39.969-7.777,54.434-20.558V165.276z"/>
</g>
<path style="fill:#FB786E;" d="M129.421,186.851H87.186c-4.149,0-7.542,3.394-7.542,7.543v39.743
	c8.921,3.306,18.575,5.125,28.66,5.125s19.739-1.817,28.659-5.125v-39.743C136.963,190.245,133.57,186.851,129.421,186.851z"/>
<g>
	<path style="fill:#AB5436;" d="M113.56,168.436h-7.421c-5.839,0-10.59-4.751-10.59-10.591v-13.664c0-4.143,3.358-7.5,7.5-7.5
		s7.5,3.357,7.5,7.5v9.255h3.012c4.142,0,7.5,3.357,7.5,7.5C121.06,165.079,117.702,168.436,113.56,168.436z"/>
	<path style="fill:#AB5436;" d="M77.503,153.159c-1.919,0-3.838-0.732-5.303-2.196c-4.387-4.385-11.523-4.387-15.908,0
		c-2.929,2.928-7.678,2.929-10.607-0.001c-2.929-2.929-2.928-7.678,0-10.606c10.234-10.232,26.886-10.232,37.12,0
		c2.929,2.929,2.93,7.678,0.001,10.606C81.342,152.427,79.422,153.159,77.503,153.159z"/>
	<path style="fill:#AB5436;" d="M169.62,139.148c-10.299-9.002-26.007-8.602-35.819,1.207c-2.929,2.93-2.929,7.678,0,10.607
		c1.464,1.464,3.384,2.196,5.303,2.196c1.919,0,3.839-0.732,5.303-2.196c4.386-4.387,11.521-4.387,15.907,0
		c1.318,1.317,3.004,2.037,4.727,2.168C166.146,148.289,167.683,143.613,169.62,139.148z"/>
</g>
<path style="fill:#463F8E;" d="M185.002,115.629c1.641-1.715,3.359-3.355,5.146-4.919V75.702
	c-2.016-35.737-31.743-64.098-67.984-64.098H94.443c-35.909,0-65.486,27.845-67.984,63.118v37.241c0,0,94.488,4.9,111.788-29.401
	C138.247,82.562,152.697,112.664,185.002,115.629z"/>
<path style="fill:#82E89B;" d="M143,392.809c0-3.568,2.919-6.487,6.488-6.487h3.987l30.475-19.232
	c2.396-1.512,4.356-5.066,4.356-7.899v-67.733h-23.747c-2.833,0-5.151-2.318-5.151-5.151v-6.404l-46.635,26.679
	c-2.458,1.408-6.483,1.408-8.941,0L32.77,265.927c-2.458-1.407-4.471-0.241-4.471,2.593v90.671c0,2.833,1.961,6.388,4.356,7.899
	l71.291,44.989c2.396,1.513,6.316,1.513,8.712,0L143,392.931V392.809z"/>
<path style="fill:#64BF70;" d="M103.831,306.58L32.77,265.927c-2.458-1.407-4.471-0.241-4.471,2.593v90.671
	c0,2.833,1.961,6.388,4.356,7.899l71.291,44.989c1.198,0.757,2.777,1.135,4.356,1.135V307.637
	C106.682,307.637,105.061,307.284,103.831,306.58z"/>
<path style="fill:#CB7C52;" d="M47,341.191c0,3.568-2.919,6.489-6.488,6.489H6.488c-3.569,0-6.488-2.921-6.488-6.489v-35.703
	C0,301.92,2.919,299,6.488,299h34.023c3.569,0,6.488,2.92,6.488,6.488v35.703H47z"/>
<path style="fill:#FFFFFF;" d="M456.774,217.185c-14.119,12.476-32.715,20.077-53.077,20.077s-38.959-7.602-53.078-20.077
	c-0.606,1.082-1.148,2.204-1.62,3.362v22.697c4.482,11.016,15.288,18.784,27.913,18.784c11.666,0,21.776-6.635,26.784-16.333
	c5.006,9.698,15.117,16.333,26.783,16.333c16.641,0,30.131-13.49,30.131-30.132C460.611,226.553,459.214,221.537,456.774,217.185z"
	/>
<path style="fill:#FFB889;" d="M489.991,123.272h-7.302v34.88c0,2.974-0.172,5.906-0.487,8.797h7.789
	c12.158,0,22.009-9.779,22.009-21.838C512,133.051,502.149,123.272,489.991,123.272z"/>
<path style="fill:#FFD4B2;" d="M433.639,79.678c-17.3,34.302-111.788,29.401-111.788,29.401v4.95
	c15.566,13.736,25.763,33.418,27.008,55.501H349v48.946c14.497,12.918,33.668,20.786,54.698,20.786
	c45.205,0,81.844-36.315,81.844-81.11V113C449.609,113,433.639,79.678,433.639,79.678z"/>
<path style="fill:#FB786E;" d="M424.815,186.851h-42.236c-4.148,0-7.542,3.394-7.542,7.543v39.743
	c8.921,3.307,18.576,5.125,28.661,5.125c10.085,0,19.738-1.817,28.659-5.124v-39.744
	C432.356,190.245,428.963,186.851,424.815,186.851z"/>
<g>
	<path style="fill:#CB7C52;" d="M408.952,168.436h-7.421c-5.84,0-10.591-4.751-10.591-10.591v-13.664c0-4.143,3.358-7.5,7.5-7.5
		s7.5,3.357,7.5,7.5v9.255h3.012c4.142,0,7.5,3.357,7.5,7.5C416.452,165.079,413.094,168.436,408.952,168.436z"/>
	<path style="fill:#CB7C52;" d="M372.896,153.159c-1.919,0-3.839-0.732-5.303-2.196c-4.385-4.385-11.521-4.387-15.907,0
		c-2.929,2.928-7.677,2.929-10.607-0.001c-2.929-2.929-2.928-7.678,0.001-10.606c10.235-10.234,26.887-10.233,37.12,0
		c2.929,2.93,2.929,7.678,0,10.607C376.734,152.427,374.815,153.159,372.896,153.159z"/>
	<path style="fill:#CB7C52;" d="M461.011,153.159c-1.919,0-3.838-0.732-5.303-2.196c-4.385-4.387-11.522-4.387-15.908,0
		c-2.929,2.928-7.677,2.929-10.607-0.001c-2.929-2.929-2.928-7.678,0-10.606c10.234-10.232,26.886-10.232,37.121,0
		c2.929,2.929,2.929,7.678,0,10.606C464.85,152.427,462.931,153.159,461.011,153.159z"/>
</g>
<path style="fill:#FF9F3D;" d="M485.541,75.702c-2.015-35.737-31.743-64.098-67.984-64.098h-27.721
	c-35.909,0-65.487,27.845-67.984,63.118v37.241c0,0,94.487,4.9,111.788-29.401c0,0,15.97,33.322,51.902,33.322L485.541,75.702
	L485.541,75.702z"/>
<path style="fill:#64BF70;" d="M399.224,306.58l-46.928-26.847v6.572c0,2.833-2.318,5.151-5.151,5.151h-23.453V315h12.552
	c10.142,0,18.393,8.252,18.393,18.395v52.928h7.874c3.569,0,6.488,2.919,6.488,6.487v0.123l30.339,19.146
	c1.198,0.757,2.777,1.135,4.356,1.135V307.637C402.075,307.637,400.454,307.284,399.224,306.58z"/>
<path style="fill:#FFD4B2;" d="M512,341.191c0,3.568-2.919,6.489-6.488,6.489h-34.023c-3.569,0-6.488-2.921-6.488-6.489v-35.703
	c0-3.568,2.919-6.488,6.488-6.488h34.023c3.569,0,6.488,2.92,6.488,6.488V341.191z"/>
<path style="fill:#AB5436;" d="M178.418,245.591v-39.074c0.007,0,0.014,0,0.021,0c-11.496,0.132-19.03-0.257-19.03-0.257v80.046
	c0,2.833,2.318,5.151,5.151,5.151h29.209C184.127,278.662,178.418,262.787,178.418,245.591z"/>
<path style="fill:#EF5A50;" d="M339.277,311.967h-48.818c-10.374,5.331-22.136,8.363-34.607,8.363
	c-12.471,0-24.233-3.032-34.607-8.363h-48.819c-10.142,0-18.393,8.252-18.393,18.395V480.24c0,2.845,2.306,5.151,5.151,5.151H352.52
	c2.845,0,5.151-2.307,5.151-5.151V330.361C357.67,320.219,349.419,311.967,339.277,311.967z"/>
<path style="opacity:0.1;fill:#1E004C;enable-background:new    ;" d="M182.165,480.239V330.361
	c0-10.142,8.251-18.395,18.393-18.395h-28.132c-10.142,0-18.393,8.252-18.393,18.395v149.878c0,2.845,2.306,5.151,5.151,5.151
	h28.132C184.471,485.39,182.165,483.084,182.165,480.239z"/>
<path style="fill:#FFFFFF;" d="M255.852,320.33c-19.528,0-37.346-7.392-50.756-19.498c-3.861,5.065-6.158,11.386-6.158,18.246
	c0,16.643,13.49,30.132,30.131,30.132c11.666,0,21.776-6.635,26.783-16.333c5.007,9.698,15.117,16.333,26.783,16.333
	c16.642,0,30.131-13.489,30.131-30.132c0-6.86-2.297-13.182-6.158-18.246C293.198,312.938,275.38,320.33,255.852,320.33z"/>
<path style="fill:#FFD4B2;" d="M291.136,171.614c-15.089,29.919-80.001,34.526-112.718,34.902v39.074
	c0,42.381,34.671,76.739,77.434,76.739c42.769,0,77.434-34.358,77.434-76.739v-37.554
	C304.274,199.015,291.136,171.614,291.136,171.614z"/>
<path style="opacity:0.1;fill:#1E004C;enable-background:new    ;" d="M201.06,245.591v-39.962
	c-8.392,0.572-16.147,0.813-22.642,0.888v39.074c0,42.381,34.671,76.739,77.434,76.739c3.847,0,7.625-0.288,11.321-0.825
	C229.778,316.074,201.06,284.16,201.06,245.591z"/>
<path style="fill:#FB786E;" d="M275.832,272.744h-39.959c-3.925,0-7.135,3.212-7.135,7.135v37.602
	c8.441,3.129,17.574,4.85,27.115,4.85c9.542,0,18.675-1.719,27.115-4.85v-37.602C282.967,275.956,279.756,272.744,275.832,272.744z"
	/>
<g>
	<path style="fill:#CB7C52;" d="M260.825,255.727h-6.856c-5.839,0-10.59-4.751-10.59-10.591v-8.863c0-4.143,3.358-7.5,7.5-7.5
		s7.5,3.357,7.5,7.5v4.454h2.446c4.142,0,7.5,3.357,7.5,7.5C268.325,252.37,264.967,255.727,260.825,255.727z"/>
	<path style="fill:#CB7C52;" d="M201.626,241.272c-1.919,0-3.838-0.732-5.303-2.196c-2.929-2.929-2.929-7.678,0-10.606
		c4.77-4.77,11.107-7.396,17.846-7.396s13.076,2.626,17.846,7.396c2.929,2.93,2.929,7.678,0,10.607
		c-2.929,2.928-7.678,2.928-10.607,0c-1.936-1.937-4.507-3.003-7.239-3.003s-5.302,1.066-7.238,3.002
		C205.465,240.54,203.546,241.272,201.626,241.272z"/>
	<path style="fill:#CB7C52;" d="M310.078,241.272c-1.919,0-3.839-0.732-5.304-2.197c-1.936-1.936-4.507-3.002-7.238-3.002
		c-2.732,0-5.303,1.066-7.239,3.003c-2.929,2.928-7.678,2.928-10.606,0c-2.929-2.93-2.929-7.678,0-10.607
		c4.77-4.77,11.107-7.396,17.846-7.396s13.076,2.627,17.846,7.396c2.929,2.929,2.928,7.678,0,10.606
		C313.917,240.54,311.997,241.272,310.078,241.272z"/>
</g>
<path style="fill:#82E89B;" d="M335.855,446.371c0,2.833-1.96,6.389-4.356,7.899l-71.293,44.992c-2.396,1.511-6.316,1.511-8.712,0
	l-71.291-44.992c-2.396-1.511-4.356-5.066-4.356-7.899V355.7c0-2.833,2.012-4,4.471-2.593l71.061,40.654
	c2.459,1.407,6.483,1.407,8.941,0l71.064-40.654c2.459-1.407,4.471-0.24,4.471,2.593V446.371z"/>
<path style="fill:#64BF70;" d="M251.379,393.762l-71.061-40.654c-2.458-1.407-4.471-0.24-4.471,2.593v90.671
	c0,2.833,1.96,6.389,4.356,7.899l71.291,44.992c1.198,0.755,2.777,1.133,4.356,1.133V394.817
	C254.23,394.817,252.608,394.465,251.379,393.762z"/>
<path style="fill:#FFD4B2;" d="M369,428.513c0,3.568-2.919,6.487-6.488,6.487h-34.023c-3.569,0-6.488-2.919-6.488-6.487V392.81
	c0-3.568,2.919-6.487,6.488-6.487h34.023c3.569,0,6.488,2.919,6.488,6.487V428.513z"/>
<g>
	<path style="fill:#289E48;" d="M310.223,401.442c0-4.143-3.358-7.5-7.5-7.5s-7.5,3.357-7.5,7.5v27.021
		c-1.134-0.19-2.302-0.297-3.499-0.297c-10.201,0-18.501,7.202-18.501,16.055c0,8.854,8.299,16.056,18.501,16.056
		c9.877,0,17.947-6.759,18.45-15.225c0.03-0.273,0.048-0.55,0.048-0.831L310.223,401.442L310.223,401.442z"/>
	<path style="fill:#289E48;" d="M456.144,313.336c0-4.142-3.358-7.5-7.5-7.5s-7.5,3.358-7.5,7.5v27.021
		c-1.134-0.189-2.302-0.297-3.499-0.297c-10.201,0-18.501,7.202-18.501,16.056c0,8.853,8.299,16.055,18.501,16.055
		c9.877,0,17.947-6.758,18.45-15.224c0.03-0.273,0.048-0.55,0.048-0.831L456.144,313.336L456.144,313.336z"/>
</g>
<g>
	<path style="fill:#AB5436;" d="M352.295,210.882c-6.976,0-13.309-1.07-19.028-2.85c0.006,0.002,0.012,0.004,0.019,0.006v37.554
		c0,17.196-5.709,33.071-15.348,45.866h29.207c2.833,0,5.151-2.318,5.151-5.151L352.295,210.882z"/>
	<path style="fill:#AB5436;" d="M352.155,166.431c-2.374-42.111-37.265-75.53-79.971-75.53h-32.666
		c-42.314,0-76.941,32.813-79.884,74.376l-0.227-0.001v43.885c0,0,111.342,5.775,131.728-34.645c0,0,18.818,39.268,61.16,39.268
		v-47.352L352.155,166.431L352.155,166.431z"/>
</g>
<g style="opacity:0.1;">
	<path style="fill:#1E004C;" d="M187.765,209.161v-43.885l0.226,0.001c2.943-41.563,37.571-74.376,79.884-74.376h-28.356
		c-42.314,0-76.941,32.813-79.884,74.376l-0.227-0.001v43.885c0,0,12.035,0.624,28.914,0.026
		C187.967,209.171,187.765,209.161,187.765,209.161z"/>
</g>
<path style="fill:#FFD4B2;" d="M190,428.513c0,3.568-2.919,6.487-6.488,6.487h-34.023c-3.569,0-6.488-2.919-6.488-6.487v-35.704
	c0-3.568,2.919-6.487,6.488-6.487h34.023c3.569,0,6.488,2.919,6.488,6.487V428.513z"/>
<g>
</g>
<g>
</g>
<g>
</g>
<g>
</g>
<g>
</g>
<g>
</g>
<g>
</g>
<g>
</g>
<g>
</g>
<g>
</g>
<g>
</g>
<g>
</g>
<g>
</g>
<g>
</g>
<g>
</g>
</svg>
