<svg id="Filled_stroke_cut_Ex" height="512" viewBox="0 0 512 512" width="512" xmlns="http://www.w3.org/2000/svg" data-name="Filled stroke cut Ex"><g><path d="m402 336h-292a30 30 0 0 0 -30 30v50h48v72h256v-72h48v-50a30 30 0 0 0 -30-30z" fill="#63c521"/><path d="m424 416h16a0 0 0 0 1 0 0v56a0 0 0 0 1 0 0h-56a0 0 0 0 1 0 0v-16a40 40 0 0 1 40-40z" fill="#fefbfb" transform="matrix(-1 0 0 -1 824 888)"/><path d="m384 384h48v32h-48z" fill="#fdc069" transform="matrix(-1 0 0 -1 816 800)"/><path d="m128 424h120a0 0 0 0 1 0 0 64 64 0 0 1 -64 64h-56a0 0 0 0 1 0 0v-64a0 0 0 0 1 0 0z" fill="#9fdc6e"/><path d="m264 424h56a64 64 0 0 1 64 64 0 0 0 0 1 0 0h-120a0 0 0 0 1 0 0v-64a0 0 0 0 1 0 0z" fill="#9fdc6e" transform="matrix(-1 0 0 -1 648 912)"/><ellipse cx="347.314" cy="52.686" fill="#f15a57" rx="36.672" ry="24" transform="matrix(.707 -.707 .707 .707 64.471 261.019)"/><path d="m465 200a41 41 0 0 0 -41 41v-51a30 30 0 0 0 -30-30h-276a30 30 0 0 0 -30 30v51a41 41 0 0 0 -41-41h-7v40a40 40 0 0 0 40 40h8v-4a60 60 0 0 0 60 60h216a60 60 0 0 0 60-60v4h8a40 40 0 0 0 40-40v-40z" fill="#ffd4cf"/><path d="m254.277 166.986h135.132c0-104-135.132-136-135.132-136s-135.132 32-135.132 136z" fill="#63c521"/><path d="m88 190v33.868q1.983.132 4 .132a60 60 0 0 0 60-60q0-2.016-.132-4h-33.868a30 30 0 0 0 -30 30z" fill="#f15a57"/><path d="m424 190v33.868q-1.983.132-4 .132a60 60 0 0 1 -60-60q0-2.016.132-4h33.868a30 30 0 0 1 30 30z" fill="#f15a57"/><path d="m411.622 168h-309.744l-13.878-56 64 16 11.062-24 44.249 16 49.439-40 47.939 40 44.249-16 11.062 24 64-16z" fill="#9fdc6e"/><rect fill="#fdc069" height="40" rx="10" width="64" x="224" y="408"/><g fill="#fefbfb"><path d="m312 384a48 48 0 0 0 48-48h-96a48 48 0 0 0 48 48z"/><path d="m208 384a48 48 0 0 0 48-48h-96a48 48 0 0 0 48 48z"/><path d="m72 416h56a0 0 0 0 1 0 0v56a0 0 0 0 1 0 0h-16a40 40 0 0 1 -40-40v-16a0 0 0 0 1 0 0z"/></g><path d="m80 384h48v32h-48z" fill="#fdc069"/><g><path d="m472 192h-7a48.807 48.807 0 0 0 -33 12.81v-14.81a37.647 37.647 0 0 0 -11.112-26.852l10.924-49.421a8 8 0 0 0 -9.752-9.488l-32.454 8.113a129.357 129.357 0 0 0 -22.644-34.3q1.542-1.3 2.979-2.74a48.017 48.017 0 0 0 10.752-51.477 8 8 0 0 0 -4.529-4.529 48.106 48.106 0 0 0 -59 20.476q-1.51-.828-3.045-1.642a259.434 259.434 0 0 0 -55.9-21.927 8 8 0 0 0 -3.686 0 256.851 256.851 0 0 0 -50.095 18.943l7.13 14.324a252.7 252.7 0 0 1 44.806-17.22c12.934 3.483 90.1 26.427 117.451 84.036l-9.331 2.333-8.288-17.98a8 8 0 0 0 -9.986-4.174l-39.93 14.438-44.415-37.056a8 8 0 0 0 -10.157-.077l-45.93 37.162-40.005-14.465a8 8 0 0 0 -9.986 4.174l-8.288 17.98-8.668-2.167c10.586-22.464 29.809-42.123 57.265-58.545l-8.212-13.731c-31.393 18.776-53.17 41.736-64.837 68.33l-33.117-8.279a8 8 0 0 0 -9.7 9.686l11.944 48.2a37.932 37.932 0 0 0 -12.184 27.875v14.81a48.807 48.807 0 0 0 -33-12.81h-7a8 8 0 0 0 -8 8v24h16v-15.985a33.039 33.039 0 0 1 32 32.985v31a32.036 32.036 0 0 1 -32-32h-16a48.054 48.054 0 0 0 48 48h1.06a68.041 68.041 0 0 0 23.614 40.372 38.059 38.059 0 0 0 -32.674 37.628v42a8 8 0 0 0 -8 8v16a48.054 48.054 0 0 0 48 48h8v8a8 8 0 0 0 8 8h216v-16h-16a55.762 55.762 0 0 1 -46.263-24.39 18.032 18.032 0 0 0 14.263-17.61v-6h80v48h-16v16h24a8 8 0 0 0 8-8v-8h8a48.054 48.054 0 0 0 48-48v-16a8 8 0 0 0 -8-8v-42a38.059 38.059 0 0 0 -32.674-37.628 68.041 68.041 0 0 0 23.614-40.372h1.06a48.054 48.054 0 0 0 48-48v-40a8 8 0 0 0 -8-8zm-141.079-144.039a32.087 32.087 0 0 1 36-14.877 32.018 32.018 0 0 1 -8.293 30.916 32.4 32.4 0 0 1 -3.061 2.7 191.134 191.134 0 0 0 -24.646-18.739zm80.054 128.039a21.777 21.777 0 0 1 5.025 14v25.846a52.17 52.17 0 0 1 -46.606-39.846zm-260.915-40.239a8 8 0 0 0 9.2-4.412l7.987-17.328 37.339 13.5a8 8 0 0 0 7.752-1.3l44.329-35.866 42.891 35.789a8 8 0 0 0 7.846 1.38l37.339-13.5 7.987 17.328a8 8 0 0 0 9.2 4.412l51.47-12.864-8.2 37.1h-297.063l-9.172-37.013zm-49 40.2a7.877 7.877 0 0 0 .816.042h40.728a52.168 52.168 0 0 1 -46.604 39.843v-25.846a21.964 21.964 0 0 1 5.062-14.042zm8.94 168.039h10v32h-32v-10a22.025 22.025 0 0 1 22-22zm-22 48h32v16h-32zm24 72a32.036 32.036 0 0 1 -32-32v-8h40v40zm24 16v-48h80v6a18.032 18.032 0 0 0 14.263 17.61 55.762 55.762 0 0 1 -46.263 24.39zm96-42v-20a2 2 0 0 1 2-2h44a2 2 0 0 1 2 2v20a2 2 0 0 1 -2 2h-44a2 2 0 0 1 -2-2zm-2.641 42a71.854 71.854 0 0 0 19.161-24h14.96a71.854 71.854 0 0 0 19.161 24zm66.53-64a18.026 18.026 0 0 0 -17.889-16h-44a18.026 18.026 0 0 0 -17.889 16h-80.111v-72h16.57a56 56 0 0 0 107.43 12.788 56 56 0 0 0 107.43-12.788h8.57v72zm-127.089-72h78.4a40.005 40.005 0 0 1 -78.392 0zm104 0h78.4a40.005 40.005 0 0 1 -78.392 0zm159.2 88a32.036 32.036 0 0 1 -32 32h-8v-40h40zm-40-24v-16h32v16zm32-42v10h-32v-32h10a22.025 22.025 0 0 1 22 22zm-60-38h-216a52.059 52.059 0 0 1 -52-52v-44.117a68.2 68.2 0 0 0 62.942-55.883h194.116a68.2 68.2 0 0 0 62.942 55.883v44.117a52.059 52.059 0 0 1 -52 52zm100-88a32.036 32.036 0 0 1 -32 32v-31a33.039 33.039 0 0 1 32-32.985z"/><path d="m184 208a40.045 40.045 0 0 0 -40 40h16a24 24 0 0 1 48 0h16a40.045 40.045 0 0 0 -40-40z"/><path d="m328 208a40.045 40.045 0 0 0 -40 40h16a24 24 0 0 1 48 0h16a40.045 40.045 0 0 0 -40-40z"/><path d="m256 296a16.019 16.019 0 0 1 -16-16h-16a32 32 0 0 0 64 0h-16a16.019 16.019 0 0 1 -16 16z"/></g></g></svg>