<svg height="512" viewBox="0 0 58 58" width="512" xmlns="http://www.w3.org/2000/svg"><g id="Page-1" fill="none" fill-rule="evenodd"><g id="017---Snowman" fill-rule="nonzero"><path id="Shape" d="m43 52.84v2.16c0 1.6568542-1.3431458 3-3 3h-22.01c-1.6568542 0-3-1.3431458-3-3v-2.16z" fill="#2fa8cc"/><g fill="#3b97d3"><path id="Rectangle-path" d="m28 52.84h2v5.16h-2z"/><path id="Rectangle-path" d="m23 52.84h2v5.16h-2z"/><path id="Rectangle-path" d="m18 52.84h2v5.16h-2z"/><path id="Rectangle-path" d="m33 52.84h2v5.16h-2z"/><path id="Rectangle-path" d="m38 52.84h2v5.16h-2z"/></g><path id="Shape" d="m8 50.73v3.27c-.0032948 1.1032019-.89679813 1.9967052-2 2h-3c-1.10320187-.0032948-1.9967052-.8967981-2-2v-3.27z" fill="#2fa8cc"/><path id="Shape" d="m57 50.73v3.27c-.0032948 1.1032019-.8967981 1.9967052-2 2h-3c-1.1032019-.0032948-1.9967052-.8967981-2-2v-3.27z" fill="#2fa8cc"/><path id="Shape" d="m41.98 2.29 6.75 2.03c1.4994289.44880428 2.7021857 1.5738445 3.25 3.04 1.87 5.06 5.8 18.38 6.02 41.62.0053392.5338898-.2030151 1.0477507-.5786681 1.4271603-.375653.3794095-.8874154.5928664-1.4213319.5928397h-5.01c-1.100676.0000138-1.9944966-.8893377-2-1.99-.14-9.963-1.39-20.417-2.94-26.61-.0616484-.2652355-.3117527-.4425866-.5824484-.4130191s-.476616.2567292-.4795516.5290191c-.013 4.653-.025 13.91.01 27.673.007905 1.2312458-.8079 2.315984-1.993 2.65-1.981.548-6.805 1.161-14.005 1.161s-12.034-.613-14.015-1.161c-1.1851-.334016-2.000905-1.4187542-1.993-2.65.035-13.763.023-23.02.01-27.673-.0029356-.2722899-.2088559-.4994516-.4795516-.5290191s-.5208.1477836-.5824484.4130191c-1.55 6.193-2.8 16.647-2.94 26.61-.00550338 1.1006623-.89932399 1.9900138-2 1.99h-5c-.53391646.0000267-1.04567885-.2134302-1.42133186-.5928397-.37565301-.3794096-.58400731-.8932705-.57866814-1.4271603.22-23.24 4.15-36.56 6.02-41.62.54781426-1.4661555 1.75057107-2.59119572 3.25-3.04l6.75-2.03z" fill="#67b9cc"/><path id="Shape" d="m39 36c.0076529 2.1789993-.7061321 4.2992573-2.03 6.03-1.8868958 2.5002072-4.8376827 3.9700748-7.97 3.9700748s-6.0831042-1.4698676-7.97-3.9700748c-1.3238679-1.7307427-2.0376529-3.8510007-2.03-6.03-.0026019-2.5228777.9515367-4.9528935 2.67-6.8 1.2735512 2.9128083 4.1509459 4.7951443 7.33 4.7951443s6.0564488-1.882336 7.33-4.7951443c1.7184633 1.8471065 2.6726019 4.2771223 2.67 6.8z" fill="#ecf0f1"/><circle id="Oval" cx="29" cy="50" fill="#000" r="1"/><path id="Shape" d="m41 51c.0030751.7654437-.070627 1.5292662-.22 2.28-3.9035703.5298459-7.8409586.7705012-11.78.72-3.9390323.0501225-7.8763927-.1905312-11.78-.72-.149373-.7507338-.2230751-1.5145563-.22-2.28-.0047345-3.4294787 1.462838-6.696011 4.03-8.97 1.8868958 2.5002072 4.8376827 3.9700748 7.97 3.9700748s6.0831042-1.4698676 7.97-3.9700748c2.567162 2.273989 4.0347345 5.5405213 4.03 8.97z" fill="#fff"/><path id="Shape" d="m37 26c.00061 3.6834898-2.5139977 6.8913086-6.0910881 7.7702408-3.5770904.8789321-7.2919926-.7982247-8.9985396-4.0625461-1.706547-3.2643215-.9635996-7.271987 1.7996277-9.7076947h10.58c1.7252358 1.5164122 2.7128714 3.7030594 2.71 6z" fill="#fff"/><path id="Shape" d="m41.11 3.66c-2.799 1.866-8.71 2.34-12.11 2.34s-9.308-.472-12.11-2.34c-.8546746-.63016644-1.0678886-1.81839581-.4856325-2.70640275.582256-.88800694 1.7569759-1.16618389 2.6756325-.63359725 1.937 1.29 7.56 1.68 9.92 1.68 7.332 0 9.884-1.68 9.92-1.68.9294749-.58154693 2.1535986-.31001403 2.75.61.5960723.9091145.3458453 2.12897117-.56 2.73z" fill="#2fa8cc"/><path id="Shape" d="m30 1.98v4.01c-.32.01-.66.01-1 .01s-.68 0-1-.01v-4.01c.32.02.66.02 1 .02s.68 0 1-.02z" fill="#3b97d3"/><path id="Shape" d="m25.81 1.87-.39 3.99c-.72-.06-1.38-.13-1.99-.22l.4-3.99c.59.09 1.25.17 1.98.22z" fill="#3b97d3"/><path id="Shape" d="m21.77 1.26-1.5 3.75c-.6444594-.17087134-1.278795-.37786508-1.9-.62l1.48-3.72c.6260074.23960964 1.2674631.43672364 1.92.59z" fill="#3b97d3"/><path id="Shape" d="m34.57 5.64c-.61.09-1.27.16-1.99.22l-.39-3.99c.73-.05 1.39-.13 1.98-.22z" fill="#3b97d3"/><path id="Shape" d="m39.63 4.39c-.6230497.24647505-1.2609737.45354985-1.91.62l-1.49-3.75c.6506647-.14810523 1.2891619-.34533734 1.91-.59z" fill="#3b97d3"/><path id="Shape" d="m36.46 13.43-.57 2.57h-13.78l-.57-2.57c-.1325472-.5915155.011179-1.2112061.3905707-1.6839865.3793916-.4727803.9532465-.7473061 1.5594293-.7460135h11.02c.6061828-.0012926 1.1800377.2732332 1.5594293.7460135.3793917.4727804.5231179 1.092471.3905707 1.6839865z" fill="#35495e"/><path id="Shape" d="m35.89 16-.89 4h-12l-.89-4z" fill="#e64c3c"/><circle id="Oval" cx="29" cy="38" fill="#3f5c6c" r="1"/><circle id="Oval" cx="26" cy="24" fill="#3f5c6c" r="1"/><circle id="Oval" cx="32" cy="24" fill="#3f5c6c" r="1"/><circle id="Oval" cx="29" cy="42" fill="#3f5c6c" r="1"/><path id="Shape" d="m28.276 26.362-1.849.925c-.2682534.1365007-.4371901.4120144-.4371901.713s.1689367.5764993.4371901.713l1.849.925c.1549933.0776671.3391575.0695041.4866714-.0215714.1475138-.0910756.2373228-.2520645.2373286-.4254286v-2.382c-.0000058-.1733641-.0898148-.334353-.2373286-.4254286-.1475139-.0910755-.3316781-.0992385-.4866714-.0215714z" fill="#f29c1f"/><path id="Shape" d="m39 21h-20c-.5522847 0-1-.4477153-1-1s.4477153-1 1-1h20c.5522847 0 1 .4477153 1 1s-.4477153 1-1 1z" fill="#3f5c6c"/></g></g></svg>