<svg id="Layer_1" enable-background="new 0 0 511 511" height="512" viewBox="0 0 511 511" width="512" xmlns="http://www.w3.org/2000/svg"><g><g><g><g id="XMLID_23_"><path d="m363.582 297.164v-127.646c.017-3.409 3.451-6.514 7.205-6.514h48.021c9.864 0 17.861-7.997 17.861-17.861 0-9.865-7.997-17.861-17.861-17.861h-48.021c-23.553 0-42.81 18.866-42.927 42.146v114.606z" fill="#961e0f"/></g><g id="XMLID_22_"><path d="m418.655 163.005h48.021c3.754 0 7.188 3.104 7.205 6.423v127.736l35.722-13.13v-114.695c-.116-23.19-19.373-42.056-42.927-42.056h-48.021c-9.864 0-17.861 7.997-17.861 17.861s7.996 17.861 17.861 17.861z" fill="#961e0f"/></g></g><g><g id="XMLID_21_"><path d="m327.86 284.034v11.694l35.722 1.436v-13.13z" fill="#ffda52"/></g><g id="XMLID_20_"><path d="m473.88 284.034v13.13l35.723-1.436v-11.694z" fill="#ffda52"/></g></g><g><g id="XMLID_19_"><path d="m327.86 295.728v4.919c0 9.864 7.997 17.861 17.861 17.861s17.861-7.997 17.861-17.861v-4.919z" fill="#80391b"/></g><g id="XMLID_18_"><path d="m473.88 295.728v5.392c0 9.864 7.997 17.861 17.861 17.861s17.861-7.997 17.861-17.861v-5.392z" fill="#80391b"/></g></g><g><path d="m382.275 65.228h72.827v165.606h-72.827z" fill="#e69632"/></g><g><g id="XMLID_17_"><path d="m444.792 491.204c-11.837 0-21.434-9.596-21.434-21.433v-171.32c0-11.837 9.596-21.433 21.434-21.433s21.434 9.596 21.434 21.433v171.32c-.001 11.837-9.597 21.433-21.434 21.433z" fill="#55696e"/></g><g id="XMLID_16_"><path d="m392.671 491.204c-11.837 0-21.434-9.596-21.434-21.433v-171.32c0-11.837 9.596-21.433 21.434-21.433 11.837 0 21.434 9.596 21.434 21.433v171.32c-.001 11.837-9.597 21.433-21.434 21.433z" fill="#748488"/></g></g><path d="m371.427 145.144 6.042 300.18h81.281l7.285-300.18z" fill="#e64937"/><path d="m465.9 127.282h-26.662l-21.309 9.436-19.79-9.436h-25.998v35.723h93.759z" fill="#e64937"/><g><path d="m371.427 415.885h94.608v12.083h-94.608z" fill="#ffda52"/></g><ellipse cx="418.731" cy="78.465" fill="#80391b" rx="37.018" ry="37.018" transform="matrix(.055 -.999 .999 .055 317.23 492.216)"/><path d="m452.763 59.22c3.457 0 5.639-3.721 3.955-6.74-7.375-13.223-21.496-22.168-37.712-22.168s-30.337 8.945-37.712 22.168c-1.684 3.019.498 6.74 3.955 6.74z" fill="#ffda52"/><path d="m345.721 137.466v307.858h19.665l9.968-307.858z" fill="#961e0f"/><g><path d="m365.386 125.058h12.083v320.266h-12.083z" fill="#be1423"/></g><path d="m460.073 137.466 10.759 307.858h19.666v-307.858z" fill="#961e0f"/><g><path d="m458.75 125.058h12.083v320.266h-12.083z" fill="#be1423"/></g><g><g><path d="m455.749 71.27h-73.485c-3.337 0-6.041-2.705-6.041-6.041 0-3.337 2.705-6.041 6.041-6.041h73.485c3.337 0 6.041 2.705 6.041 6.041s-2.705 6.041-6.041 6.041z" fill="#e69632"/></g></g><path d="m417.93 48.465c-4.77 0-8.637 4.667-8.637 10.424s3.867 10.423 8.637 10.423 8.637-4.667 8.637-10.423-3.868-10.424-8.637-10.424z" fill="#e64937"/><path d="m382.275 71.237v117.485c0 5.512-4.468 9.98-9.98 9.98h-23.181c-6.538 0-11.31-6.182-9.655-12.507 0 0 42.816-114.958 42.816-114.958z" fill="#ffda52"/><path d="m455.102 188.722c0 5.512 4.468 9.98 9.98 9.98h23.181c6.538 0 11.31-6.182 9.655-12.507l-42.816-114.958z" fill="#ffda52"/><path d="m398.139 127.282c0 11.349 9.2 20.549 20.549 20.549s20.549-9.2 20.549-20.549z" fill="#80391b"/></g><g><path d="m90.488 6.021c-17.322 0-31.364 12.691-31.364 28.347s14.042 28.346 31.364 28.346 31.364-12.691 31.364-28.346-14.042-28.347-31.364-28.347z" fill="#827ddc"/><g><g id="XMLID_13_"><g><path d="m117.065 491.204c-11.71 0-21.202-9.492-21.202-21.202v-169.468c0-11.709 9.492-21.202 21.202-21.202s21.202 9.492 21.202 21.202v169.468c0 11.71-9.492 21.202-21.202 21.202z" fill="#55696e"/></g></g><g id="XMLID_12_"><g><path d="m65.508 491.204c-11.71 0-21.202-9.492-21.202-21.202v-169.468c0-11.709 9.492-21.202 21.202-21.202s21.202 9.492 21.202 21.202v169.468c-.001 11.71-9.493 21.202-21.202 21.202z" fill="#748488"/></g></g></g><path d="m44.494 148.884 15.918 296.936h61.23l16.437-296.936z" fill="#ffda52"/><path d="m36.734 284.176v-111.182c.017-3.372 3.414-6.443 7.127-6.443h6.581l-1.516-35.336h-5.066c-23.299 0-42.348 18.662-42.463 41.69v110.399z" fill="#e69632"/><path d="m145.839 172.906v111.27l35.337-.872v-110.488c-.115-22.939-19.163-41.602-42.463-41.602h-5.583l-1.433 35.336h7.016c3.713.002 7.11 3.072 7.126 6.356z" fill="#e69632"/><path d="m1.397 283.305v11.191l35.337 2.208v-13.399z" fill="#827ddc"/><path d="m145.839 283.305v13.399l35.337-2.208v-11.191z" fill="#827ddc"/><path d="m1.397 294.496v8.211c0 9.758 7.911 17.668 17.668 17.668s17.668-7.911 17.668-17.668v-8.211z" fill="#ba6746"/><path d="m145.839 294.496v8.678c0 9.758 7.911 17.668 17.668 17.668 9.758 0 17.668-7.91 17.668-17.668v-8.678z" fill="#ba6746"/><path d="m121.642 131.216h-61.23l-2.694 35.336h66.702z" fill="#ffda52"/><circle cx="91.286" cy="82.926" fill="#ba6746" r="36.618"/><g><path d="m90.624 108.064c-19.28 0-31.765-8.149-31.765-8.149 0 31.727 14.536 74.677 32.468 74.677s32.468-42.951 32.468-74.677c0-.001-12.904 8.149-33.171 8.149z" fill="#c8bec3"/></g><path d="m108.364 35.675c-2.519 0-4.848-1.339-6.116-3.515l-9.466-16.248c-.674-1.157-2.345-1.157-3.019 0l-9.336 16.025c-1.349 2.315-3.826 3.738-6.505 3.738-2.679 0-5.156-1.424-6.505-3.738l-7.588-13.027c-.898-1.541-3.257-.904-3.257.879v42.924h68.884v-42.923c0-1.784-2.359-2.421-3.257-.879l-7.719 13.249c-1.268 2.176-3.597 3.515-6.116 3.515z" fill="#ffda52"/><g><path d="m110.449 428.794c-1.184 0-2.367-.365-3.373-1.095l-9.818-7.125-9.823 7.125c-2.011 1.459-4.734 1.459-6.745-.001l-9.817-7.124-9.814 7.124c-2.011 1.46-4.735 1.461-6.747 0l-13.192-9.572 6.746-9.297 9.818 7.124 9.814-7.124c2.012-1.46 4.735-1.46 6.747 0l9.818 7.125 9.823-7.125c2.011-1.459 4.734-1.459 6.745 0l9.819 7.125 9.827-7.126c2.012-1.458 4.732-1.459 6.744 0l13.2 9.572-6.744 9.299-9.828-7.127-9.828 7.127c-1.006.73-2.189 1.095-3.372 1.095z" fill="#827ddc"/></g><g><path d="m125.456 70.453h-68.884c-3.172 0-5.743-2.571-5.743-5.743s2.572-5.743 5.743-5.743h68.884c3.172 0 5.743 2.571 5.743 5.743s-2.571 5.743-5.743 5.743z" fill="#e69632"/></g><path d="m19.065 141.288v288.904c0 8.631 6.997 15.628 15.628 15.628h14.233l10.759-304.532z" fill="#e69632"/><path d="m121.658 141.288 11.471 304.532h13.521c8.631 0 15.628-6.997 15.628-15.628v-288.904z" fill="#e69632"/><g><path d="m48.925 131.216h11.487v314.604h-11.487z" fill="#827ddc"/></g><g><path d="m121.642 131.216h11.487v314.604h-11.487z" fill="#827ddc"/></g></g><g><g><path d="m217.575 239.878-49.514-19.857c2.739-4.562 5.849-9.642 9.132-14.823 14.837-23.407 22.63-32.177 25.759-35.207h7.825l-1.744-36.915h-10.425c-13.989 0-26.435 11.923-49.324 47.253-12.762 19.697-23.592 39.053-24.047 39.867-2.587 4.632-3.056 10.154-1.286 15.156s5.606 9.001 10.531 10.976l69.353 27.813c2.252.903 4.577 1.331 6.864 1.331 7.319 0 14.247-4.384 17.137-11.592 3.795-9.462-.799-20.208-10.261-24.002z" fill="#2896ff"/></g><g><path d="m384.356 220.197c-.455-.814-11.286-20.17-24.047-39.868-22.889-35.33-35.336-47.253-49.325-47.253h-11.843l-1.407 36.915h8.906c3.129 3.03 10.923 11.8 25.759 35.207 3.284 5.18 6.394 10.26 9.132 14.823l-49.514 19.857c-9.462 3.794-14.056 14.541-10.261 24.002 2.891 7.209 9.817 11.593 17.137 11.592 2.287 0 4.612-.428 6.864-1.331l69.352-27.813c4.925-1.975 8.761-5.974 10.531-10.976 1.772-5.001 1.304-10.523-1.284-15.155z" fill="#2896ff"/></g><g><g><path d="m253.889 6.03c-19.19 0-34.746 14.06-34.746 31.403 0 17.344 15.556 31.403 34.746 31.403s34.746-14.06 34.746-31.403c.001-17.344-15.556-31.403-34.746-31.403z" fill="#64afff"/><g><g id="XMLID_42_"><path d="m281.822 511c-12.292 0-22.258-9.965-22.258-22.258v-177.912c0-12.293 9.966-22.258 22.258-22.258s22.258 9.965 22.258 22.258v177.911c0 12.293-9.966 22.259-22.258 22.259z" fill="#414b82"/></g><g id="XMLID_41_"><path d="m227.695 511c-12.293 0-22.258-9.965-22.258-22.258v-177.912c0-12.293 9.965-22.258 22.258-22.258s22.258 9.965 22.258 22.258v177.911c0 12.293-9.965 22.259-22.258 22.259z" fill="#5f6e9b"/></g></g><path d="m205.634 151.624 15.948 311.73h65.012l17.288-311.73z" fill="#64afff"/><path d="m286.594 133.076h-65.012l-3.271 11.44v25.657h70.573v-31.092z" fill="#64afff"/><circle cx="254.758" cy="82.381" fill="#ffb69e" r="38.442"/><path d="m178.939 143.651v307.655c0 6.654 5.394 12.049 12.048 12.049h18.047l12.548-319.704z" fill="#2896ff"/><g><path d="m209.034 133.076h12.548v330.278h-12.548z" fill="#ffda52"/></g><path d="m286.643 143.651 12.499 319.704h18.095c6.654 0 12.048-5.394 12.048-12.049v-307.655z" fill="#2896ff"/><g><path d="m286.594 133.076h12.548v330.278h-12.548z" fill="#ffda52"/></g><g><path d="m254.472 98.564c-20.694 0-34.562 0-34.562 0 0 38.508 14.938 56.471 34.185 56.471s35.513-17.964 35.513-56.471c0 0-13.383 0-35.136 0z" fill="#e6dcdc"/></g><g><path d="m253.889 41.895c-3.33 0-6.029-2.699-6.029-6.029v-29.837c0-3.33 2.7-6.029 6.029-6.029 3.33 0 6.029 2.699 6.029 6.029v29.836c.001 3.331-2.699 6.03-6.029 6.03z" fill="#ffda52"/></g><path d="m285.209 35.865h-61.474c-4.097 0-7.419 3.322-7.419 7.419v15.118c0 4.097 3.322 7.419 7.419 7.419h61.474c4.097 0 7.419-3.322 7.419-7.419v-15.118c0-4.097-3.322-7.419-7.419-7.419z" fill="#2896ff"/></g><g fill="#f5f0f0"><path d="m244.655 80.752c-6.53-.501-12.1 4.076-13.168 10.171-.739 4.22-4.241 7.504-8.525 7.538-.033 0-.067 0-.1 0-2.407 0-4.645-.697-6.546-1.885.58 6.303 8.532 12.092 14.919 13.017 13.184 1.908 26.044-5.047 24.776-17.571-.603-5.949-5.394-10.813-11.356-11.27z"/><path d="m264.529 80.752c6.53-.501 12.1 4.076 13.168 10.171.739 4.22 4.241 7.504 8.525 7.538h.1c2.407 0 4.645-.697 6.546-1.885-.58 6.303-8.532 12.092-14.919 13.017-13.184 1.908-26.044-5.047-24.776-17.571.603-5.949 5.394-10.813 11.356-11.27z"/></g></g><g><path d="m185.927 238.893v50.437c0 6.353 5.15 11.503 11.503 11.503h115.669c6.353 0 11.503-5.15 11.503-11.503v-50.437z" fill="#783c28"/></g><g><path d="m324.602 241.77v-27.832c0-6.353-5.15-11.503-11.503-11.503h-115.669c-6.353 0-11.503 5.15-11.503 11.503v27.832z" fill="#a55a3c"/></g><g><path d="m262.212 258.172h-15.275c-.752 0-1.362-.61-1.362-1.362v-16.555c0-.752.61-1.362 1.362-1.362h15.275c.752 0 1.362.61 1.362 1.362v16.555c0 .752-.609 1.362-1.362 1.362z" fill="#ffda52"/></g><g><g id="XMLID_38_"><g><path d="m200.26 233.097-52.038-20.869c-9.46-3.795-20.208.8-24.001 10.261-3.794 9.462.8 20.208 10.261 24.002l53.272 21.364 14.539-14.871z" fill="#2896ff"/></g></g><g id="XMLID_37_"><g><path d="m217.575 240.041-4.568-1.832-12.132 14.243-.614 20.419 3.574 1.434c2.252.903 4.577 1.331 6.864 1.331 7.319 0 14.247-4.384 17.137-11.592 3.795-9.463-.8-20.209-10.261-24.003z" fill="#ffb69e"/></g></g><g id="XMLID_36_"><g><path d="m213.006 238.209-12.746-5.112-12.506 34.758 12.506 5.015z" fill="#ffda52"/></g></g></g><g><g id="XMLID_35_"><g><path d="m309.331 233.097 52.038-20.869c9.46-3.795 20.208.8 24.001 10.261 3.794 9.462-.8 20.208-10.261 24.002l-53.272 21.364-14.539-14.871z" fill="#2896ff"/></g></g><g id="XMLID_34_"><g><path d="m292.017 240.041 4.569-1.832 12.132 14.243.614 20.419-3.574 1.434c-2.252.903-4.577 1.331-6.864 1.331-7.319 0-14.247-4.384-17.137-11.592-3.796-9.463.798-20.209 10.26-24.003z" fill="#ffb69e"/></g></g><g id="XMLID_33_"><g><path d="m296.585 238.209 12.746-5.112 12.507 34.758-12.507 5.015z" fill="#ffda52"/></g></g></g></g><path d="m330.977 461.743v-192.748" fill="none" stroke="#fff" stroke-miterlimit="10" stroke-width="12.486"/></g></svg>