<svg id="Capa_1" enable-background="new 0 0 499.375 499.375" height="512" viewBox="0 0 499.375 499.375" width="512" xmlns="http://www.w3.org/2000/svg"><g><g><path d="m310.041 319.023v47.456c0 33.332-27.021 60.353-60.353 60.353s-60.353-27.021-60.353-60.353v-47.375c-2.218-1.773-4.353-3.646-6.405-5.604l-38.117 178.375h209.875l-38.244-178.471c-2.052 1.963-4.186 3.841-6.403 5.619z" fill="#eec07a"/><path d="m316.443 313.404c-2.051 1.963-4.185 3.841-6.403 5.62v47.456c0 2.679-.193 5.312-.531 7.899l25.178 117.497h20z" fill="#ffa76b"/><path d="m370.444 172.093c-16.12 0-30.387 11.024-39.166 19.758-17.766-27.979-49.514-46.208-85.415-44.841-32.678 1.243-61.234 18.9-77.771 44.838-8.779-8.733-23.045-19.755-39.163-19.755-26.688 0-48.323 30.227-48.323 30.227s21.635 30.227 48.323 30.227c5.62 0 11.013-1.342 16.027-3.46 4.18-1.765 8.803 1.482 8.405 6.002-.207 2.348-.328 4.719-.362 7.11-.436 31.126 13.849 58.929 36.333 76.906v47.375c0 33.332 27.021 60.353 60.353 60.353 33.332 0 60.353-27.021 60.353-60.353v-47.456c22.092-17.712 36.242-44.921 36.242-75.44 0-2.87-.125-5.71-.371-8.516-.397-4.535 4.151-7.836 8.338-6.051 5.062 2.158 10.512 3.531 16.194 3.531 26.688 0 48.323-30.227 48.323-30.227s-21.632-30.228-48.32-30.228z" fill="#eec07a"/><path d="m370.444 172.093c-2.86 0-5.66.353-8.383.972 10.6 3.378 29.588 16.437 32.457 29.256-6.708 6.131-15.642 12.225-24.074 12.225-2.812 0-5.884-.703-9.133-2.088-3.013-1.284-6.188-1.936-9.438-1.936-6.701 0-13.149 2.843-17.691 7.799-4.526 4.939-6.787 11.614-6.201 18.313.201 2.299.303 4.637.303 6.948 0 23.986-10.753 46.365-29.502 61.396l-6.74 5.404v56.096c0 23.354-19 42.354-42.354 42.354-20.123 0-41.398-12.578-58.75-28.557 6.242 26.68 30.167 46.557 58.75 46.557 33.332 0 60.353-27.021 60.353-60.353v-47.456c22.092-17.712 36.242-44.922 36.242-75.44 0-2.87-.125-5.71-.371-8.516-.396-4.535 4.152-7.836 8.339-6.051 5.062 2.158 10.512 3.531 16.194 3.531 26.688 0 48.323-30.227 48.323-30.227s-21.636-30.227-48.324-30.227z" fill="#ffa76b"/><circle cx="249.637" cy="367.28" fill="#d56262" r="25.905"/><path d="m249.637 341.375c-3.545 0-6.923.714-10 2.003 9.341 3.913 15.905 13.14 15.905 23.902s-6.563 19.989-15.905 23.902c3.077 1.289 6.455 2.003 10 2.003 14.307 0 25.905-11.598 25.905-25.905s-11.598-25.905-25.905-25.905z" fill="#cf4949"/><g fill="#79787d"><path d="m144.812 116.438h42.5v53.404c10.107-8.568 21.983-15.112 35-18.967v-125.875c0-9.665-7.835-17.5-17.5-17.5s-17.5 7.835-17.5 17.5v56.438h-42.5c-6.893 0-12.5-5.607-12.5-12.5v-25c0-9.665-7.835-17.5-17.5-17.5s-17.5 7.835-17.5 17.5v25c0 26.191 21.309 47.5 47.5 47.5z"/><path d="m314.788 172.219v-55.781h42.5c26.191 0 47.5-21.309 47.5-47.5v-25c0-9.665-7.835-17.5-17.5-17.5s-17.5 7.835-17.5 17.5v25c0 6.893-5.607 12.5-12.5 12.5h-42.5v-56.438c0-9.665-7.835-17.5-17.5-17.5s-17.5 7.835-17.5 17.5v126.748c13.135 4.311 25.025 11.357 35 20.471z"/></g></g><g><path d="m424.866 197.955c-.975-1.362-24.226-33.361-54.422-33.361-14.896 0-28.085 7.722-37.911 15.953-3.14-4.117-6.569-7.965-10.244-11.531v-45.078h35c30.327 0 55-24.673 55-55v-25c0-13.785-11.215-25-25-25s-25 11.215-25 25v25c0 2.757-2.243 5-5 5h-35v-48.938c0-13.785-11.215-25-25-25s-25 11.215-25 25v116.987c-8.667-1.95-17.637-2.818-26.71-2.473-5.335.203-10.602.828-15.766 1.833v-84.41h-15v88.514c-6.998 2.498-13.7 5.743-20 9.663v-46.177h-50c-22.056 0-40-17.944-40-40v-25c0-5.514 4.486-10 10-10s10 4.486 10 10v25c0 11.028 8.972 20 20 20h50v-63.937c0-5.514 4.486-10 10-10s10 4.486 10 10v17h15v-17c0-13.785-11.215-25-25-25s-25 11.215-25 25v48.938h-35c-2.757 0-5-2.243-5-5v-25c0-13.785-11.215-25-25-25s-25 11.215-25 25v25c0 30.327 24.673 55 55 55h35v42.503c-4.707 4.267-9.057 8.979-12.969 14.108-9.826-8.231-23.017-15.955-37.913-15.955-30.196 0-53.447 31.999-54.422 33.361l-3.125 4.365 3.125 4.365c.975 1.362 24.226 33.362 54.422 33.362 5.501 0 11.134-1.071 16.776-3.187-.112 1.742-.181 3.494-.206 5.233-.39 27.901 10.137 54.161 29.236 73.853l-39.197 183.429h228.424l-13.2-61.603-14.668 3.143 9.313 43.46h-191.325l27.75-129.859v11.964c0 37.415 30.439 67.854 67.854 67.854s67.854-30.439 67.854-67.854v-12.156l15.354 71.655 14.668-3.143-22.928-106.997c18.659-19.313 29.148-44.994 29.148-72.254 0-2.246-.073-4.511-.218-6.761 5.677 2.141 11.344 3.225 16.879 3.225 30.196 0 53.447-32 54.422-33.362l3.125-4.365zm-137.577-172.955c0-5.514 4.486-10 10-10s10 4.486 10 10v63.938h50c11.028 0 20-8.972 20-20v-25c0-5.514 4.486-10 10-10s10 4.486 10 10v25c0 22.056-17.944 40-40 40h-50v48c-6.273-4.163-12.983-7.638-20-10.37zm83.155 200.047c-4.234 0-8.693-.985-13.252-2.929-4.409-1.881-9.357-1.328-13.231 1.481-3.875 2.81-5.938 7.341-5.521 12.121.228 2.602.343 5.248.343 7.863 0 27.189-12.187 52.553-33.434 69.588l-2.809 2.252v51.056c0 26.614-19.777 48.686-45.404 52.318v-18.593h-1.898c15.76-2.674 27.803-16.416 27.803-32.925 0-18.419-14.985-33.405-33.405-33.405s-33.405 14.985-33.405 33.405c0 16.51 12.042 30.252 27.803 32.925h-1.898v18.58c-25.579-3.676-45.303-25.726-45.303-52.306v-50.981l-2.816-2.252c-21.689-17.341-33.906-43.199-33.517-70.942.03-2.184.143-4.391.333-6.558.417-4.733-1.632-9.232-5.481-12.035-2.381-1.734-5.166-2.622-7.986-2.622-1.793 0-3.601.359-5.327 1.088-4.508 1.904-8.919 2.869-13.109 2.869-16.85 0-32.084-15.111-38.717-22.763 7.684-8.882 22.978-22.69 38.717-22.69 13.397 0 25.815 9.556 33.873 17.572l6.605 6.57 5.008-7.856c15.811-24.8 42.626-40.268 71.731-41.375 31.642-1.202 61.832 14.647 78.799 41.367l5.004 7.88 6.617-6.583c8.058-8.018 20.476-17.574 33.875-17.574 16.851 0 32.084 15.111 38.718 22.763-7.683 8.882-22.977 22.691-38.716 22.691zm-120.807 160.637c-10.148 0-18.405-8.256-18.405-18.404s8.256-18.405 18.405-18.405c10.148 0 18.405 8.256 18.405 18.405 0 10.148-8.257 18.404-18.405 18.404z"/><path d="m211.98 267.304h15v15h-15z"/><path d="m272.289 267.304h15v15h-15z"/><path d="m116.871 291.274h15v38h-15z" transform="matrix(.637 -.771 .771 .637 -194 208.401)"/><path d="m94.134 334.353h38v15h-38z" transform="matrix(1 -.007 .007 1 -2.461 .824)"/><path d="m105.825 365.766h38v15h-38z" transform="matrix(.761 -.648 .648 .761 -212.203 169.99)"/><path d="m366.338 354.406h15v38h-15z" transform="matrix(.637 -.771 .771 .637 -152.158 423.562)"/><path d="m366.074 334.327h38v15h-38z" transform="matrix(1 -.007 .007 1 -2.438 2.766)"/><path d="m354.383 302.915h38v15h-38z" transform="matrix(.761 -.648 .648 .761 -112.147 316.133)"/></g></g></svg>