<svg height="480pt" viewBox="-48 0 480 480.01525" width="480pt" xmlns="http://www.w3.org/2000/svg"><path d="m248.007812 152.015625c69.320313 35.289063 128 122.824219 128 200 0 99.40625-84.59375 120-184 120s-184-20.59375-184-120c0-77.175781 58.679688-164.710937 128-200zm0 0" fill="#ffd782"/><path d="m248.007812 120.015625s48-32 48-112l-40 16c-19.480468-11.054687-41.609374-16.589844-64-16-22.390624-.589844-44.519531 4.945313-64 16l-40-16c0 80 48 112 48 112zm0 0" fill="#ffd782"/><g fill="#fdbd40"><path d="m176.007812 128.015625c-1.578124 0-3.121093-.46875-4.433593-1.34375-17.507813-12.96875-29.984375-31.597656-35.320313-52.71875-.765625-2.800781.042969-5.796875 2.113282-7.828125 2.074218-2.03125 5.082031-2.785156 7.867187-1.960938 2.785156.820313 4.902344 3.082032 5.542969 5.914063 4.363281 17.265625 14.480468 32.53125 28.679687 43.28125 2.933594 1.957031 4.238281 5.605469 3.214844 8.980469s-4.136719 5.679687-7.664063 5.675781zm0 0"/><path d="m208.007812 128.015625c-3.519531 0-6.628906-2.300781-7.652343-5.667969-1.027344-3.367187.265625-7.007812 3.1875-8.972656 14.144531-10.8125 24.25-26.058594 28.695312-43.296875.636719-2.832031 2.757813-5.09375 5.542969-5.914063 2.785156-.824218 5.792969-.070312 7.867188 1.960938 2.070312 2.03125 2.878906 5.027344 2.109374 7.828125-5.332031 21.121094-17.8125 39.75-35.316406 52.71875-1.3125.875-2.855468 1.34375-4.433594 1.34375zm0 0"/><path d="m240.007812 208.015625c-3.667968-.003906-6.863281-2.503906-7.753906-6.0625-4.363281-17.265625-14.480468-32.53125-28.679687-43.28125-3.675781-2.453125-4.667969-7.421875-2.214844-11.097656s7.421875-4.667969 11.097656-2.214844c17.507813 12.96875 29.984375 31.59375 35.320313 52.71875 1.066406 4.285156-1.535156 8.625-5.816406 9.695313-.640626.160156-1.296876.242187-1.953126.242187zm0 0"/><path d="m144.007812 208.015625c-.65625 0-1.3125-.082031-1.953124-.242187-4.28125-1.070313-6.882813-5.410157-5.816407-9.695313 5.335938-21.125 17.8125-39.75 35.320313-52.71875 3.667968-2.363281 8.554687-1.351563 10.980468 2.277344 2.429688 3.625 1.5 8.527343-2.082031 11.019531-14.144531 10.8125-24.25 26.058594-28.699219 43.296875-.886718 3.558594-4.082031 6.058594-7.75 6.0625zm0 0"/></g><path d="m136.007812 120.015625h112v32h-112zm0 0" fill="#f7a40f"/><path d="m176.007812 392.015625h32v48h-32zm0 0" fill="#d3843d"/><path d="m256.007812 392.015625h-128l32-64h64zm0 0" fill="#36afad"/><path d="m240.007812 328.015625h-96l32-64h32zm0 0" fill="#238892"/><path d="m192.007812 200.015625-32 64h64zm0 0" fill="#36afad"/><path d="m256.007812 147.335938v-23.320313c11.671876-9.472656 48-44.511719 48-116 0-2.65625-1.316406-5.140625-3.515624-6.628906-2.199219-1.492188-4.996094-1.792969-7.460938-.804688l-36.359375 14.554688c-19.988281-10.265625-42.195313-15.457031-64.664063-15.121094-22.46875-.335937-44.675781 4.855469-64.664062 15.121094l-36.359375-14.554688c-2.464844-.988281-5.261719-.6875-7.460937.804688-2.199219 1.488281-3.519532 3.972656-3.515626 6.628906 0 71.488281 36.328126 106.527344 48 116v23.359375c-72.105468 39.039062-127.9999995 127.839844-127.9999995 204.640625 0 54.945313 19.9023435 128 191.9999995 128 82.398438 0 192-13.265625 192-128 0-76.800781-55.894531-165.601563-128-204.679687zm-112-3.320313v-16h96v16zm-47.617187-124 28.640625 11.464844c2.453125.972656 5.226562.671875 7.417969-.800781 18.164062-10.171876 38.746093-15.238282 59.558593-14.664063 20.804688-.5 41.363282 4.558594 59.558594 14.65625 2.191406 1.472656 4.964844 1.773437 7.417969.800781l28.648437-11.457031c-3.761718 58.273437-34.28125 85.800781-42.25 92h-17.289062c9.394531-11.011719 16.125-24.035156 19.675781-38.0625.765625-2.800781-.042969-5.796875-2.113281-7.828125-2.074219-2.03125-5.082031-2.785156-7.867188-1.960938-2.785156.820313-4.902343 3.082032-5.542968 5.914063-4.277344 16.484375-13.703125 31.175781-26.902344 41.9375h-26.695312c-13.234376-10.726563-22.660157-25.433594-26.878907-41.9375-.640625-2.832031-2.757812-5.09375-5.542969-5.914063-2.785156-.824218-5.792968-.070312-7.867187 1.960938-2.070313 2.03125-2.878906 5.027344-2.113281 7.828125 3.550781 14.027344 10.28125 27.050781 19.671875 38.0625h-17.261719c-7.792969-6.175781-38.464844-34.0625-42.265625-92zm95.617187 444c-123.359374 0-176-33.496094-176-112 0-71.054687 54.542969-156.746094 121.945313-192h17.964844c-9.390625 11.011719-16.121094 24.035156-19.671875 38.0625-1.066406 4.285156 1.535156 8.625 5.816406 9.695313.636719.160156 1.289062.238281 1.945312.242187 3.667969-.003906 6.863282-2.503906 7.75-6.0625 4.285157-16.488281 13.710938-31.175781 26.914063-41.9375h26.695313c13.234374 10.726563 22.660156 25.429687 26.878906 41.9375.890625 3.5625 4.089844 6.0625 7.761718 6.0625.65625 0 1.3125-.082031 1.953126-.242187 4.28125-1.070313 6.882812-5.410157 5.816406-9.695313-3.554688-14.027344-10.289063-27.054687-19.683594-38.0625h17.96875c67.402344 35.253906 121.945312 120.945313 121.945312 192 0 78.503906-52.640624 112-176 112zm0 0"/><path d="m236.953125 336.015625h3.054687c2.78125.015625 5.367188-1.414063 6.835938-3.773437 1.46875-2.363282 1.605469-5.316407.363281-7.804688l-26.253906-52.421875h3.054687c2.78125.015625 5.367188-1.414063 6.835938-3.773437 1.46875-2.363282 1.605469-5.316407.363281-7.804688l-32-64c-1.503906-2.519531-4.222656-4.066406-7.160156-4.066406s-5.65625 1.546875-7.160156 4.066406l-32 64c-1.234375 2.476562-1.105469 5.414062.34375 7.769531s4.011719 3.796875 6.777343 3.808594h3.054688l-26.214844 52.421875c-1.238281 2.480469-1.105468 5.425781.351563 7.785156 1.460937 2.359375 4.035156 3.792969 6.808593 3.792969h3.054688l-26.214844 52.421875c-1.238281 2.480469-1.105468 5.425781.351563 7.785156 1.460937 2.359375 4.035156 3.792969 6.808593 3.792969h40v40c0 4.417969 3.582032 8 8 8h32c4.417969 0 8-3.582031 8-8v-40h40c2.78125.015625 5.367188-1.414063 6.835938-3.773437 1.46875-2.363282 1.605469-5.316407.363281-7.804688zm-44.945313-118.113281 19.054688 38.113281h-38.109375zm-11.054687 54.113281h22.109375l24 48h-70.109375zm19.054687 160h-16v-32h16zm-59.054687-48 24-48h54.109375l24 48zm0 0"/></svg>