<?xml version="1.0" encoding="iso-8859-1"?>
<!-- Generator: Adobe Illustrator 19.0.0, SVG Export Plug-In . SVG Version: 6.00 Build 0)  -->
<svg version="1.1" id="Capa_1" xmlns="http://www.w3.org/2000/svg" xmlns:xlink="http://www.w3.org/1999/xlink" x="0px" y="0px"
	 viewBox="0 0 512 512" style="enable-background:new 0 0 512 512;" xml:space="preserve">
<circle style="fill:#EEEDED;" cx="395.4" cy="63.64" r="47.04"/>
<path style="opacity:0.1;enable-background:new    ;" d="M410.095,88.767c-25.979,0-47.039-21.06-47.039-47.039
	c0-4.94,0.766-9.701,2.178-14.174c-10.31,8.629-16.872,21.589-16.872,36.085c0,25.979,21.06,47.039,47.039,47.039
	c21.039,0,38.847-13.814,44.861-32.865C432.095,84.647,421.577,88.767,410.095,88.767z"/>
<circle style="fill:#F7C2AD;" cx="79.81" cy="253.92" r="45.49"/>
<path style="opacity:0.2;fill:#E86478;enable-background:new    ;" d="M79.813,283.513c-16.317,0-29.593-13.275-29.593-29.592
	s13.275-29.593,29.593-29.593s29.592,13.275,29.592,29.593S96.13,283.513,79.813,283.513z M79.813,239.328
	c-8.046,0-14.593,6.546-14.593,14.593c0,8.046,6.546,14.592,14.593,14.592s14.592-6.546,14.592-14.592
	C94.405,245.874,87.859,239.328,79.813,239.328z"/>
<path style="opacity:0.1;enable-background:new    ;" d="M79.813,208.433c-3.019,0-5.966,0.301-8.82,0.862
	c-3.441,14.315-5.276,29.255-5.276,44.626s1.835,30.311,5.276,44.626c2.854,0.561,5.801,0.862,8.82,0.862
	c25.122,0,45.488-20.366,45.488-45.488C125.301,228.798,104.935,208.433,79.813,208.433z"/>
<circle style="fill:#F7C2AD;" cx="432.19" cy="253.92" r="45.49"/>
<path style="opacity:0.2;fill:#E86478;enable-background:new    ;" d="M432.187,283.513c-16.317,0-29.592-13.275-29.592-29.592
	s13.275-29.593,29.592-29.593c16.317,0,29.593,13.275,29.593,29.593S448.504,283.513,432.187,283.513z M432.187,239.328
	c-8.046,0-14.592,6.546-14.592,14.593c0,8.046,6.546,14.592,14.592,14.592c8.046,0,14.593-6.546,14.593-14.592
	C446.78,245.874,440.233,239.328,432.187,239.328z"/>
<path style="opacity:0.1;enable-background:new    ;" d="M432.187,208.433c3.018,0,5.966,0.301,8.82,0.862
	c3.441,14.315,5.276,29.255,5.276,44.626s-1.835,30.311-5.276,44.626c-2.854,0.561-5.801,0.862-8.82,0.862
	c-25.122,0-45.488-20.366-45.488-45.488C386.699,228.798,407.065,208.433,432.187,208.433z"/>
<circle style="fill:#F7C2AD;" cx="256" cy="253.92" r="174.13"/>
<g>
	<path style="fill:#EEEDED;" d="M256,76.973c-97.726,0-176.948,79.222-176.948,176.948S158.274,430.869,256,430.869
		s176.948-79.222,176.948-176.948S353.726,76.973,256,76.973z M256,401.189c-81.334,0-147.269-65.934-147.269-147.269
		c0-81.334,65.934-147.269,147.269-147.269s147.269,65.935,147.269,147.269C403.269,335.255,337.334,401.189,256,401.189z"/>
	<path style="fill:#EEEDED;" d="M363.948,263.33c-7.143-0.237-14.106,0.365-20.799,1.713c-10.256,2.067-20.979-0.54-28.918-7.355
		c-15.648-13.432-35.991-21.549-58.231-21.549s-42.583,8.117-58.231,21.549c-7.939,6.814-18.662,9.422-28.918,7.355
		c-6.693-1.349-13.656-1.95-20.799-1.713c-46.118,1.529-83.884,38.529-86.289,84.609c-2.691,51.581,38.336,94.247,89.328,94.247
		c1.162,0,2.318-0.022,3.469-0.067c8.957-0.344,17.272,4.579,21.254,12.61c14.623,29.494,45.035,49.77,80.186,49.77
		s65.563-20.276,80.186-49.77c3.982-8.031,12.296-12.954,21.253-12.61c1.151,0.044,2.307,0.067,3.469,0.067
		c50.992,0,92.02-42.667,89.328-94.248C447.832,301.858,410.066,264.859,363.948,263.33z"/>
</g>
<path style="opacity:0.1;enable-background:new    ;" d="M373.355,423.302c-1.162,0-2.318-0.022-3.469-0.066
	c-8.957-0.344-17.272,4.579-21.253,12.61c-2.088,4.211-4.508,8.226-7.207,12.029c4.314-3.845,10.016-5.986,16.014-5.755
	c1.151,0.044,2.307,0.067,3.469,0.067c35.285,0,65.794-20.433,80.353-50.11C424.855,411.191,400.52,423.302,373.355,423.302z
	 M268.446,485.616c-35.151,0-65.563-20.277-80.186-49.77c-3.982-8.031-12.296-12.954-21.253-12.61
	c-1.151,0.044-2.307,0.066-3.469,0.066c-50.992,0-92.02-42.667-89.328-94.247c0.641-12.294,3.821-23.93,8.983-34.43
	c-12.457,14.514-20.371,33.032-21.429,53.314c-2.691,51.581,38.336,94.247,89.328,94.247c1.162,0,2.318-0.022,3.469-0.067
	c8.957-0.344,17.272,4.579,21.254,12.61c14.623,29.494,45.035,49.77,80.186,49.77s65.563-20.276,80.186-49.77
	c0.074-0.15,0.161-0.291,0.238-0.439C320.019,473.46,295.656,485.616,268.446,485.616z"/>
<path style="fill:#E86478;" d="M422.689,159.365C422.689,75.492,348.06,7.5,256,7.5S89.311,75.492,89.311,159.365H422.689z"/>
<path style="opacity:0.1;enable-background:new    ;" d="M421.861,144.171H120.902c0-52.469,29.207-98.721,73.615-126.003
	C132.888,40.463,89.311,95.276,89.311,159.365h333.378C422.689,154.237,422.406,149.169,421.861,144.171z"/>
<path style="opacity:0.1;enable-background:new    ;" d="M389.821,138.147H122.179c-14.624,16.888-26.096,36.577-33.523,58.148
	c1.555,0.255,3.149,0.394,4.777,0.394h325.133c1.627,0,3.221-0.139,4.777-0.394C415.917,174.724,404.444,155.036,389.821,138.147z"
	/>
<path style="fill:#EEEDED;" d="M418.566,182.05H93.433c-16.166,0-29.271-13.105-29.271-29.271l0,0
	c0-16.166,13.105-29.271,29.271-29.271h325.133c16.166,0,29.271,13.105,29.271,29.271l0,0
	C447.838,168.944,434.733,182.05,418.566,182.05z"/>
<path style="opacity:0.1;enable-background:new    ;" d="M432.12,168.449H106.987c-16.166,0-29.271-13.105-29.271-29.271
	c0-4.558,1.043-8.873,2.901-12.719c-9.742,4.753-16.454,14.751-16.454,26.32l0,0c0,16.166,13.105,29.271,29.271,29.271h325.133
	c11.608,0,21.637-6.757,26.37-16.552C441.066,167.386,436.717,168.449,432.12,168.449z"/>
<path d="M179.555,201.333c-4.142,0-7.5,3.358-7.5,7.5v12.689c0,4.142,3.358,7.5,7.5,7.5s7.5-3.358,7.5-7.5v-12.689
	C187.055,204.691,183.697,201.333,179.555,201.333z M256,293.831c9.892,0,19.298-4.284,25.809-11.754
	c2.721-3.123,2.396-7.86-0.727-10.582c-3.123-2.721-7.86-2.396-10.582,0.727c-3.66,4.2-8.945,6.609-14.5,6.609
	s-10.84-2.409-14.5-6.609c-2.722-3.122-7.459-3.447-10.582-0.727c-3.123,2.722-3.448,7.459-0.727,10.582
	C236.702,289.547,246.108,293.831,256,293.831z M485.174,253.921c0-29.038-23.482-52.684-52.452-52.974
	c-1.287-4.288-2.73-8.536-4.336-12.739c15.521-4.308,26.951-18.555,26.951-35.429c0-18.514-13.756-33.868-31.583-36.398
	c-0.53-1.733-1.092-3.456-1.687-5.17c17.137-9.553,27.871-27.521,27.871-47.573c0-30.073-24.466-54.539-54.539-54.539
	c-15.914,0-30.787,6.882-41.078,18.694C325.35,9.578,291.609,0,256,0c-28.136,0-56.088,6.28-80.836,18.162
	c-3.734,1.793-5.308,6.273-3.515,10.007s6.272,5.307,10.007,3.515C204.39,20.77,230.098,15,256,15
	c36.552,0,70.923,10.931,99.398,31.61c24.667,17.914,43.02,42.289,52.458,69.397h-14.457c-4.142,0-7.5,3.358-7.5,7.5
	s3.358,7.5,7.5,7.5h24.575c0.008,0,0.016,0.002,0.023,0.002c0.01,0,0.02-0.002,0.03-0.002h0.539
	c12.004,0,21.771,9.767,21.771,21.771c0,12.005-9.767,21.771-21.771,21.771h-0.962c-0.007,0-0.014,0-0.02,0h-33.116
	c-0.008,0-0.016,0-0.024,0H127.563c-0.015,0-0.031,0-0.046,0H93.433c-12.004,0-21.771-9.767-21.771-21.771
	s9.767-21.771,21.771-21.771h0.539c0.01,0,0.02,0.002,0.03,0.002c0.008,0,0.016-0.002,0.023-0.002h262.658
	c4.142,0,7.5-3.358,7.5-7.5s-3.358-7.5-7.5-7.5H104.131c8.848-25.604,25.304-48.29,48.03-66.052
	c3.264-2.55,3.842-7.264,1.291-10.527c-2.55-3.263-7.263-3.842-10.527-1.291c-26.574,20.768-45.392,47.733-54.686,78.244
	c-17.824,2.532-31.576,17.885-31.576,36.397c0,16.875,11.43,31.122,26.951,35.429c-1.606,4.202-3.049,8.451-4.336,12.739
	c-28.971,0.29-52.452,23.936-52.452,52.974c0,24.584,16.991,45.423,39.845,51.31c-7.31,12.947-11.621,27.477-12.396,42.318
	c-1.055,20.224,4.057,39.894,14.784,56.883c1.427,2.259,3.86,3.496,6.349,3.496c1.369,0,2.754-0.375,3.997-1.159
	c3.502-2.212,4.549-6.844,2.337-10.346C72.679,382.07,68.36,365.44,69.253,348.33c0.954-18.286,7.885-35.328,20.044-49.282
	c1.581-1.815,2.195-4.279,1.65-6.624c-2.916-12.553-4.395-25.508-4.395-38.503c0-14.734,1.863-29.167,5.543-43.152
	c0.05-0.177,0.099-0.354,0.136-0.537c1.87-7.014,4.203-13.914,6.988-20.682h16.035c-9.19,20.104-14.022,42.116-14.022,64.371
	c0,6.788,0.451,13.654,1.341,20.405c0.32,2.426,1.803,4.544,3.974,5.673c2.17,1.129,4.756,1.129,6.927-0.002
	c10.906-5.681,22.624-8.767,34.827-9.172c6.428-0.212,12.843,0.315,19.069,1.569c12.565,2.532,25.757-0.837,35.285-9.016
	c14.83-12.729,33.775-19.739,53.346-19.739s38.517,7.01,53.346,19.739c9.527,8.178,22.72,11.551,35.285,9.016
	c6.226-1.254,12.641-1.785,19.068-1.569c12.204,0.405,23.921,3.491,34.828,9.172c1.086,0.566,2.275,0.849,3.465,0.849
	c1.189,0,2.377-0.282,3.462-0.847c2.171-1.129,3.654-3.247,3.974-5.673c0.89-6.751,1.341-13.617,1.341-20.405
	c0-22.255-4.832-44.267-14.022-64.371h16.035c2.785,6.768,5.118,13.667,6.988,20.681c0.038,0.187,0.088,0.368,0.139,0.55
	c3.677,13.982,5.54,28.41,5.54,43.141c0,12.995-1.479,25.949-4.396,38.503c-0.544,2.345,0.069,4.809,1.651,6.624
	c12.158,13.954,19.089,30.996,20.043,49.282c1.188,22.755-6.764,44.352-22.388,60.813c-15.635,16.473-36.749,25.544-59.451,25.544
	c-1.056,0-2.126-0.021-3.181-0.061c-11.901-0.439-22.982,6.128-28.261,16.773C315.521,479.526,287.37,497,256,497
	s-59.52-17.474-73.466-45.602c-5.279-10.646-16.35-17.223-28.262-16.773c-1.054,0.041-2.124,0.061-3.18,0.061
	c-17.007,0-33.316-5.16-47.164-14.922c-3.385-2.386-8.065-1.578-10.451,1.809c-2.387,3.385-1.577,8.064,1.809,10.451
	c16.39,11.555,35.688,17.663,55.807,17.663c1.249,0,2.513-0.024,3.757-0.072c6-0.244,11.587,3.085,14.246,8.447
	C185.59,491.332,218.89,512,256,512s70.41-20.668,86.905-53.939c2.659-5.362,8.259-8.687,14.245-8.447
	c1.246,0.048,2.51,0.072,3.759,0.072c26.857,0,51.835-10.731,70.331-30.218c18.485-19.475,27.892-45.016,26.488-71.92
	c-0.775-14.841-5.086-29.37-12.396-42.318C468.184,299.344,485.174,278.505,485.174,253.921z M416.376,97.161
	c-10.908-23.443-27.949-44.434-49.598-60.784C374.177,28.594,384.451,24.1,395.4,24.1c21.802,0,39.539,17.737,39.539,39.539
	C434.94,77.522,427.84,90.031,416.376,97.161z M41.825,253.921c0-19.457,14.706-35.534,33.585-37.724
	c-2.561,12.313-3.858,24.915-3.858,37.724c0,12.701,1.305,25.368,3.872,37.721C56.563,289.449,41.825,273.308,41.825,253.921z
	 M395.523,262.199c-10.008-3.87-20.504-6.006-31.327-6.366c-7.586-0.251-15.166,0.374-22.529,1.857
	c-8.073,1.627-16.504-0.501-22.552-5.694C301.568,236.935,279.153,228.64,256,228.64s-45.568,8.295-63.116,23.357
	c-6.049,5.192-14.48,7.318-22.552,5.694c-7.362-1.484-14.942-2.109-22.529-1.857c-10.822,0.359-21.318,2.495-31.326,6.365
	c-0.163-2.763-0.245-5.528-0.245-8.278c0-22.43,5.413-44.59,15.686-64.371h248.165c10.273,19.781,15.686,41.941,15.686,64.371
	C395.769,256.671,395.686,259.436,395.523,262.199z M436.577,291.642c2.566-12.353,3.872-25.02,3.872-37.721
	c0-12.809-1.297-25.411-3.858-37.724c18.879,2.19,33.585,18.268,33.585,37.724C470.174,273.308,455.437,289.449,436.577,291.642z
	 M332.445,201.333c-4.142,0-7.5,3.358-7.5,7.5v12.689c0,4.142,3.358,7.5,7.5,7.5s7.5-3.358,7.5-7.5v-12.689
	C339.945,204.691,336.587,201.333,332.445,201.333z"/>
<g>
</g>
<g>
</g>
<g>
</g>
<g>
</g>
<g>
</g>
<g>
</g>
<g>
</g>
<g>
</g>
<g>
</g>
<g>
</g>
<g>
</g>
<g>
</g>
<g>
</g>
<g>
</g>
<g>
</g>
</svg>
