<svg id="Capa_1" enable-background="new 0 0 512.001 512.001" height="512" viewBox="0 0 512.001 512.001" width="512" xmlns="http://www.w3.org/2000/svg"><g><g fill="#7acdf9"><path d="m126.107 477.747c-13.578 0-24.584-11.006-24.584-24.584v-77.241c0-13.578 11.006-24.584 24.584-24.584s24.584 11.006 24.584 24.584v77.241c0 13.577-11.007 24.584-24.584 24.584z"/><path d="m337.781 477.747c-13.578 0-24.584-11.006-24.584-24.584v-77.241c0-13.578 11.006-24.584 24.584-24.584s24.584 11.006 24.584 24.584v77.241c0 13.577-11.007 24.584-24.584 24.584z"/></g><path d="m424.631 482.663h-392.547c-13.578 0-24.584-11.006-24.584-24.584s11.006-24.584 24.584-24.584h392.547c13.963 0 21.162-3.099 24.741-5.699 1.983-1.441 4.728-3.996 5.656-9.513 2.712-16.128-11.634-41.942-32.245-49.076-12.831-4.441-19.631-18.443-15.19-31.273s18.442-19.63 31.273-15.19c20.303 7.028 38.297 21.891 50.67 41.852 12.186 19.663 17.282 42.203 13.98 61.841-2.218 13.191-14.464 56.226-78.885 56.226z" fill="#a2ddfd"/><path d="m438.867 322.745c-12.831-4.44-26.831 2.36-31.272 15.19s2.359 26.832 15.189 31.273c14.245 4.931 25.493 18.783 30.189 32.194 16.851-6.878 29.977-21.052 35.411-38.585-12.325-19.057-29.827-33.257-49.517-40.072z" fill="#7acdf9"/><path d="m283.004 169.393v-116.383c0-13.074-10.599-23.673-23.673-23.673h-150.353c-16.627 0-30.149 13.399-30.315 30.024-1.298 130.13-10.943 153.3-10.943 226.958 98.379 0 160.464 44.603 259.659 44.603h133.733v-16.611c0-28.573-19.164-53.596-46.75-61.041l-84.607-22.837c-27.587-7.444-46.751-32.467-46.751-61.04z" fill="#fbf1cf"/><path d="m121.397 29.338h-12.419c-16.627 0-30.149 13.399-30.315 30.024-1.298 130.13-10.943 153.3-10.943 226.958 24.096 0 46.012 2.679 66.832 6.72-23.384-75.29-18.469-183.448-13.155-263.702z" fill="#f7dfb7"/><path d="m67.72 286.32c37.615 0 69.923 6.523 101.029 14.577.681-4.762 1.041-9.627 1.041-14.577 0-54.439-42.619-98.919-96.312-101.905-2.841 36.155-5.758 61.398-5.758 101.905z" fill="#e7889d"/><path d="m118.728 197.901c-13.447-7.773-28.828-12.573-45.249-13.487-2.842 36.156-5.759 61.398-5.759 101.905 24.098 0 46.012 2.684 66.833 6.726-8.751-28.173-13.538-60.948-15.825-95.144z" fill="#e16e7e"/><path d="m327.379 330.923c-99.195 0-161.28-44.603-259.659-44.603v75.343c0 7.875 6.384 14.26 14.26 14.26h95.997c7.875 0 14.26-6.384 14.26-14.26 0-4.738 4.513-8.177 9.079-6.913 38.878 10.762 78.14 21.172 126.064 21.172h102.55c17.221 0 31.181-13.96 31.181-31.181v-13.818s-70.608 0-133.732 0z" fill="#e0b799"/><path d="m67.72 361.662c0 7.875 6.384 14.259 14.26 14.259h95.997c4.344 0 8.227-1.949 10.843-5.012-26.191-14.61-43.327-42.641-54.268-77.87-20.82-4.041-42.736-6.72-66.831-6.72v75.343z" fill="#d99a84"/><path d="m468.611 330.419v-16.107c0-31.893-21.505-59.971-52.296-68.282l-84.606-22.836c-24.26-6.548-41.204-28.672-41.204-53.801v-116.383c0-17.189-13.984-31.173-31.173-31.173h-120.056c-4.143 0-7.5 3.358-7.5 7.5s3.357 7.5 7.5 7.5h120.056c8.918 0 16.173 7.255 16.173 16.173v7.939h-34.237c-4.143 0-7.5 3.358-7.5 7.5s3.357 7.5 7.5 7.5h34.237v23.655h-34.237c-4.143 0-7.5 3.358-7.5 7.5s3.357 7.5 7.5 7.5h34.237v23.655h-34.237c-4.143 0-7.5 3.358-7.5 7.5s3.357 7.5 7.5 7.5h34.237c.105 14.686-.259 17.347.416 23.655h-34.654c-4.143 0-7.5 3.358-7.5 7.5s3.357 7.5 7.5 7.5h37.939c7.403 21.943 25.349 39.487 48.594 45.761l84.606 22.836c24.261 6.548 41.204 28.672 41.204 53.8v9.111h-126.231c-57.077 0-102.064-15.269-150.471-28.137 4.799-58.734-37.583-110.411-95.383-117.666 2.146-28.634 4.097-63.941 4.638-118.183.106-10.702 7.777-20.014 18.24-22.142 4.059-.826 6.68-4.785 5.854-8.844-.825-4.059-4.778-6.682-8.845-5.855-17.351 3.529-30.072 18.959-30.25 36.691-1.289 129.526-10.942 153.125-10.942 227.034v75.343c0 11.998 9.762 21.759 21.76 21.759h12.043v42.574h-61.939c-17.691 0-32.084 14.392-32.084 32.084 0 17.691 14.393 32.084 32.084 32.084h388.298c4.143 0 7.5-3.358 7.5-7.5s-3.357-7.5-7.5-7.5h-388.298c-9.42 0-17.084-7.664-17.084-17.084s7.664-17.084 17.084-17.084h392.547c17.36 0 34.914-4.35 37.794-21.468 2.127-12.653-3.635-28.594-13.993-40.826 10.573-5.783 18.156-16.363 19.824-28.791 20.08 19.678 32.271 49.08 27.863 75.284-1.793 10.669-9.533 36.529-42.584 46.213-3.976 1.165-6.254 5.331-5.089 9.306 1.174 4.009 5.367 6.245 9.306 5.088 42.346-12.407 51.395-47.623 53.16-58.12 5.693-33.852-11.311-73.666-42.301-97.263zm-388.264-137.827c48.349 6.436 84.513 49.16 81.786 98.901-26.769-6.597-55.057-11.85-86.878-12.579.306-32.984 2.613-56.024 5.092-86.322zm62.843 233.404h-34.168v-42.574h34.168zm162.507 0h-147.507v-42.574h19.786c11.855 0 21.524-9.528 21.756-21.328 30.872 8.546 65.259 18.018 105.965 20.626zm49.167 0h-34.167v-42.648c6.738.134 7.678.049 34.167.074zm92.768-8.956c-.485 2.89-1.632 3.936-2.668 4.688-1.767 1.283-7.283 4.268-20.333 4.268h-54.767v-42.574c63.188-.023 60.068.055 62.189-.061 11.163 9.795 17.057 24.891 15.579 33.679zm5.979-72.299c0 13.058-10.623 23.681-23.681 23.681h-102.551c-48.561 0-88.673-11.103-124.063-20.9-9.341-2.586-18.58 4.432-18.58 14.141 0 3.727-3.032 6.759-6.76 6.759h-95.997c-3.728 0-6.76-3.032-6.76-6.759v-67.749c92.756 2.155 154.154 44.51 252.159 44.51h126.232v6.317z"/></g></svg>