<svg id="Capa_1" enable-background="new 0 0 512 512" height="512" viewBox="0 0 512 512" width="512" xmlns="http://www.w3.org/2000/svg"><g><g><g><path d="m123.602 88v-14.233l-15.963-23.944c-7.34-11.01.553-25.756 13.784-25.756h14.745c2.209 0 4-1.791 4-4v-4.283c0-4.575 3.709-8.283 8.283-8.283h14.611c12.315 0 20.325 12.96 14.818 23.975l-21.146 42.291v14.233z" fill="#be694f"/><path d="m218.728 140.555c-15.178-20.638-37.386-33.655-62.128-33.655" fill="#934d36"/><path d="m78.264 304.36-37.63-98.06c0-54.897 37.086-99.4 82.833-99.4v-13.233h33.133v13.233c45.748 0 82.833 44.503 82.833 99.4v98.06z" fill="#be694f"/><path d="m163.063 7.5h-14.611c-1.233 0-2.398.277-3.45.76 9.337 2.916 14.548 13.776 9.828 23.216l-21.146 42.291v14.233h23.05v-14.233l21.146-42.291c5.508-11.016-2.502-23.976-14.817-23.976z" fill="#934d36"/><path d="m156.6 106.9v-13.233h-23v13.233c45.748 0 82.833 44.503 82.833 99.4v98.06h23v-98.06c.001-54.897-37.085-99.4-82.833-99.4z" fill="#934d36"/><path d="m123.602 106.9c-9.15 0-16.567-7.417-16.567-16.567 0-9.149 7.417-16.567 16.567-16.567h33.133c9.15 0 16.567 7.417 16.567 16.567s-7.417 16.567-16.567 16.567z" fill="#ffd45d"/><path d="m156.735 73.767h-23c9.15 0 16.567 7.417 16.567 16.567s-7.417 16.567-16.567 16.567h23c9.15 0 16.567-7.417 16.567-16.567-.001-9.15-7.418-16.567-16.567-16.567z" fill="#ffb229"/></g><g><g><path d="m438.234 289.133v-187.533h-182.234v187.533h74.554l16.564-6.15 16.569 6.15z" fill="#e0343f"/><path d="m256 101.6v28.3h159.234v159.233h23v-187.533z" fill="#b53a4c"/><g><path d="m322.267 101.6h49.7v187.533h-49.7z" fill="#ffd45d" transform="matrix(-1 0 0 -1 694.234 390.734)"/><path d="m322.267 101.6v28.3h26.7v159.233h23v-187.533z" fill="#ffb229"/></g></g><g><path d="m347.117 82.05v-8.283c0-18.299-14.834-33.133-33.133-33.133h-16.563c-9.149 0-16.567 7.417-16.567 16.567s7.417 16.567 16.567 16.567v8.283h49.696z" fill="#ffd45d"/><g><path d="m347.124 82.05v-8.283c0-18.299 14.834-33.133 33.133-33.133h16.563c9.149 0 16.567 7.417 16.567 16.567s-7.417 16.567-16.567 16.567v8.283h-49.696z" fill="#ffd45d"/></g><path d="m396.821 40.633h-16.563c-1.293 0-2.567.082-3.821.226 7.904 1.257 13.951 8.083 13.951 16.34 0 9.15-7.417 16.567-16.567 16.567v8.283h23v-8.283c9.149 0 16.567-7.417 16.567-16.567-.001-9.148-7.418-16.566-16.567-16.566z" fill="#ffb229"/></g><g><path d="m255.703 106.9h58.279l33.131-5.3 33.142 5.3h58.261c4.418 0 8-3.582 8-8v-17.133c0-4.418-3.582-8-8-8h-58.266l-33.137 8.283-33.131-8.283h-58.279c-4.418 0-8 3.582-8 8v17.133c0 4.418 3.582 8 8 8z" fill="#e0343f"/><path d="m438.516 73.767h-22.996c4.418 0 8 3.582 8 8v17.133c0 4.418-3.582 8-8 8h22.996c4.418 0 8-3.582 8-8v-17.133c0-4.418-3.582-8-8-8z" fill="#b53a4c"/><g><path d="m313.982 73.767h66.27v33.133h-66.27z" fill="#ffd45d" transform="matrix(-1 0 0 -1 694.234 180.667)"/><path d="m357.239 73.767h23.013v33.133h-23.013z" fill="#ffb229"/></g></g></g><g><path d="m189.734 201h149.1v129.55h-149.1z" fill="#49c470"/><path d="m189.734 201v28.3h126.1v101.25h23v-129.55z" fill="#38ad63"/><path d="m247.717 201h33.133v129.55h-33.133z" fill="#ffd45d" transform="matrix(-1 0 0 -1 528.567 531.55)"/><path d="m247.717 201v28.3h10.133v101.25h23v-129.55z" fill="#ffb229"/><path d="m264.287 181.45v-8.283c0-18.299 14.834-33.133 33.133-33.133h8.28c9.149 0 16.567 7.417 16.567 16.567 0 9.149-7.417 16.567-16.567 16.567v8.283h-41.413z" fill="#ffd45d"/><path d="m264.28 181.45v-8.283c0-18.299-14.834-33.133-33.133-33.133h-8.28c-9.15 0-16.567 7.417-16.567 16.567 0 9.149 7.417 16.567 16.567 16.567v8.283h41.413z" fill="#ffd45d"/><path d="m305.7 140.033h-8.28c-3.002 0-5.908.406-8.674 1.155 6.155 2.417 10.52 8.399 10.52 15.412 0 9.149-7.417 16.567-16.567 16.567v8.283h23v-8.283c9.149 0 16.567-7.417 16.567-16.567.001-9.149-7.416-16.567-16.566-16.567z" fill="#ffb229"/><path d="m189.45 206.3h49.983l24.846-5.3 24.853 5.3h49.984c4.418 0 8-3.582 8-8v-17.133c0-4.418-3.582-8-8-8h-49.983l-24.847 8.283-24.854-8.283h-49.982c-4.418 0-8 3.582-8 8v17.133c0 4.418 3.582 8 8 8z" fill="#49c470"/><path d="m239.434 173.167h49.7v33.133h-49.7z" fill="#ffd45d" transform="matrix(-1 0 0 -1 528.567 379.467)"/><path d="m339.117 173.167h-22.996c4.418 0 8 3.582 8 8v17.133c0 4.418-3.582 8-8 8h22.996c4.418 0 8-3.582 8-8v-17.133c0-4.418-3.582-8-8-8z" fill="#38ad63"/><path d="m266.121 173.167h23.013v33.133h-23.013z" fill="#ffb229"/></g><g><g><g><path d="m65.484 504.5h41.416l33.133-5 33.134 5h132.533l33.133-5 33.134 5h74.549c31.972 0 57.983-26.011 57.983-57.983 0-31.973-26.011-57.983-57.983-57.983-9.149 0-16.567 7.417-16.567 16.567s7.417 16.567 16.567 16.567c13.702 0 24.85 11.148 24.85 24.85s-11.148 24.85-24.85 24.85h-74.516l-33.168 6-33.133-6h-132.423l-33.242 5-33.133-5h-41.417c-13.702 0-24.85-11.148-24.85-24.85 0-9.15-7.417-16.567-16.567-16.567s-16.567 7.416-16.567 16.566c0 31.972 26.011 57.983 57.984 57.983z" fill="#f6fafd"/></g></g><path d="m322.267 415h33.133v63.033h-33.133z" fill="#ccf" transform="matrix(-1 0 0 -1 677.668 893.034)"/><path d="m305.7 471.367h66.267v33.133h-66.267z" fill="#ffd45d"/><path d="m123.467 415h33.133v63.033h-33.133z" fill="#ccf" transform="matrix(-1 0 0 -1 280.068 893.034)"/><path d="m106.9 471.367h66.267v33.133h-66.267z" fill="#ffd45d"/><path d="m40.634 228v11.433l13.555 49.7 16.729 33.134 1.344 33.133 11.414 41.851c3.931 14.415 17.024 24.415 31.966 24.415h247.023c15.204 0 28.457-10.348 32.144-25.097l26.859-107.436v-15.8h-54.333l-38.667 63.333h-129.334l-55.667-108.666z" fill="#e0343f"/><path d="m398.667 273.333v15.8l-26.859 107.436c-3.688 14.75-16.94 25.097-32.144 25.097h23c15.204 0 28.457-10.348 32.144-25.097l26.859-107.436v-15.8z" fill="#b53a4c"/><path d="m348.967 471.367h23v33.133h-23z" fill="#ffb229"/><path d="m150.167 471.367h23v33.133h-23z" fill="#ffb229"/><g><g><path d="m446.517 388.533c-2.862 0-5.554.726-7.903 2.004 24.678 6.658 42.895 29.226 42.895 55.98 0 31.973-26.011 57.983-57.983 57.983h22.992c31.972 0 57.983-26.011 57.983-57.983-.001-31.973-26.012-57.984-57.984-57.984z" fill="#ccf"/></g></g><path d="m24.501 206.3h94.61c29.587 0 55.589 19.613 63.717 48.062l15.968 55.889c2.032 7.112 8.533 12.016 15.929 12.016h95.347c6.275 0 12.012-3.545 14.818-9.158l19.397-38.793c5.612-11.225 17.085-18.316 29.635-18.316h80.224c18.145 0 33.417 14.312 33.781 32.453.373 18.61-14.601 33.813-33.127 33.813-17.098 0-31.172-12.952-32.945-29.58-.216-2.024-1.932-3.554-3.967-3.554h-33.727c-6.275 0-12.011 3.545-14.818 9.158l-19.397 38.793c-5.613 11.225-17.085 18.316-29.635 18.316h-118.081c-14.793 0-27.794-9.807-31.859-24.031l-19.401-67.905c-4.064-14.224-17.065-24.031-31.858-24.031h-95.045c-9.338 0-16.871-7.725-16.557-17.133.3-8.998 7.987-15.999 16.991-15.999z" fill="#f6fafd"/><path d="m54.188 289.133h30.269c7.471 0 14.017 5 15.983 12.208l9.036 33.133c2.874 10.539-5.059 20.926-15.983 20.926h-21.232z" fill="#ffd45d"/><path d="m109.477 334.475-9.036-33.133c-1.966-7.208-8.512-12.208-15.983-12.208h-23c7.471 0 14.017 5 15.983 12.208l9.036 33.133c2.719 9.969-4.236 19.797-14.242 20.83l.026.095h21.233c10.923 0 18.857-10.387 15.983-20.925z" fill="#ffb229"/><path d="m454.146 256h-23c18.145 0 33.417 14.312 33.781 32.453.291 14.543-8.79 27.006-21.615 31.758 3.58 1.324 7.448 2.055 11.488 2.055 18.525 0 33.5-15.203 33.127-33.813-.364-18.141-15.636-32.453-33.781-32.453z" fill="#ccf"/></g></g><path d="m446.517 381.033c-13.271 0-24.066 10.796-24.066 24.067 0 13.27 10.796 24.066 24.066 24.066 9.567 0 17.35 7.783 17.35 17.35s-7.783 17.35-17.35 17.35h-83.617v-34.705c18.58-.107 34.672-12.728 39.184-30.773l20.98-83.919c7.452 9.316 18.907 15.298 31.737 15.298 11.064 0 21.408-4.368 29.125-12.3 7.715-7.929 11.796-18.395 11.492-29.47-.597-21.778-19.127-39.497-41.307-39.497h-8.377v-135.894c4.919-2.601 8.283-7.765 8.283-13.706v-17.133c0-8.547-6.953-15.5-15.5-15.5h-19.412c1.143-2.8 1.779-5.86 1.779-9.066 0-13.27-10.796-24.067-24.066-24.067h-16.563c-13.666 0-25.768 6.788-33.137 17.161-7.37-10.374-19.472-17.161-33.137-17.161h-16.563c-13.271 0-24.066 10.796-24.066 24.067 0 3.207.635 6.266 1.779 9.066h-19.412c-8.547 0-15.5 6.953-15.5 15.5v17.133c0 5.941 3.364 11.105 8.283 13.706v23.828c-5.266-2.498-11.148-3.901-17.354-3.901h-8.28c-.283 0-.563.012-.844.021-12.113-15.045-27.576-25.474-44.435-30.23 2.04-3.533 3.214-7.626 3.214-11.991 0-9.372-5.389-17.504-13.227-21.477l17.014-34.027c3.758-7.515 3.364-16.268-1.053-23.416-4.419-7.146-12.072-11.413-20.474-11.413h-14.611c-8.703 0-15.783 7.081-15.783 15.783v.784h-11.245c-8.893 0-17.023 4.871-21.219 12.711s-3.738 17.307 1.195 24.705l10.298 15.448c-7.257 4.149-12.162 11.962-12.162 20.903 0 4.336 1.158 8.403 3.173 11.921-9.606 2.669-18.806 7.177-27.229 13.43-3.326 2.469-4.021 7.167-1.551 10.493 1.472 1.982 3.735 3.03 6.028 3.03 1.554 0 3.121-.481 4.465-1.479 10.083-7.486 21.463-11.932 33.213-13.043-1.071 2.723-1.666 5.683-1.666 8.781 0 4.142 3.358 7.5 7.5 7.5s7.5-3.358 7.5-7.5c0-5 4.067-9.067 9.066-9.067s9.067 4.067 9.067 9.067c0 4.142 3.358 7.5 7.5 7.5s7.5-3.358 7.5-7.5c0-3.101-.596-6.063-1.668-8.787 16.646 1.589 32.434 9.935 44.807 23.64-5.16 4.418-8.439 10.971-8.439 18.281 0 3.206.635 6.266 1.779 9.066h-11.129c-8.547 0-15.5 6.953-15.5 15.5v17.133c0 5.941 3.364 11.105 8.283 13.706v22.468c-13.146-21.661-36.984-35.675-63.123-35.675h-70.717c1.273-18.856 7.31-36.903 17.334-51.478 2.347-3.413 1.483-8.083-1.93-10.43-3.413-2.348-8.083-1.483-10.43 1.93-11.715 17.035-18.686 38.094-19.993 59.978h-8.842c-13.138 0-23.903 10.065-24.507 22.915-.313 6.649 2.04 12.958 6.624 17.763 4.52 4.738 10.868 7.456 17.416 7.456h10.838l41.534 152.291c4.808 17.629 20.928 29.942 39.202 29.942h.326v34.7h-50.483c-9.567 0-17.35-7.783-17.35-17.35 0-13.27-10.796-24.066-24.066-24.066s-24.068 10.797-24.068 24.067c0 36.108 29.376 65.483 65.484 65.483h381.033c36.107 0 65.483-29.375 65.483-65.483s-29.376-65.484-65.483-65.484zm-322.916-281.633c-4.999 0-9.066-4.067-9.066-9.066 0-4.998 4.065-9.064 9.061-9.067.004 0 .008.001.012.001.005 0 .009-.001.014-.001h33.081c.008 0 .017.002.026.002.005 0 .01-.001.015-.001 4.995.005 9.058 4.07 9.058 9.066 0 4.999-4.067 9.066-9.067 9.066zm-10.171-63.044c1.604-2.999 4.593-4.789 7.994-4.789h11.245v9.066c0 4.142 3.358 7.5 7.5 7.5s7.5-3.358 7.5-7.5v-24.85c0-.432.352-.783.783-.783h14.611c3.212 0 6.023 1.567 7.712 4.3s1.833 5.948.397 8.822l-19.072 38.145h-24.485l-13.736-20.604c-1.886-2.83-2.054-6.309-.449-9.307zm52.237 442.511v18.133h-51.267v-18.133zm15 0h117.534v18.133h-117.534zm132.534 0h51.267v18.133h-51.267zm16.566-15v-34.7h18.133v34.7zm49.7-215.367v-134.1h51.267v134.1zm-164.741 66.267c-4.027 0-7.612-2.704-8.718-6.576l-8.774-30.709v-63.682h42.983v100.967zm32.207-134.1h34.7v18.133h-.783-33.133-.784zm74.551-99.4h51.267v18.133h-.783-49.7-.783v-18.133zm18.133 117.033c0 .276-.224.5-.5.5h-.283-42.2v-18.133h42.483c.276 0 .5.224.5.5zm-33.916-32.633h-32.791c3.215-10.486 12.986-18.133 24.511-18.133h8.28c4.999 0 9.066 4.067 9.066 9.067 0 4.998-4.067 9.066-9.066 9.066zm9.066-51.267v19.912c-2.8-1.143-5.86-1.779-9.066-1.779h-8.28c-13.665 0-25.767 6.788-33.137 17.161-.257-.362-.515-.722-.783-1.075v-34.219zm-59.55 99.4h18.133v100.967h-18.133zm33.133 0h42.983v69.652l-13.151 26.303c-1.546 3.091-4.653 5.012-8.11 5.012h-21.722zm57.984-1.794c4.919-2.601 8.283-7.765 8.283-13.706v-17.133c0-8.547-6.953-15.5-15.5-15.5h-9.35v-51.267h34.7v135.219c-6.819 1.613-13.047 4.94-18.133 9.66zm92.683-130.239v17.133c0 .276-.224.5-.5.5h-.283-50.484v-18.133h50.767c.276 0 .5.224.5.5zm-58.763-33.634h16.563c4.999 0 9.066 4.067 9.066 9.067 0 4.999-4.067 9.066-9.066 9.066h-41.075c3.215-10.485 12.986-18.133 24.512-18.133zm-91.904 9.067c0-4.999 4.067-9.067 9.066-9.067h16.563c11.526 0 21.296 7.647 24.511 18.133h-41.074c-4.998.001-9.066-4.067-9.066-9.066zm-33.133 24.567c0-.276.224-.5.5-.5h50.767v18.133h-50.484-.283c-.276 0-.5-.224-.5-.5zm-41.417 74.833c0-4.999 4.067-9.067 9.067-9.067h8.28c11.526 0 21.296 7.647 24.511 18.133h-32.791c-4.999.001-9.067-4.067-9.067-9.066zm-24.849 24.567c0-.276.224-.5.5-.5h42.483v18.133h-42.2-.283c-.276 0-.5-.224-.5-.5zm-171.446 47.957c-1.726-1.81-2.612-4.19-2.494-6.705.224-4.752 4.496-8.619 9.524-8.619h94.577c26.1 0 49.336 17.527 56.505 42.623l15.968 55.889c2.936 10.277 12.453 17.455 23.141 17.455h32.991 33.133 29.222c9.175 0 17.423-5.098 21.526-13.304l19.397-38.793c4.37-8.74 13.155-14.17 22.927-14.17h80.189c14.132 0 25.936 11.173 26.313 24.908.192 6.992-2.383 13.597-7.249 18.599-4.869 5.004-11.395 7.76-18.374 7.76-11.526 0-21.296-7.647-24.511-18.133h24.51c4.142 0 7.5-3.358 7.5-7.5s-3.358-7.5-7.5-7.5h-70.639c-9.175 0-17.423 5.098-21.526 13.304l-19.396 38.794c-4.371 8.74-13.156 14.169-22.927 14.169h-118.082c-11.384 0-21.52-7.645-24.647-18.591l-19.401-67.905c-4.957-17.352-21.024-29.471-39.07-29.471h-95.045c-2.503-.001-4.833-.999-6.562-2.81zm46.503 67.509h20.45c4.077 0 7.674 2.748 8.747 6.681l9.036 33.134c.75 2.749.188 5.624-1.542 7.888-1.729 2.265-4.356 3.563-7.205 3.563h-15.504zm26.903 98.645-8.831-32.378h11.413c7.564 0 14.535-3.448 19.126-9.458 4.591-6.011 6.083-13.643 4.092-20.94l-9.036-33.134c-2.848-10.441-12.396-17.734-23.219-17.734h-24.539l-9.464-34.7h68.659c11.384 0 21.52 7.645 24.647 18.592l19.401 67.905c4.958 17.352 21.023 29.47 39.07 29.47h118.081c15.49 0 29.416-8.606 36.343-22.461l19.397-38.793c1.546-3.091 4.653-5.012 8.11-5.012h27.9l-24.529 98.117c-2.858 11.432-13.084 19.416-24.868 19.416h-139.527c-4.142 0-7.5 3.358-7.5 7.5s3.358 7.5 7.5 7.5h91.63v34.7h-150.667v-34.7h29.037c4.142 0 7.5-3.358 7.5-7.5s-3.358-7.5-7.5-7.5h-77.496c-11.528-.001-21.697-7.768-24.73-18.89zm40.056 33.889h18.133v34.7h-18.133zm-115.967 17.35c0-4.999 4.067-9.066 9.067-9.066s9.066 4.067 9.066 9.066c0 17.838 14.512 32.35 32.35 32.35h33.917v18.133h-33.916c-27.837 0-50.484-22.647-50.484-50.483zm431.517 50.483h-67.05v-18.133h67.05c17.838 0 32.35-14.512 32.35-32.35s-14.512-32.35-32.35-32.35c-5 0-9.066-4.067-9.066-9.066 0-5 4.067-9.067 9.066-9.067 27.836 0 50.483 22.647 50.483 50.483s-22.647 50.483-50.483 50.483z" fill="#0c0a0b"/></g></svg>