<svg id="Filled" height="512" viewBox="0 0 512 512" width="512" xmlns="http://www.w3.org/2000/svg"><path d="m24 488c0-22.091 9.909-40 32-40s32 17.909 32 40z" fill="#e9eef2"/><path d="m424 488c0-22.091 9.909-40 32-40s32 17.909 32 40z" fill="#e9eef2"/><path d="m159.97 488h-95.97s0-48 64-48h32s-.06 48-.03 48z" fill="#e1e3e6"/><path d="m352.03 488h95.97s0-48-64-48h-32s.06 48 .03 48z" fill="#e1e3e6"/><path d="m130.454 468.382a135.664 135.664 0 0 1 -10.44-54.342c1.037-73.654 61.347-133.518 135.006-134.04a136.078 136.078 0 0 1 126.644 188.1 32.121 32.121 0 0 1 -29.632 19.9h-192.062a31.976 31.976 0 0 1 -29.516-19.618z" fill="#e9eef2"/><circle cx="256" cy="216" fill="#e9eef2" r="96"/><path d="m256 216a15.942 15.942 0 0 0 -5.128.855l-50.872 5.83a9.443 9.443 0 0 0 0 18.63l50.872 5.83a16 16 0 1 0 5.128-31.145z" fill="#f7b030"/><rect fill="#eb423f" height="48" rx="16" width="224" x="144" y="280"/><path d="m280 280h48a0 0 0 0 1 0 0v96a16 16 0 0 1 -16 16h-16a16 16 0 0 1 -16-16v-96a0 0 0 0 1 0 0z" fill="#d13330"/><rect fill="#35a872" height="32" rx="16" width="208" x="152" y="120"/><path d="m216 24h80a32 32 0 0 1 32 32v64a0 0 0 0 1 0 0h-144a0 0 0 0 1 0 0v-64a32 32 0 0 1 32-32z" fill="#35a872"/><path d="m184 88h144v32h-144z" fill="#eb423f"/><circle cx="216" cy="376" fill="#f7b030" r="16"/><circle cx="216" cy="440" fill="#f7b030" r="16"/><g fill="#e9eef2"><circle cx="448" cy="96" r="24"/><circle cx="408" cy="192" r="16"/><circle cx="88" cy="128" r="16"/></g><circle cx="288" cy="184" r="8"/><circle cx="224" cy="184" r="8"/><path d="m216 352a24 24 0 1 0 24 24 24.027 24.027 0 0 0 -24-24zm0 32a8 8 0 1 1 8-8 8.009 8.009 0 0 1 -8 8z"/><path d="m216 416a24 24 0 1 0 24 24 24.027 24.027 0 0 0 -24-24zm0 32a8 8 0 1 1 8-8 8.009 8.009 0 0 1 -8 8z"/><path d="m486.766 455.025c-7.115-9.825-17.753-15.025-30.766-15.025a38.18 38.18 0 0 0 -21.832 6.3c-9.291-7.084-21.074-11.564-35.155-13.373a145.885 145.885 0 0 0 .987-16.927 144.191 144.191 0 0 0 -22.429-77.179l26.487-19.865c.12.068.243.131.367.193v.006l32 16v-.006a7.993 7.993 0 1 0 7.15-14.3v-.006l-25.223-12.612 17.152-12.863 30.433-7.609v-.007a7.993 7.993 0 1 0 -3.876-15.508v-.007l-22.061 5.517v-21.754a8 8 0 0 0 -16 0v28l-49.947 37.46a23.854 23.854 0 0 0 1.947-9.46v-16a24.027 24.027 0 0 0 -24-24h-8.386a103.884 103.884 0 0 0 0-112h.386a24 24 0 0 0 0-48h-8v-56a40.045 40.045 0 0 0 -40-40h-80a40.045 40.045 0 0 0 -40 40v56h-8a24 24 0 0 0 0 48h.386a103.884 103.884 0 0 0 0 112h-8.386a24.027 24.027 0 0 0 -24 24v16a23.854 23.854 0 0 0 1.947 9.46l-49.947-37.46v-28a8 8 0 0 0 -16 0v21.754l-22.06-5.515v.007a7.993 7.993 0 1 0 -3.878 15.508v.007l30.433 7.609 17.152 12.863-25.225 12.612v.006a7.993 7.993 0 1 0 7.15 14.3v.006l32-16v-.006c.124-.062.247-.125.367-.193l26.592 19.942a143.737 143.737 0 0 0 -22.516 75.029 146.013 146.013 0 0 0 .967 19c-14.079 1.81-25.86 6.289-35.15 13.373a38.18 38.18 0 0 0 -21.832-6.302c-13.013 0-23.651 5.2-30.766 15.025-6.041 8.349-9.234 19.751-9.234 32.975a8 8 0 0 0 8 8h464a8 8 0 0 0 8-8c0-13.224-3.193-24.626-9.234-32.975zm-90.5-6.318c10.9 1.312 19.927 4.464 26.948 9.41a53.938 53.938 0 0 0 -6.794 21.883h-32.409a40.679 40.679 0 0 0 5.042-8.834 143.033 143.033 0 0 0 7.213-22.459zm-36.266-152.707v16a8.009 8.009 0 0 1 -8 8h-16v-32h16a8.009 8.009 0 0 1 8 8zm-72-8h32v88a8.009 8.009 0 0 1 -8 8h-16a8.009 8.009 0 0 1 -8-8zm-72-256h80a24.027 24.027 0 0 1 24 24v24h-128v-24a24.027 24.027 0 0 1 24-24zm-24 64h128v16h-128zm-32 40a8.009 8.009 0 0 1 8-8h176a8 8 0 0 1 0 16h-176a8.009 8.009 0 0 1 -8-8zm8 80a87.882 87.882 0 0 1 20.139-56h135.733a87.947 87.947 0 0 1 -.011 112h-135.733a87.833 87.833 0 0 1 -20.128-56zm-16 80a8.009 8.009 0 0 1 8-8h112v32h-112a8.009 8.009 0 0 1 -8-8zm-28.928 175.465a40.016 40.016 0 0 0 4.9 8.535h-32.392a53.938 53.938 0 0 0 -6.794-21.883c7.021-4.946 16.047-8.1 26.948-9.41a143.013 143.013 0 0 0 7.338 22.758zm-90.584 8.535c2.812-21.481 17.026-24 23.512-24s20.7 2.519 23.512 24zm319.542 0h-192.06a23.907 23.907 0 0 1 -22.134-14.7 127.739 127.739 0 0 1 18.637-129.559 24.141 24.141 0 0 0 3.527.259h112v40a24.028 24.028 0 0 0 24 24h16a24.028 24.028 0 0 0 24-24v-40h16a24.086 24.086 0 0 0 3.7-.285 128.18 128.18 0 0 1 18.579 129.317 24.072 24.072 0 0 1 -22.247 14.968zm80.458 0c2.811-21.481 17.026-24 23.512-24s20.7 2.519 23.512 24z"/><path d="m448 128a32 32 0 1 0 -32-32 32.036 32.036 0 0 0 32 32zm0-48a16 16 0 1 1 -16 16 16.019 16.019 0 0 1 16-16z"/><path d="m408 216a24 24 0 1 0 -24-24 24.027 24.027 0 0 0 24 24zm0-32a8 8 0 1 1 -8 8 8.009 8.009 0 0 1 8-8z"/><path d="m88 152a24 24 0 1 0 -24-24 24.027 24.027 0 0 0 24 24zm0-32a8 8 0 1 1 -8 8 8.009 8.009 0 0 1 8-8z"/><path d="m256 256c-.73 0-1.952 0-55.593-5.738a18.367 18.367 0 0 1 0-36.524c53.641-5.738 54.863-5.738 55.593-5.738a24 24 0 0 1 0 48zm.179-32c-2.646.2-22.73 2.293-54.071 5.645a2.367 2.367 0 0 0 0 4.706c31.341 3.352 51.425 5.449 54.071 5.645a8 8 0 0 0 0-16z"/></svg>