<svg id="Capa_1" enable-background="new 0 0 512.031 512.031" height="512" viewBox="0 0 512.031 512.031" width="512" xmlns="http://www.w3.org/2000/svg"><g><g><g><g><path d="m431.569 225.127c-3.324-13.585-6.643-27.172-9.968-40.757l-7.481-8.395c-30.673 9.751-50.672 22.406-57.571 33.192-14.694 22.972-31.791 57.646-35.487 100.705-.785 9.146 5.923 17.228 15.061 18.099l.127.012c8.218.783 15.754-4.56 17.786-12.562 5.469-21.54 18.599-62.005 42.831-77.442 9.885-6.295 22.213-10.31 34.702-12.852z" fill="#9d552e"/></g><g><path d="m412.543 147.507c-30.422-4.331-53.091-2.049-64.409 4.334-26.837 15.134-62.273 40.672-88.782 81.678-5.631 8.71-3.221 20.33 5.436 26.041l.12.08c7.785 5.137 18.137 3.799 24.405-3.108 16.873-18.595 51.421-52.013 83.781-54.573 17.713-1.402 37.64 3.616 55.307 10.216-5.27-21.56-10.54-43.12-15.858-64.668z" fill="#c76d3d"/><path d="m428.4 212.173c-12.21-4.56-25.48-8.36-38.36-9.81-12.68-14.1-25.14-24.03-36.14-28.65-5.2-2.18-11.93-3.29-20.01-3.29-5.28 0-10.76.47-16.22 1.26 10.71-8.02 21.11-14.56 30.46-19.84 11.32-6.38 33.99-8.67 64.41-4.34 5.32 21.55 10.59 43.11 15.86 64.67z" fill="#aa5e33"/></g><path d="m404.883 116.681c-17.707-10.597-32.547-15.583-42.437-15.221-29.598 1.083-71.131 7.257-111.865 30.58-8.652 4.954-11.722 15.941-6.849 24.639l.068.121c4.382 7.822 13.813 11.248 22.214 8.115 22.616-8.435 66.866-21.731 95.633-9.638 24.368 10.244 46.499 35.959 60.09 54.513 1.677-1.42 3.361-2.833 5.041-4.249-7.242-29.634-14.494-59.265-21.895-88.86z" fill="#d67f4f"/><path d="m426.78 205.543c-1.68 1.41-3.37 2.83-5.04 4.25-7.77-10.62-18.34-23.57-30.52-34.63-5.15-15.45-11.5-27.74-18.67-35.92-11.45-13.04-39.18-23.1-74.91-27.31 24.12-7.24 46.7-9.81 64.81-10.47 9.89-.36 24.73 4.62 42.43 15.22 7.4 29.59 14.66 59.22 21.9 88.86z" fill="#c76d3d"/><path d="m386.881 307.112s-6.045 70.311-54.573 152.147h163.53c34.675-222.16-43.335-366.08-82.853-383.54-28.379-12.538-70.334-25.748-119.391-22.435-10.42.703-18.345 9.648-17.739 20.074l.008.145c.545 9.376 7.86 16.924 17.21 17.82 25.169 2.413 72.946 10.159 94.507 34.728 19.151 21.824 28.197 58.555 32.234 82.265 2.121 12.453-8.24 23.532-20.791 22.107-21.784-2.473-55.534-11.068-88.241-38.571-7.789-6.55-18.643-8.043-27.814-3.63l-.998.48c-14.156 6.812-18.879 24.598-10.06 37.599 18.75 27.64 55.915 69.249 114.971 80.811z" fill="#e09977"/><path d="m495.84 459.263h-37.07c34.67-222.16-43.34-366.08-82.86-383.54-21.4-9.46-50.52-19.3-84.59-22.15.74-.14 1.5-.24 2.27-.29 49.06-3.31 91.02 9.9 119.39 22.44 39.52 17.46 117.53 161.38 82.86 383.54z" fill="#da875d"/></g><g><g><circle cx="93.493" cy="144.236" fill="#f2fbff" r="85.993"/><path d="m179.488 144.237c0 47.493-38.507 85.99-86 85.99-6.914 0-13.639-.817-20.085-2.371 37.799-9.036 65.895-43.04 65.895-83.619s-28.096-74.583-65.895-83.619c6.446-1.554 13.171-2.371 20.085-2.371 47.493 0 86 38.496 86 85.99z" fill="#dff6fd"/></g></g></g><g><path d="m489.408 188.538c-9.49-31.119-21.8-59.055-35.597-80.786-12.629-19.893-26.052-33.705-37.794-38.894-8.61-3.805-17.443-7.215-26.253-10.136-3.935-1.305-8.176.827-9.479 4.759s.827 8.176 4.759 9.479c8.356 2.771 16.738 6.006 24.912 9.618 8.927 3.944 20.296 16.05 31.193 33.212 13.084 20.608 24.811 47.277 33.914 77.123 16.524 54.181 32.256 144.17 13.368 265.188-.639 4.092 2.161 7.928 6.253 8.566.392.062.781.091 1.166.091 3.632 0 6.823-2.644 7.401-6.345 19.325-123.825 3.139-216.192-13.843-271.875z"/><path d="m361.707 400.145c-3.809-1.621-8.216.15-9.839 3.961-7.496 17.595-16.247 34.863-26.011 51.328-2.113 3.563-.937 8.163 2.625 10.276 1.2.712 2.518 1.05 3.818 1.05 2.562 0 5.057-1.313 6.458-3.676 10.1-17.032 19.153-34.897 26.908-53.1 1.625-3.81-.148-8.215-3.959-9.839z"/><path d="m285.224 195.46.997-.48c6.424-3.093 14.171-2.066 19.735 2.612 33.876 28.486 68.849 37.629 92.222 40.283 8.315.947 16.385-2.007 22.143-8.095 5.794-6.126 8.305-14.408 6.889-22.724-4.552-26.729-14.145-63.336-33.991-85.952-23.104-26.329-72.212-34.638-99.429-37.247-5.717-.548-10.106-5.086-10.438-10.781l-.009-.154c-.365-6.277 4.46-11.73 10.756-12.155 19.657-1.329 39.826.018 59.941 3.994 4.067.808 8.009-1.839 8.813-5.902s-1.839-8.009-5.902-8.813c-21.406-4.233-42.893-5.661-63.862-4.246-14.471.979-25.561 13.536-24.72 27.984l.009.154c.764 13.14 10.849 23.592 23.981 24.851 6.176.592 11.934 1.325 17.338 2.16-22.476 5.309-43.516 13.517-62.84 24.582-12.178 6.972-16.514 22.589-9.665 34.814l.067.119c6.225 11.111 19.42 15.938 31.378 11.477 11.322-4.223 33.212-11.47 54.656-13.473-9.119 6.221-17.742 12.891-25.817 19.951-5.994-.628-12.145.345-17.759 3.045l-.997.48c-8.69 4.182-15.112 11.92-17.62 21.229-1.359 5.044-1.484 10.267-.466 15.269-2.627 3.595-5.175 7.288-7.578 11.005-7.835 12.12-4.424 28.438 7.574 36.354l.15.101c4.48 2.955 9.529 4.394 14.539 4.394 6.335-.001 12.604-2.304 17.563-6.75 5.346 5.356 10.915 10.379 16.699 15.033 2.521 2.028 5.074 3.975 7.657 5.849-1.711 8.223-2.938 16.552-3.647 24.804-1.133 13.195 8.656 24.951 21.847 26.209l.103.009c.791.076 1.576.112 2.355.112 11.008 0 20.644-7.39 23.411-18.293.735-2.895 1.536-5.768 2.365-8.616 4.904 1.669 9.877 3.121 14.92 4.329-1.518 10.396-5.545 32.505-15.23 61.059-1.331 3.923.771 8.182 4.693 9.512.799.271 1.611.399 2.41.399 3.125 0 6.042-1.969 7.102-5.093 10.003-29.49 14.202-52.247 15.84-63.457 5.441.528 13.207 1.101 21.281 1.101 1.557 0 3.128-.021 4.693-.068 4.141-.125 7.396-3.583 7.271-7.723s-3.598-7.363-7.722-7.271c-13.953.418-28.742-1.457-30.772-1.725-54.728-10.776-90.045-48.151-110.039-77.625-2.993-4.413-3.917-9.886-2.535-15.016 1.369-5.092 4.883-9.326 9.64-11.615zm114.646 27.511c-11.127-1.263-25.145-4.152-40.411-10.324 4.994-1.766 9.755-2.857 14.227-3.211 10.89-.862 23.816.896 38.471 5.209-.497 1.778-1.414 3.433-2.734 4.828-2.488 2.629-5.972 3.902-9.553 3.498zm-136.476-65.084c-4.979 1.86-10.467-.141-13.05-4.754l-.067-.12c-2.843-5.075-1.035-11.563 4.032-14.464 27.404-15.691 58.56-25.29 92.609-28.547 20.892 7.457 30.87 16.26 35.027 20.997 10.902 12.423 18.349 30.495 23.334 47.396-16.853-17.442-30.941-25.921-40.723-30.033-30.935-13.004-76.66.387-101.162 9.525zm86.518 1.594c3.094.662 6.058 1.545 8.829 2.71 15.886 6.678 30.992 20.783 42.882 34.405-10.598-2.095-20.342-2.806-29.121-2.113-9.638.762-20.019 3.998-30.889 9.62-8.571-4.781-17.323-10.691-26.004-17.991-.68-.572-1.382-1.108-2.097-1.619 11.17-9.143 23.364-17.525 36.4-25.012zm-3.146 154.095c-1.131 4.456-5.259 7.375-9.83 6.938l-.102-.009c-5.009-.478-8.732-4.96-8.3-9.991.488-5.692 1.266-11.423 2.273-17.127 6.128 3.668 12.408 6.923 18.826 9.77-1.016 3.432-1.978 6.92-2.867 10.419zm-64.121-61.022c-3.831 3.246-9.323 3.654-13.576.847l-.15-.1c-5.188-3.424-6.655-10.471-3.268-15.71.79-1.222 1.601-2.439 2.421-3.653 4.597 6.532 9.464 12.74 14.573 18.616z"/><path d="m228.019 184.704h-50.253c5.907-12.252 9.22-25.98 9.22-40.468 0-13.473-2.87-26.287-8.022-37.87h23.078c4.142 0 7.5-3.357 7.5-7.5s-3.358-7.5-7.5-7.5h-31.485c-7.001-10.172-15.959-18.897-26.329-25.623h100.654c4.142 0 7.5-3.357 7.5-7.5s-3.358-7.5-7.5-7.5h-151.389c-21.355 0-42.246 7.401-58.825 20.842-3.217 2.608-3.711 7.331-1.103 10.549 2.608 3.22 7.332 3.711 10.549 1.104 14.118-11.444 31.192-17.494 49.379-17.494 22.933 0 43.598 9.889 57.962 25.623h-12.156c-4.142 0-7.5 3.357-7.5 7.5s3.358 7.5 7.5 7.5h22.919c6.217 11.237 9.768 24.145 9.768 37.87 0 43.28-35.212 78.492-78.493 78.492s-78.493-35.212-78.493-78.492c0-13.216 3.354-26.29 9.701-37.81 1.999-3.628.678-8.189-2.95-10.188-3.629-1.997-8.189-.677-10.188 2.95-7.565 13.73-11.563 29.307-11.563 45.048 0 51.552 41.94 93.492 93.493 93.492h98.408c4.142 0 7.5-3.357 7.5-7.5s-3.358-7.5-7.5-7.5h-47.673c9.477-6.146 17.774-13.961 24.476-23.024h59.314c4.142 0 7.5-3.357 7.5-7.5s-3.357-7.501-7.499-7.501z"/><path d="m55.538 184.2c0 4.143 3.358 7.5 7.5 7.5h.102c4.142 0 7.5-3.357 7.5-7.5s-3.358-7.5-7.5-7.5h-.102c-4.142 0-7.5 3.358-7.5 7.5z"/><path d="m126.127 191.907c4.142 0 7.5-3.357 7.5-7.5s-3.358-7.5-7.5-7.5h-.102c-4.142 0-7.5 3.357-7.5 7.5s3.358 7.5 7.5 7.5z"/><path d="m69.535 166.859h.102c4.142 0 7.5-3.357 7.5-7.5s-3.358-7.5-7.5-7.5h-.102c-4.142 0-7.5 3.357-7.5 7.5s3.358 7.5 7.5 7.5z"/></g></g></svg>