<svg height="473pt" viewBox="-22 0 473 473.15413" width="473pt" xmlns="http://www.w3.org/2000/svg"><path d="m414.601562 215.652344-133.128906-19.351563-66.710937-135.167969-66.710938 135.203126-133.128906 19.316406c-3.011719.441406-5.511719 2.550781-6.449219 5.445312-.941406 2.894532-.160156 6.070313 2.019532 8.195313l96.328124 93.90625-22.738281 132.589843c-.515625 3.003907.71875 6.035157 3.183594 7.824219 2.464844 1.789063 5.730469 2.027344 8.425781.609375l119.070313-62.601562 119.074219 62.601562c2.695312 1.417969 5.960937 1.179688 8.421874-.609375 2.464844-1.789062 3.699219-4.820312 3.183594-7.824219l-22.734375-132.589843 96.328125-93.90625c2.175782-2.125 2.960938-5.300781 2.019532-8.195313-.941407-2.894531-3.441407-5.003906-6.453126-5.445312zm0 0" fill="#ffa733"/><path d="m428.667969 218.621094c-1.859375-5.804688-6.875-10.039063-12.914063-10.886719l-128.992187-18.746094-62.398438-126.460937c15.070313-4.742188 24.425781-19.769532 22.027344-35.382813-2.394531-15.617187-15.832031-27.144531-31.628906-27.144531s-29.230469 11.527344-31.628907 27.144531c-2.398437 15.613281 6.960938 30.640625 22.03125 35.382813l-62.402343 126.460937-128.992188 18.746094c-6.023437.878906-11.027343 5.097656-12.910156 10.890625-1.878906 5.789062-.3125 12.144531 4.046875 16.398438l93.328125 90.964843-22.03125 128.441407c-1.023437 6 1.441406 12.058593 6.363281 15.636718s11.445313 4.050782 16.835938 1.226563l115.359375-60.640625 115.351562 60.671875c5.390625 2.824219 11.910157 2.347656 16.832031-1.226563 4.921876-3.574218 7.390626-9.632812 6.371094-15.628906l-22.027344-128.480469 93.328126-90.964843c4.386718-4.238282 5.957031-10.609376 4.050781-16.402344zm-229.90625-186.496094c0-8.835938 7.164062-16 16-16 8.835937 0 16 7.164062 16 16s-7.164063 16-16 16c-8.835938 0-16-7.164062-16-16zm118.351562 285.34375c-1.882812 1.839844-2.742187 4.488281-2.292969 7.082031l22.75 132.589844-119.085937-62.613281c-2.328125-1.242188-5.117187-1.242188-7.441406 0l-119.082031 62.613281 22.746093-132.589844c.445313-2.59375-.414062-5.242187-2.296875-7.082031l-96.34375-93.902344 133.136719-19.34375c2.605469-.378906 4.859375-2.015625 6.023437-4.375l59.535157-120.632812 59.535156 120.632812c1.167969 2.359375 3.417969 3.996094 6.027344 4.375l133.125 19.351563zm0 0" fill="#2d2d30"/></svg>