<?xml version="1.0"?>
<svg xmlns="http://www.w3.org/2000/svg" id="Flat" viewBox="0 0 512 512" width="512" height="512"><path d="M392,298.368V104H200V248.235l-73.187,73.186c-25.428,25.428-36.988,62.313-28.26,97.2C118.926,500.048,215.762,504.237,264,456L373.886,342.982A64,64,0,0,0,392,298.368Z" style="fill:#dc2027"/><path d="M392,104V298.37a64,64,0,0,1-18.11,44.61L264,456a102.829,102.829,0,0,1-24,17.77V472A128,128,0,0,0,112,344h-2.48a107.956,107.956,0,0,1,17.29-22.58L200,248.23V104Z" style="fill:none"/><path d="M240,472v1.77c-51.03,27.57-124.06,14.32-141.45-55.15-6.39-25.57-1.89-52.2,10.97-74.62H112A128,128,0,0,1,240,472Z" style="fill:#326859"/><path d="M360,224a8,8,0,0,0-8-8h-9.052l7.708-11.562a8,8,0,0,0-13.312-8.876L323.719,216H304V196.281l20.437-13.625a8,8,0,0,0-8.876-13.312L304,177.052V168a8,8,0,0,0-16,0v9.052l-11.562-7.708a8,8,0,1,0-8.876,13.312L288,196.281V216H268.281l-13.625-20.438a8,8,0,1,0-13.312,8.876L249.052,216H240a8,8,0,0,0,0,16h9.052l-7.708,11.562a8,8,0,1,0,13.312,8.876L268.281,232H288v19.719l-20.438,13.625a8,8,0,1,0,8.876,13.312L288,270.948V280a8,8,0,0,0,16,0v-9.053l11.562,7.708a8,8,0,0,0,8.876-13.312L304,251.719V232h19.719l13.625,20.438a8,8,0,0,0,13.312-8.876L342.948,232H352A8,8,0,0,0,360,224Z" style="fill:#fff"/><rect x="176" y="24" width="240" height="96" rx="32" ry="32" style="fill:#326859"/></svg>
