<svg height="512pt" viewBox="0 0 511 512" width="512pt" xmlns="http://www.w3.org/2000/svg"><path d="m451.683594 258.546875 5.988281-61.253906c1.855469-18.96875-4.878906-37.769531-18.351563-51.242188l-72.871093-72.871093c-13.472657-13.472657-32.273438-20.207032-51.242188-18.351563l-61.253906 5.988281c-14.679687 1.4375-28.40625 7.925782-38.839844 18.355469l-195.957031 195.957031c-24.875 24.875-24.875 65.207032 0 90.082032l128.132812 128.132812c24.875 24.875 65.207032 24.875 90.082032 0l195.957031-195.957031c10.429687-10.433594 16.917969-24.160157 18.355469-38.839844zm0 0" fill="#ff7a7a"/><path d="m367.972656 74.699219-44.710937 44.710937c-19.25 19.253906-19.25 50.578125 0 69.828125 9.324219 9.324219 21.722656 14.460938 34.914062 14.460938 13.1875 0 25.585938-5.132813 34.914063-14.460938l44.710937-44.710937zm0 0" fill="#d83a5c"/><path d="m50.96875 333.394531c-7.292969-7.292969-7.292969-19.15625 0-26.453125l195.960938-195.957031c3.054687-3.054687 7.101562-4.96875 11.402343-5.386719l61.257813-5.992187c5.589844-.550781 11.074218 1.414062 15.046875 5.386719l72.867187 72.871093c3.972656 3.972657 5.9375 9.457031 5.390625 15.046875l-5.992187 61.253906c-.417969 4.300782-2.332032 8.351563-5.386719 11.40625l-195.960937 195.957032c-7.292969 7.292968-19.160157 7.292968-26.453126 0zm0 0" fill="#e6e9ed"/><path d="m336.15625 106.515625-12.894531 12.894531c-19.253907 19.253906-19.253907 50.578125 0 69.828125 9.324219 9.324219 21.722656 14.460938 34.914062 14.460938 13.1875 0 25.585938-5.132813 34.914063-14.460938l12.894531-12.894531zm0 0" fill="#ccd1d9"/><path d="m505.582031 6.917969c-9.226562-9.222657-24.183593-9.222657-33.40625 0l-130.703125 130.703125c-9.226562 9.222656-9.226562 24.179687 0 33.40625 9.222656 9.222656 24.179688 9.222656 33.402344 0l130.707031-130.703125c9.222657-9.226563 9.222657-24.183594 0-33.40625zm0 0" fill="#434a53"/><path d="m180.28125 309.945312 22.269531 22.269532-49.355469 49.355468-22.273437-22.269531zm0 0" fill="#914b3b"/><path d="m225.769531 381.550781 16.789063-55.320312c1.691406-5.570313 8.714844-7.328125 12.832031-3.210938l4.707031 4.707031c4.328125 4.328126 11.730469 2.128907 12.996094-3.859374l12.417969-58.859376c1.265625-5.988281 8.667969-8.1875 12.996093-3.859374 4.511719 4.515624 12.242188 1.902343 13.09375-4.425782l7.316407-54.476562c.675781-5.039063-3.625-9.34375-8.667969-8.667969l-54.476562 7.316406c-6.328126.851563-8.9375 8.582031-4.425782 13.09375 4.328125 4.328125 2.128906 11.730469-3.859375 12.996094l-58.859375 12.417969c-5.988281 1.265625-8.1875 8.667968-3.859375 12.996094l4.707031 4.707031c4.117188 4.117187 2.359376 11.140625-3.210937 12.832031l-55.320313 16.789062c-5.574218 1.691407-7.332031 8.710938-3.214843 12.828126l85.207031 85.207031c4.121094 4.121093 11.140625 2.363281 12.832031-3.210938zm0 0" fill="#35a155"/></svg>