<?xml version="1.0" encoding="iso-8859-1"?>
<!-- Generator: Adobe Illustrator 19.0.0, SVG Export Plug-In . SVG Version: 6.00 Build 0)  -->
<svg version="1.1" id="Capa_1" xmlns="http://www.w3.org/2000/svg" xmlns:xlink="http://www.w3.org/1999/xlink" x="0px" y="0px"
	 viewBox="0 0 512 512" style="enable-background:new 0 0 512 512;" xml:space="preserve">
<path style="fill:#F2F2F2;" d="M472,8H40c-8.84,0-16,7.16-16,16v464c0,8.84,7.16,16,16,16h432c8.84,0,16-7.16,16-16V24
	C488,15.16,480.84,8,472,8z"/>
<rect x="24" y="8" style="fill:#D63230;" width="464" height="104"/>
<g>
	<rect x="240" y="408" style="fill:#FDC567;" width="32" height="48"/>
	<circle style="fill:#FDC567;" cx="408" cy="208" r="16"/>
	<circle style="fill:#FDC567;" cx="104" cy="368" r="16"/>
	<path style="fill:#FDC567;" d="M88,136L88,136c-8.84,0-16-7.16-16-16v-16c0-8.84,7.16-16,16-16l0,0c8.84,0,16,7.16,16,16v16
		C104,128.84,96.84,136,88,136z"/>
	<path style="fill:#FDC567;" d="M200,136L200,136c-8.84,0-16-7.16-16-16v-16c0-8.84,7.16-16,16-16l0,0c8.84,0,16,7.16,16,16v16
		C216,128.84,208.84,136,200,136z"/>
	<path style="fill:#FDC567;" d="M312,136L312,136c-8.84,0-16-7.16-16-16v-16c0-8.84,7.16-16,16-16l0,0c8.84,0,16,7.16,16,16v16
		C328,128.84,320.84,136,312,136z"/>
</g>
<polyline style="fill:#9BC53D;" points="244.504,215.624 184.928,304 201.104,304 168.752,352 181.752,352 144,408 368.208,408 
	330.456,352 343.456,352 311.096,304 327.28,304 267.704,215.624 "/>
<g>
	<polygon style="fill:#FDC567;" points="256.264,163.2 266.072,183.072 288,186.256 272.128,201.728 275.88,223.568 
		256.264,213.256 236.648,223.568 240.392,201.728 224.528,186.256 246.456,183.072 	"/>
	<path style="fill:#FDC567;" d="M424,136L424,136c-8.84,0-16-7.16-16-16v-16c0-8.84,7.16-16,16-16l0,0c8.84,0,16,7.16,16,16v16
		C440,128.84,432.84,136,424,136z"/>
</g>
<path d="M408,184c-13.232,0-24,10.768-24,24s10.768,24,24,24s24-10.768,24-24S421.232,184,408,184z M408,216c-4.416,0-8-3.584-8-8
	s3.584-8,8-8s8,3.584,8,8S412.416,216,408,216z"/>
<path d="M104,344c-13.232,0-24,10.768-24,24s10.768,24,24,24s24-10.768,24-24S117.232,344,104,344z M104,376c-4.408,0-8-3.584-8-8
	s3.592-8,8-8s8,3.584,8,8S108.408,376,104,376z"/>
<rect x="88" y="240" width="16" height="16"/>
<rect x="136" y="192" width="16" height="16"/>
<rect x="120" y="296" width="16" height="16"/>
<rect x="400" y="288" width="16" height="16"/>
<rect x="328" y="224" width="16" height="16"/>
<rect x="376" y="352" width="16" height="16"/>
<path d="M345.352,359.776c2.184-0.528,4.08-1.976,5.168-4.016c1.392-2.608,1.224-5.776-0.432-8.224L326.144,312h1.144
	c2.96,0,5.672-1.632,7.064-4.24s1.224-5.776-0.432-8.224l-50.232-74.512c0.168-0.912,0.24-1.848,0.08-2.8l-3.032-17.696
	l12.856-12.536c2.176-2.128,2.96-5.304,2.024-8.192c-0.944-2.896-3.448-5.008-6.464-5.448l-17.768-2.584l-7.952-16.096
	c-2.696-5.472-11.656-5.472-14.344,0l-7.944,16.096l-17.768,2.584c-3.008,0.44-5.512,2.544-6.456,5.448
	c-0.944,2.888-0.16,6.072,2.024,8.192L231.8,204.52l-3.032,17.704c-0.144,0.832-0.12,1.648-0.008,2.456l-50.456,74.856
	c-1.656,2.456-1.824,5.616-0.432,8.224c1.384,2.608,4.104,4.24,7.064,4.24h1.144l-23.952,35.528
	c-1.656,2.456-1.824,5.616-0.432,8.224c1.088,2.04,2.984,3.488,5.168,4.016l-29.496,43.76c-1.656,2.456-1.824,5.616-0.432,8.224
	C138.328,414.368,141.04,416,144,416h88v40c0,4.424,3.584,8,8,8h32c4.424,0,8-3.576,8-8v-40h88.208c2.96,0,5.672-1.632,7.064-4.24
	s1.224-5.776-0.432-8.224L345.352,359.776z M304.472,308.472l23.344,34.632c-56.776-5.656-100.944-40.464-103.544-83.16
	l21.744-32.264l10.24-5.384l9.752,5.128L312.24,296h-1.144c-2.96,0-5.672,1.632-7.064,4.24S302.816,306.016,304.472,308.472z
	 M247.608,190.984c2.608-0.376,4.856-2.016,6.024-4.376l2.632-5.336l2.64,5.336c1.168,2.36,3.416,4,6.024,4.376l5.888,0.856
	l-4.264,4.16c-1.88,1.832-2.744,4.488-2.296,7.08l1,5.864l-5.264-2.768c-1.168-0.616-2.448-0.92-3.72-0.92s-2.56,0.304-3.72,0.92
	l-5.264,2.768l1.008-5.864c0.44-2.592-0.416-5.24-2.304-7.08l-4.264-4.16L247.608,190.984z M264,448h-16v-32h16V448z M159.04,400
	l29.344-43.528c1.656-2.456,1.824-5.616,0.432-8.224c-1.088-2.04-2.984-3.488-5.168-4.016l24.104-35.76
	c1.656-2.456,1.824-5.616,0.432-8.224c-1.4-2.616-4.12-4.248-7.072-4.248h-1.144l11.48-17.04
	c12.384,41.808,57.752,74.056,114.024,79.96L353.168,400H159.04z"/>
<rect x="256" y="272" width="16" height="16"/>
<rect x="224" y="352" width="16" height="16"/>
<path d="M472,0H40C26.768,0,16,10.768,16,24v464c0,13.232,10.768,24,24,24h432c13.232,0,24-10.768,24-24V24
	C496,10.768,485.232,0,472,0z M40,16h432c4.416,0,8,3.584,8,8v80h-32c0-10.416-6.712-19.216-16-22.528V64h-16v17.472
	c-9.288,3.312-16,12.112-16,22.528h-64c0-10.416-6.712-19.216-16-22.528V64h-16v17.472c-9.288,3.312-16,12.112-16,22.528h-64
	c0-10.416-6.712-19.216-16-22.528V64h-16v17.472c-9.288,3.312-16,12.112-16,22.528h-64c0-10.416-6.712-19.216-16-22.528V64H80
	v17.472C70.712,84.784,64,93.584,64,104H32V24C32,19.584,35.592,16,40,16z M432,104v16c0,4.416-3.584,8-8,8s-8-3.584-8-8v-16
	c0-4.416,3.584-8,8-8S432,99.584,432,104z M320,104v16c0,4.416-3.584,8-8,8s-8-3.584-8-8v-16c0-4.416,3.584-8,8-8
	S320,99.584,320,104z M208,104v16c0,4.416-3.592,8-8,8s-8-3.584-8-8v-16c0-4.416,3.592-8,8-8S208,99.584,208,104z M96,104v16
	c0,4.416-3.592,8-8,8s-8-3.584-8-8v-16c0-4.416,3.592-8,8-8S96,99.584,96,104z M472,496H40c-4.408,0-8-3.584-8-8V120h32
	c0,13.232,10.768,24,24,24s24-10.768,24-24h64c0,13.232,10.768,24,24,24s24-10.768,24-24h64c0,13.232,10.768,24,24,24
	s24-10.768,24-24h64c0,13.232,10.768,24,24,24s24-10.768,24-24h32v368C480,492.416,476.416,496,472,496z"/>
<g>
</g>
<g>
</g>
<g>
</g>
<g>
</g>
<g>
</g>
<g>
</g>
<g>
</g>
<g>
</g>
<g>
</g>
<g>
</g>
<g>
</g>
<g>
</g>
<g>
</g>
<g>
</g>
<g>
</g>
</svg>
